<ttFont>
<head>
    <!-- Most of this table will be recalculated by the compiler -->
    <tableVersion value="1.0"/>
    <fontRevision value="1.0"/>
    <checkSumAdjustment value="0x72ffa194"/>
    <magicNumber value="0x5f0f3cf5"/>
    <flags value="00000000 00000011"/>
    <unitsPerEm value="1000"/>
    <created value="Wed Jul 04 08:08:00 2012"/>
    <modified value="Thu Dec 05 23:26:07 2013"/>
    <xMin value="-169"/>
    <yMin value="-305"/>
    <xMax value="988"/>
    <yMax value="1080"/>
    <macStyle value="00000000 00000001"/>
    <lowestRecPPEM value="3"/>
    <fontDirectionHint value="2"/>
    <indexToLocFormat value="0"/>
    <glyphDataFormat value="0"/>
  </head>
          <CharString index="0">
            hlineto
            -105 callgsubr
            return
          </CharString>
          <CharString index="1">
            11 -9 9 -11 vhcurveto
            return
          </CharString>
          <CharString index="2">
            hlineto
            -104 callsubr
            return
          </CharString>
          <CharString index="3">
            -98 callgsubr
            hvcurveto
            return
          </CharString>
          <CharString index="4">
            rmoveto
            -92 hlineto
            -6 -4 3 8 2 hvcurveto
            48 240 rlineto
            3 1 1 1 3 hhcurveto
            2 hlineto
            3 1 -1 -3 1 hvcurveto
            48 -240 rlineto
            -8 2 -4 -3 -6 hhcurveto
            75 -258 rmoveto
            -9 3 7 -6 9 hhcurveto
            105 hlineto
            16 6 11 9 -2 hvcurveto
            -178 665 rlineto
            9 -2 -8 6 -9 hhcurveto
            -134 hlineto
            -9 -8 -6 -9 -2 hvcurveto
            -179 -665 rlineto
            -9 -2 6 -11 16 hhcurveto
            105 hlineto
            9 8 6 9 2 hvcurveto
            28 103 rlineto
            9 2 4 6 9 hhcurveto
            152 hlineto
            9 4 -7 -8 2 hvcurveto
            return
          </CharString>
          <CharString index="5">
            -104 callgsubr
            90 -107 callsubr
            return
          </CharString>
          <CharString index="6">
            12 18 10 25 26 vvcurveto
            97 vlineto
            11 -9 9 -11 vhcurveto
            -100 9 callsubr
            24 hlineto
            6 7 -6 -7 -4 hvcurveto
            -34 -69 rlineto
            -18 -9 10 -20 20 hhcurveto
            endchar
          </CharString>
          <CharString index="7">
            -84 callgsubr
            11 return
          </CharString>
          <CharString index="8">
            205 -93 callsubr
            -363 -81 callgsubr
            367 -52 callsubr
            return
          </CharString>
          <CharString index="9">
            176 325 rmoveto
            38 6 21 18 50 hhcurveto
            51 22 -23 -33 5 hvcurveto
            6 -40 0 -70 -6 -40 rrcurveto
            -33 -5 -22 -23 -51 hhcurveto
            -50 -22 21 35 -5 hvcurveto
            -6 40 0 70 6 40 rrcurveto
            -130 -150 rmoveto
            -105 13 72 -81 123 hhcurveto
            122 72 81 105 13 hvcurveto
            5 40 0 70 -5 40 rrcurveto
            105 -13 -72 81 -123 105 callgsubr
            rrcurveto
            return
          </CharString>
          <CharString index="10">
            253 393 rmoveto
            43 42 -20 -43 -6 -4 -3 -6 hvcurveto
            -152 hlineto
            -6 -4 3 6 38 30 25 57 hvcurveto
            184 -183 rmoveto
            -34 callgsubr
            -122 -72 -81 -105 -13 vhcurveto
            -13 callsubr
            122 hhcurveto
            111 68 65 93 23 hvcurveto
            16 4 -11 6 -10 hhcurveto
            -83 hlineto
            -9 -9 -4 -13 -5 hvcurveto
            return
          </CharString>
          <CharString index="11">
            -107 callsubr
            100 -96 callgsubr
            return
          </CharString>
          <CharString index="12">
            528 680 rmoveto
            -68 callsubr
            -48 callgsubr
            -121 100 -100 136 138 100 100 121 vhcurveto
            return
          </CharString>
          <CharString index="13">
            -40 callgsubr
            64 84 rlineto
            13 17 9 26 26 vvcurveto
            117 vlineto
            -51 callgsubr
            24 hlineto
            6 7 -6 -7 -4 hvcurveto
            -54 -99 rlineto
            -18 -10 11 -20 20 hhcurveto
            return
          </CharString>
          <CharString index="14">
            270 rmoveto
            -78 callsubr
            120 vlineto
            -69 callsubr
            vhcurveto
            -53 callgsubr
            return
          </CharString>
          <CharString index="15">
            47 callgsubr
            -108 hlineto
            -9 -7 -8 -8 hvcurveto
            -108 vlineto
            -9 7 -7 9 vhcurveto
            66 callgsubr
            7 7 9 hvcurveto
            return
          </CharString>
          <CharString index="16">
            63 72 138 -126 -21 37 110 -90 90 -57 97 -47 47 -14 64 -64 80 -2 42 31 73 -73 101 -2 22 -22 75 hstemhm
            18 160 -114 198 -167 43 -43 83 -83 167 -8 44 52 53 -22 22 -22 67 -67 99 hintmask 010100101101010000110000
            184 120 rmoveto
            hintmask 100000101101000001010000
            44 -15 -48 25 hhcurveto
            15 9 11 16 23 14 8 12 hvcurveto
            hintmask 011000101101010000110000
            36 20 -30 24 hhcurveto
            24 11 16 17 hvcurveto
            32 -20 -5 22 vvcurveto
            hintmask 010001001101010000110000
            13 11 8 14 vhcurveto
            hintmask 010010001101010000100010
            34 7 -50 31 hhcurveto
            29 23 23 29 25 -11 20 -29 hvcurveto
            hintmask 100000101101010000100100
            -33 -11 13 13 hvcurveto
            hintmask 100000101100110000100010
            34 32 0 38 64 -78 -6 38 22 48 4 43 vvcurveto
            hintmask 100000101100110000110000
            29 -18 19 -29 vhcurveto
            hintmask 100000101101010000110000
            -30 -23 -16 -37 -33 -7 -15 -28 hvcurveto
            -38 8 48 -42 -45 28 -55 -32 hhcurveto
            hintmask 100000101010000010110000
            -18 -3 35 -21 hhcurveto
            -7 -9 -7 -7 hvcurveto
            -10 8 -7 -7 vvcurveto
            -5 -3 -3 -6 -22 -18 -11 -26 vhcurveto
            -16 10 -17 -16 vvcurveto
            hintmask 100000010101010000110000
            -13 -7 -27 -20 vhcurveto
            -10 -4 11 -13 hhcurveto
            -19 -14 -21 -18 -26 10 -26 20 hvcurveto
            15 -1 7 16 hhcurveto
            15 13 -15 -23 hvcurveto
            hintmask 010100101101001000010000
            -60 -42 11 -48 vvcurveto
            -24 24 -21 28 vhcurveto
            52 -20 57 36 hhcurveto
            hintmask 100000101101010000101000
            114 220 rmoveto
            22 18 25 22 22 21 -25 -22 -22 -21 -18 -22 -22 -18 18 22 vhcurveto
            -17 -114 rmoveto
            16 13 6 16 9 hvcurveto
            2 5 7 -3 -3 -6 rrcurveto
            -15 -6 -12 -19 -26 hhcurveto
            -28 -15 13 16 -10 hvcurveto
            -5 7 4 5 6 -5 rrcurveto
            -12 13 16 -8 19 hhcurveto
            -67 109 rmoveto
            -12 6 -9 8 8 6 9 12 12 -6 9 -8 -8 -6 -9 -12 vhcurveto
            96 5 rmoveto
            -12 6 -9 8 8 6 9 12 12 -6 9 -8 -8 -6 -9 -12 vhcurveto
            -132 hmoveto
            28 14 22 22 22 18 -22 -28 -28 -18 -22 -22 -22 -14 22 28 vhcurveto
            -93 180 rmoveto
            -19 13 -15 16 vhcurveto
            hintmask 100000101101000100110000
            13 11 15 19 19 -11 15 -13 -16 -13 -15 -19 hvcurveto
            endchar
          </CharString>
          <CharString index="17">
            6 callgsubr
            10 10 hvcurveto
            1 vlineto
            133 -100 95 -138 -138 -86 -101 -120 -14 vhcurveto
            -10 -19 callsubr
            10 -84 rrcurveto
            -44 callsubr
            return
          </CharString>
          <CharString index="18">
            rmoveto
            -97 callgsubr
            return
          </CharString>
          <CharString index="19">
            -106 callsubr
            -100 -105 callsubr
            return
          </CharString>
          <CharString index="20">
            -11 -9 -9 return
          </CharString>
          <CharString index="21">
            rmoveto
            72 callsubr
            196 13 callsubr
            -70 hlineto
            -6 -2 -1 -6 -3 hvcurveto
            -105 -178 rlineto
            -4 -7 -4 -6 -7 vvcurveto
            -74 -12 callsubr
            108 hlineto
            hintmask 11100100
            3 2 -2 -3 hvcurveto
            -46 vlineto
            -5 4 -5 6 vhcurveto
            61 -32 callsubr
            46 vlineto
            22 callgsubr
            14 hlineto
            hintmask 11101000
            -69 callsubr
            hvcurveto
            58 -50 callsubr
            -107 75 rmoveto
            hintmask 11100100
            2 3 5 -1 -4 vvcurveto
            -68 vlineto
            60 callsubr
            -33 hlineto
            -4 -2 3 4 2 hvcurveto
            endchar
          </CharString>
          <CharString index="22">
            140 vstem
            241 280 rmoveto
            11 5 -8 -5 2 hvcurveto
            102 -247 rlineto
            -12 5 8 -8 16 hhcurveto
            103 hlineto
            20 6 15 15 -7 hvcurveto
            -107 250 -7 15 -1 8 14 10 rlinecurve
            71 48 33 52 77 vvcurveto
            115 -95 95 -115 vhcurveto
            -220 -33 callsubr
            90 280 rmoveto
            38 32 -32 -38 -39 -32 -31 -38 hvcurveto
            -90 19 callsubr
            return
          </CharString>
          <CharString index="23">
            hlineto
            -24 callgsubr
            -98 callgsubr
            hvcurveto
            -80 vlineto
            -11 9 -9 11 vhcurveto
            80 -75 callgsubr
            return
          </CharString>
          <CharString index="24">
            253 497 rmoveto
            -6 -4 4 6 hvcurveto
            153 -85 callgsubr
            -153 -65 callsubr
            -78 -61 callgsubr
            78 -67 callsubr
            -184 vlineto
            -114 76 -69 114 vhcurveto
            70 -107 callsubr
            85 -96 callgsubr
            -70 hlineto
            -36 -24 27 33 hvcurveto
            182 106 callsubr
            80 vlineto
            11 -9 9 -11 vhcurveto
            return
          </CharString>
          <CharString index="25">
            148 485 rmoveto
            11 -4 -6 4 -9 hhcurveto
            -103 hlineto
            -16 -7 -13 -10 4 hvcurveto
            166 -445 4 -10 -1 -3 -3 -9 rlinecurve
            -70 -187 rlineto
            -10 -4 7 -13 16 hhcurveto
            92 hlineto
            9 6 4 11 4 hvcurveto
            235 662 rlineto
            10 4 -7 13 -16 hhcurveto
            -101 hlineto
            -9 -7 -4 -11 -3 hvcurveto
            -81 -284 -2 -8 -7 0 -3 8 rlinecurve
            return
          </CharString>
          <CharString index="26">
            205 680 rmoveto
            11 callsubr
            return
          </CharString>
          <CharString index="27">
            hlineto
            -6 -4 4 6 hvcurveto
            return
          </CharString>
          <CharString index="28">
            rmoveto
            -106 callgsubr
            100 hmoveto
            -45 callsubr
          </CharString>
          <CharString index="29">
            -69 callsubr
            vhcurveto
            225 -96 callsubr
            -225 -80 callsubr
            return
          </CharString>
          <CharString index="30">
            -11 1 9 -5 9 hhcurveto
            89 hlineto
            11 6 9 11 124 -94 72 -110 -123 -25 callsubr
            110 94 74 122 11 -6 9 -11 hvcurveto
            -89 hlineto
            -9 -8 -5 -11 -2 hvcurveto
            return
          </CharString>
          <CharString index="31">
            -30 callgsubr
            -470 vlineto
            return
          </CharString>
          <CharString index="32">
            rmoveto
            -19 -11 -6 -11 hhcurveto
            -12 -1 10 11 hvcurveto
            hintmask 11011000
            19 21 13 19 20 9 -13 -10 6 vhcurveto
            hintmask 11100100
            -6 3 5 -3 10 hhcurveto
            50 44 callsubr
            55 -62 44 -56 -60 -48 -50 -62 -7 hvcurveto
            -5 -44 0 -52 5 -44 rrcurveto
            -61 7 46 -51 64 hhcurveto
            71 47 53 68 68 -34 51 -67 hvcurveto
            -17 -159 rmoveto
            -20 -16 14 30 19 9 21 27 21 15 -14 -26 -25 -11 -19 -25 hvcurveto
            endchar
          </CharString>
          <CharString index="33">
            -40 callsubr
            -58 -103 callgsubr
            262 -107 callsubr
            58 -96 callgsubr
            return
          </CharString>
          <CharString index="34">
            -10 65 callsubr
            10 84 rrcurveto
            44 5 31 36 61 hhcurveto
            return
          </CharString>
          <CharString index="35">
            43 141 rmoveto
            -13 -13 0 -5 -13 vvcurveto
            -90 -103 callgsubr
            368 -58 callgsubr
            -219 hlineto
            -6 -3 5 5 4 hvcurveto
            214 222 rlineto
            10 10 10 13 18 vvcurveto
            57 callsubr
            -348 -61 callgsubr
            205 hlineto
            6 3 2 callgsubr
            hvcurveto
            return
          </CharString>
          <CharString index="36">
            rmoveto
            -5 -43 0 -46 5 -43 rrcurveto
            -57 6 46 -59 63 hhcurveto
            58 48 52 64 8 hvcurveto
            5 44 0 44 -5 44 rrcurveto
            57 -6 -46 59 -62 hhcurveto
            -59 -49 -52 -64 -7 hvcurveto
            115 31 rmoveto
            11 13 -10 -17 2 hvcurveto
            4 -45 0 -50 -4 -45 rrcurveto
            -12 -1 -10 -14 -15 hhcurveto
            -12 -13 9 17 -2 hvcurveto
            -4 45 0 50 4 45 rrcurveto
            12 1 10 15 16 hhcurveto
            endchar
          </CharString>
          <CharString index="37">
            hhcurveto
            -50 -65 callgsubr
            return
          </CharString>
          <CharString index="38">
            6 -38 callsubr
            return
          </CharString>
          <CharString index="39">
            -76 callsubr
            -44 -36 -36 -61 -59 -36 36 44 vhcurveto
            return
          </CharString>
          <CharString index="40">
            hlineto
            -66 callsubr
            return
          </CharString>
          <CharString index="41">
            6 4 -4 -6 hvcurveto
            return
          </CharString>
          <CharString index="42">
            vlineto
            -54 callgsubr
            return
          </CharString>
          <CharString index="43">
            rmoveto
            -62 callgsubr
            return
          </CharString>
          <CharString index="44">
            -104 callgsubr
            101 32 callsubr
            118 -96 93 -134 -132 -97 -93 -118 -129 99 -55 125 -28 vhcurveto
            75 -17 29 -20 -43 vvcurveto
            return
          </CharString>
          <CharString index="45">
            -27 rrcurveto
            -14 -1 -10 -12 -19 hhcurveto
            274 vmoveto
            -69 -43 -50 -60 -7 hvcurveto
            -5 -42 0 -60 5 -42 rrcurveto
            -60 7 43 -51 69 hhcurveto
            69 43 51 60 7 hvcurveto
            5 42 0 60 -5 42 rrcurveto
            60 -7 -43 50 -69 hhcurveto
            return
          </CharString>
          <CharString index="46">
            rmoveto
            3 2 -2 -3 hvcurveto
            -54 vlineto
            hintmask 10010000
            -5 -1 callsubr
            vhcurveto
            63 -19 callgsubr
            54 vlineto
            hintmask 01100000
            22 callgsubr
            54 -19 callgsubr
            63 -50 callsubr
            -54 hlineto
            hintmask 10010000
            72 callsubr
            53 -50 callsubr
            -63 hlineto
            -5 2 callsubr
            hvcurveto
            -53 vlineto
            hintmask 01100000
            60 callsubr
            -53 hlineto
            -5 2 callsubr
            hvcurveto
            -63 vlineto
            -5 -1 callsubr
            vhcurveto
            endchar
          </CharString>
          <CharString index="47">
            rmoveto
            -80 hlineto
            -22 -12 -12 -8 -6 hvcurveto
            -50 -61 rlineto
            -10 -12 -1 -7 -8 vvcurveto
            -62 vlineto
            -14 15 -6 8 8 vhcurveto
            60 61 rlineto
            hintmask 11010000
            5 5 10 0 -10 vvcurveto
            -214 vlineto
            -5 -1 callsubr
            vhcurveto
            73 -32 callsubr
            330 91 callgsubr
          </CharString>
          <CharString index="48">
            rmoveto
            -19 -5 2 19 -4 hvcurveto
            -9 41 0 113 9 41 rrcurveto
            26 6 9 -5 13 hhcurveto
            36 43 callsubr
            -36 hlineto
            -66 -40 -51 -54 -7 hvcurveto
            -5 -40 0 -115 5 -40 rrcurveto
            -65 8 45 -40 60 hhcurveto
            33 hlineto
            5 5 return
          </CharString>
          <CharString index="49">
            196 0 120 451 132 hstemhm
            50 139 -118 118 -118 226 89 226 -118 118 -118 139 hintmask 11100001
            528 142 rmoveto
            78 54 27 103 83 vvcurveto
            172 -120 149 -172 -172 -119 -149 -172 -83 28 -105 78 -53 vhcurveto
            -7 11 -4 -14 -15 hhcurveto
            -57 hlineto
            hintmask 11010100
            -104 callsubr
            -80 -103 callgsubr
            186 hlineto
            hintmask 11001100
            -105 callgsubr
            109 vlineto
            9 -1 21 -24 16 vhcurveto
            hintmask 11100010
            -45 29 -38 58 119 vvcurveto
            113 59 77 93 93 60 -77 -113 -119 -38 -58 -45 -29 vhcurveto
            hintmask 11100100
            -24 -16 -1 -21 -9 vvcurveto
            -109 -103 callgsubr
            186 -58 callgsubr
            -57 hlineto
            -15 -3 15 7 11 hvcurveto
            endchar
          </CharString>
          <CharString index="50">
            rlineto
            9 -3 -7 9 -15 hhcurveto
            -119 -89 callgsubr
            return
          </CharString>
          <CharString index="51">
            390 8 callgsubr
            return
          </CharString>
          <CharString index="52">
            84 52 callgsubr
            80 -96 callsubr
            -80 19 callsubr
            80 hlineto
            46 31 -37 124 callgsubr
            -90 123 callsubr
            -37 -46 hhcurveto
            97 callgsubr
            -120 550 -40 callsubr
            -250 -65 callsubr
            -37 9 callsubr
            129 callgsubr
            -250 40 callgsubr
          </CharString>
          <CharString index="53">
            100 hlineto
            -100 callsubr
            return
          </CharString>
          <CharString index="54">
            vlineto
            -88 callsubr
            return
          </CharString>
          <CharString index="55">
            -96 callsubr
            -237 -80 callsubr
            return
          </CharString>
          <CharString index="56">
            rmoveto
            -54 -8 -27 -16 -44 hhcurveto
            -51 -23 21 35 -4 hvcurveto
            -5 40 0 70 5 40 rrcurveto
            38 5 22 18 50 hhcurveto
            46 31 -21 -49 3 hvcurveto
            return
          </CharString>
          <CharString index="57">
            vlineto
            6 -4 4 -6 vhcurveto
            return
          </CharString>
          <CharString index="58">
            28 callsubr
            95 hlineto
            11 14 57 callgsubr
            152 -67 callsubr
            -250 vlineto
            -11 9 -9 11 vhcurveto
            100 hlineto
            -27 callsubr
            return
          </CharString>
          <CharString index="59">
            vlineto
            -71 callgsubr
            return
          </CharString>
          <CharString index="60">
            vlineto
            6 callgsubr
            9 11 hvcurveto
            return
          </CharString>
          <CharString index="61">
            -105 callgsubr
            90 -96 callgsubr
            return
          </CharString>
          <CharString index="62">
            -106 callgsubr
            endchar
          </CharString>
          <CharString index="63">
            -120 14 86 -101 138 hhcurveto
            return
          </CharString>
          <CharString index="64">
            rmoveto
            -5 callgsubr
            61 -50 callsubr
            -200 hlineto
            -5 2 callsubr
            hvcurveto
            -61 vlineto
            -5 -1 callsubr
            vhcurveto
            return
          </CharString>
          <CharString index="65">
            rmoveto
            -17 -10 -7 -17 -5 hvcurveto
            -29 -92 rlineto
            -15 -5 3 -24 32 hhcurveto
            62 hlineto
            17 11 7 17 4 hvcurveto
            21 92 rlineto
            16 4 -2 23 -32 hhcurveto
            endchar
          </CharString>
          <CharString index="66">
            -28 callgsubr
            59 160 hstemhm
            165 173 0 119 hintmask 01111010
            -97 callsubr
            hintmask 10111100
            -38 callgsubr
            return
          </CharString>
          <CharString index="67">
            rmoveto
            -104 callsubr
            return
          </CharString>
          <CharString index="68">
            -104 -86 -79 -104 hvcurveto
            -20 -65 callsubr
            return
          </CharString>
          <CharString index="69">
            4 4 6 return
          </CharString>
          <CharString index="70">
            -62 -35 36 46 vhcurveto
            30 -39 callgsubr
            -30 vlineto
            return
          </CharString>
          <CharString index="71">
            -5 -40 0 -70 5 -40 return
          </CharString>
          <CharString index="72">
            -21 32 38 -11 48 hhcurveto
            122 72 81 105 13 hvcurveto
            5 40 0 70 -5 40 -4 28 -8 27 -12 24 -1 2 -2 2 4 5 rrcurveto
            -107 -238 rmoveto
            -33 -5 -22 -23 -51 hhcurveto
            -14 -12 2 3 -10 hvcurveto
            -3 1 -5 3 6 7 113 140 rcurveline
            5 7 2 -5 -4 vvcurveto
            1 -35 -1 -38 -4 -25 rrcurveto
            -155 150 rmoveto
            38 6 21 18 50 hhcurveto
            12 12 -1 -3 9 hvcurveto
            3 -1 5 -2 -5 -6 -109 -137 rcurveline
            -6 -8 -3 6 4 vvcurveto
            -1 33 2 35 4 24 rrcurveto
            return
          </CharString>
          <CharString index="73">
            1 callgsubr
            -6 return
          </CharString>
          <CharString index="74">
            -89 callgsubr
            250 vlineto
            -69 callsubr
            vhcurveto
            return
          </CharString>
          <CharString index="75">
            hlineto
            -22 callsubr
            return
          </CharString>
          <CharString index="76">
            rmoveto
            5 -3 -7 10 -15 hhcurveto
            -80 hlineto
            -19 -9 -12 -21 12 hvcurveto
            85 -145 6 -9 0 -5 -6 -10 rlinecurve
            -85 -145 rlineto
            -21 -12 9 -12 19 hhcurveto
            80 -18 callsubr
            return
          </CharString>
          <CharString index="77">
            461 467 rmoveto
            11 9 -4 22 -21 hhcurveto
            -99 hlineto
            -15 -6 -7 -6 -4 hvcurveto
            -116 -149 rlineto
            -3 -4 -7 1 6 vvcurveto
            349 vlineto
            11 -9 9 -11 vhcurveto
            -90 hlineto
            -11 -9 -9 -11 hvcurveto
            -670 16 callgsubr
            return
          </CharString>
          <CharString index="78">
            rmoveto
            13 9 -12 15 -13 hhcurveto
            -65 hlineto
            -9 -7 -5 -10 -6 hvcurveto
            -427 -657 rlineto
            -14 -9 12 -14 13 hhcurveto
            67 hlineto
            9 6 5 10 6 hvcurveto
            return
          </CharString>
          <CharString index="79">
            100 hlineto
            11 9 return
          </CharString>
          <CharString index="80">
            -105 callgsubr
            660 -53 callsubr
            return
          </CharString>
          <CharString index="81">
            120 callgsubr
            -126 -103 callgsubr
            89 -107 callsubr
            126 -80 callgsubr
            126 113 callgsubr
            -126 -80 callsubr
            125 -96 callgsubr
            -89 -105 callsubr
            -125 -65 callsubr
            -125 -105 callsubr
            -89 -103 callgsubr
            return
          </CharString>
          <CharString index="82">
            -50 callgsubr
            -105 13 72 -81 123 hhcurveto
            return
          </CharString>
          <CharString index="83">
            -20 hstem
            65 -2 callsubr
            vstem
            345 20 rmoveto
            48 callsubr
            -85 81 -105 -30 -16 -7 -5 -14 vhcurveto
            -19 -7 -11 11 17 vvcurveto
            170 vlineto
            11 -9 9 -11 vhcurveto
            -90 hlineto
            -11 -9 -9 -11 hvcurveto
            -670 14 callgsubr
            48 48 27 -27 -33 vhcurveto
            return
          </CharString>
          <CharString index="84">
            60 16 31 29 hhcurveto
            11 5 -5 -5 6 hvcurveto
            return
          </CharString>
          <CharString index="85">
            5 5 15 callsubr
            return
          </CharString>
          <CharString index="86">
            325 rmoveto
            37 callsubr
            -35 -3 -24 -25 -49 hhcurveto
            -48 -25 27 33 -2 hvcurveto
            -3 40 0 70 3 40 rrcurveto
            return
          </CharString>
          <CharString index="87">
            hlineto
            -11 -9 -9 -11 33 callgsubr
            return
          </CharString>
          <CharString index="88">
            -84 0 -112 return
          </CharString>
          <CharString index="89">
            hlineto
            15 7 10 5 3 hvcurveto
            96 161 7 11 0 6 -7 11 rlinecurve
            return
          </CharString>
          <CharString index="90">
            -18 callgsubr
            80 hlineto
            19 9 12 21 -12 hvcurveto
            -85 145 -6 10 0 5 6 122 callsubr
            return
          </CharString>
          <CharString index="91">
            50 350 rmoveto
            -193 157 -157 193 193 157 157 193 193 -157 157 -193 -193 -157 -157 -193 vhcurveto
            350 256 rmoveto
            142 114 -114 -142 -142 -114 -115 -142 -142 -115 115 142 142 115 114 142 hvcurveto
            return
          </CharString>
          <CharString index="92">
            -228 371 -21 266 84 hstem
            20 221 vstem
            40 362 rmoveto
            -4 -2 2 -8 9 hhcurveto
            71 hlineto
            5 3 3 4 2 hvcurveto
            108 243 rlineto
            2 5 1 2 3 vvcurveto
            80 -50 callsubr
            -201 hlineto
            -5 2 callsubr
            hvcurveto
            128 callgsubr
            120 hlineto
            3 2 -3 -2 -1 hvcurveto
            endchar
          </CharString>
          <CharString index="93">
            30 -215 119 -119 185 19 126 270 92 -92 126 -11 -20 return
          </CharString>
          <CharString index="94">
            30 callsubr
            -105 13 72 -81 return
          </CharString>
          <CharString index="95">
            vlineto
            -1 callgsubr
            return
          </CharString>
          <CharString index="96">
            153 24 rmoveto
            4 7 4 -4 2 -1 rrcurveto
            -24 36 45 -13 52 90 callsubr
            -5 36 -10 34 -17 30 -1 3 -5 3 6 10 40 66 rcurveline
            13 8 -11 15 -13 hhcurveto
            -64 hlineto
            -9 -4 -5 -10 -6 hvcurveto
            -5 -7 -6 -9 -5 5 -4 2 rlinecurve
            return
          </CharString>
          <CharString index="97">
            -20 hstem
            5 141 181 141 vstem
            5 211 rmoveto
            -122 100 -100 132 140 91 100 122 vhcurveto
            469 -39 callgsubr
            -459 vlineto
            -56 -36 -35 -54 -55 -36 36 45 vhcurveto
            28 -39 callgsubr
            return
          </CharString>
          <CharString index="98">
            140 102 callsubr
            return
          </CharString>
          <CharString index="99">
            hvcurveto
            3 -40 0 -70 -3 -40 rrcurveto
            return
          </CharString>
          <CharString index="100">
            50 21 12 callsubr
            return
          </CharString>
          <CharString index="101">
            55 175 rmoveto
            -105 85 -81 105 vhcurveto
            return
          </CharString>
          <CharString index="102">
            rmoveto
            -4 2 0 4 4 2 202 101 rcurveline
            10 6 5 6 9 vvcurveto
            105 vlineto
            16 -14 8 -9 -5 vhcurveto
            -362 -203 rlineto
            -9 -5 -6 -8 -19 vvcurveto
            -29 vlineto
            -19 6 -8 9 -5 vhcurveto
            362 -204 rlineto
            9 -5 14 8 16 vvcurveto
            105 vlineto
            9 -5 7 -10 5 vhcurveto
            return
          </CharString>
          <CharString index="103">
            336 194 rmoveto
            -24 vlineto
            -52 -44 -17 -57 -36 -30 16 37 15 8 35 43 vhcurveto
            106 -67 callsubr
            88 269 rmoveto
            -10 -9 -12 2 -8 7 rrcurveto
            31 -37 -50 17 -48 hhcurveto
            -120 -73 -72 -79 -11 9 -9 11 hvcurveto
            72 hlineto
            18 5 2 17 4 hvcurveto
            return
          </CharString>
          <CharString index="104">
            118 -118 195 146 181 -110 110 return
          </CharString>
          <CharString index="105">
            130 150 130 return
          </CharString>
          <CharString index="106">
            5 -5 5 return
          </CharString>
          <CharString index="107">
            24 rmoveto
            -9 -4 4 -15 18 hhcurveto
            107 hlineto
            9 6 6 9 4 hvcurveto
            228 525 rlineto
            4 9 1 5 6 vvcurveto
            120 -96 callgsubr
            -384 -20 callsubr
            255 hlineto
            6 3 -5 -5 -2 hvcurveto
            endchar
          </CharString>
          <CharString index="108">
            -21 61 78 211 -20 hstemhm
            18 204 -204 233 -110 81 hintmask 11110000
            227 return
          </CharString>
          <CharString index="109">
            -5 -4 -6 return
          </CharString>
          <CharString index="110">
            -9 -6 -10 2 13 vvcurveto
            93 -80 callgsubr
            238 -107 callsubr
            96 -96 callgsubr
            -361 -105 callsubr
            -360 -103 callgsubr
            97 hlineto
            12 7 4 7 5 hvcurveto
            18 13 23 14 30 hhcurveto
            return
          </CharString>
          <CharString index="111">
            rmoveto
            -10 hlineto
            -20 -8 -11 -9 -6 hvcurveto
            -34 -54 rlineto
            -12 -18 -10 -25 -26 vvcurveto
            -97 vlineto
            -11 9 -9 11 vhcurveto
            100 hlineto
            11 9 9 11 hvcurveto
            100 64 callgsubr
            34 69 rlineto
            18 9 -10 20 -20 hhcurveto
            endchar
          </CharString>
          <CharString index="112">
            82 -11 141 -141 249 224 35 callgsubr
            return
          </CharString>
          <CharString index="113">
            6 6 6 return
          </CharString>
          <CharString index="114">
            -20 62 callgsubr
            75 140 vstem
            -81 callsubr
            340 -96 callsubr
            -210 -80 callsubr
            return
          </CharString>
          <CharString index="115">
            rmoveto
            -5 -5 -4 -6 81 callsubr
            220 hlineto
            -69 callsubr
            hvcurveto
            61 -50 callsubr
            endchar
          </CharString>
          <CharString index="116">
            -105 callsubr
            -100 -103 callgsubr
            return
          </CharString>
          <CharString index="117">
            -21 3 10 -4 10 hhcurveto
            75 -107 callsubr
            return
          </CharString>
          <CharString index="118">
            11 -9 9 -11 vhcurveto
            -100 -81 callgsubr
            return
          </CharString>
          <CharString index="119">
            -21 133 140 427 -20 return
          </CharString>
          <CharString index="120">
            vlineto
            6 -5 4 -5 vhcurveto
            return
          </CharString>
          <CharString index="121">
            52 33 -38 -52 4 hvcurveto
            1 -15 0 -10 -1 -14 rrcurveto
            -52 -4 -33 -34 -52 hhcurveto
            return
          </CharString>
          <CharString index="122">
            5 5 hvcurveto
            return
          </CharString>
          <CharString index="123" raw="1">
            221df860 0b  
          </CharString>
          <CharString index="124">
            -5 5 -5 return
          </CharString>
          <CharString index="125">
            84 -84 131 103 130 -84 84 hstemhm
            29 81 64 85 hintmask 10101100
            176 return
          </CharString>
          <CharString index="126">
            -80 callsubr
            120 -80 callgsubr
            return
          </CharString>
          <CharString index="127">
            33 2 25 27 48 hhcurveto
            49 24 return
          </CharString>
          <CharString index="128">
            32 7 41 6 21 hhcurveto
            return
          </CharString>
          <CharString index="129">
            21 -6 callgsubr
            return
          </CharString>
          <CharString index="130">
            108 16 -45 104 hhcurveto
            50 61 25 36 hvcurveto
            80 vlineto
            20 -19 2 -10 -13 vhcurveto
            -14 -11 -49 -12 -22 hhcurveto
            return
          </CharString>
          <CharString index="131">
            159 88 callgsubr
            56 342 -18 callgsubr
            84 hlineto
            19 10 12 21 -12 hvcurveto
            -86 145 -6 10 1 5 5 9 rlinecurve
            return
          </CharString>
          <CharString index="132">
            380 59 callgsubr
            80 -96 callgsubr
            -34 hlineto
            return
          </CharString>
          <CharString index="133">
            vlineto
            53 callgsubr
            return
          </CharString>
          <CharString index="134">
            -67 callsubr
            endchar
          </CharString>
          <CharString index="135">
            vlineto
            11 callsubr
            return
          </CharString>
          <CharString index="136">
            85 142 130 -81 81 hstemhm
            36 234 hintmask 11010000
            177 return
          </CharString>
          <CharString index="137">
            -36 callsubr
            rrcurveto
            return
          </CharString>
          <CharString index="138">
            470 325 rmoveto
            105 -80 81 -105 vhcurveto
            return
          </CharString>
          <CharString index="139">
            -107 callsubr
            15 vlineto
            return
          </CharString>
          <CharString index="140">
            672 -29 callsubr
            return
          </CharString>
          <CharString index="141">
            44 callsubr
            hvcurveto
            return
          </CharString>
          <CharString index="142">
            hlineto
            49 callsubr
            return
          </CharString>
          <CharString index="143">
            hlineto
            -6 -3 4 6 1 hvcurveto
            24 134 rlineto
            11 2 -8 9 -11 hhcurveto
            -67 hlineto
            -11 -10 -9 -11 -2 hvcurveto
            -24 -134 rlineto
            -6 -1 2 callsubr
            hhcurveto
            return
          </CharString>
          <CharString index="144">
            20 callsubr
            -22 -38 3 -8 callsubr
            return
          </CharString>
          <CharString index="145">
            38 21 44 callgsubr
            return
          </CharString>
          <CharString index="146">
            60 -96 callgsubr
            return
          </CharString>
          <CharString index="147">
            214 700 rmoveto
            -21 -11 -17 -9 -2 hvcurveto
            -176 -654 rlineto
            -9 -2 6 -11 16 hhcurveto
            105 hlineto
            9 8 6 9 2 hvcurveto
            28 103 rlineto
            return
          </CharString>
          <CharString index="148">
            28 5 -25 -17 -17 -7 -21 -30 -15 -15 7 13 hvcurveto
            return
          </CharString>
          <CharString index="149">
            77 73 69 67 78 hstem
            30 79 74 81 vstem
            146 return
          </CharString>
          <CharString index="150">
            -32 callsubr
            64 13 callsubr
            return
          </CharString>
          <CharString index="151">
            hlineto
            5 5 4 6 return
          </CharString>
          <CharString index="152">
            395 -40 callsubr
            -93 -103 callgsubr
            414 -107 callsubr
            93 -11 callgsubr
          </CharString>
          <CharString index="153">
            -105 callgsubr
            39 callsubr
            return
          </CharString>
          <CharString index="154">
            54 callgsubr
            -60 hlineto
            -39 callsubr
            return
          </CharString>
          <CharString index="155">
            53 callgsubr
            105 return
          </CharString>
          <CharString index="156">
            9 85 callsubr
            return
          </CharString>
          <CharString index="157">
            20 39 callgsubr
            return
          </CharString>
          <CharString index="158">
            -103 callgsubr
            endchar
          </CharString>
          <CharString index="159">
            15 callgsubr
            -65 72 callgsubr
            -337 vlineto
            -5 -1 callsubr
            vhcurveto
            65 -19 callgsubr
            return
          </CharString>
          <CharString index="160">
            hhcurveto
            107 callsubr
            return
          </CharString>
          <CharString index="161">
            -20 62 callgsubr
            172 140 vstem
            377 680 rmoveto
            return
          </CharString>
          <CharString index="162">
            -99 -13 -55 -31 hhcurveto
            -17 -4 25 17 -6 hvcurveto
            return
          </CharString>
          <CharString index="163">
            69 callgsubr
            -123 hhcurveto
            return
          </CharString>
          <CharString index="164">
            87 -96 callgsubr
            return
          </CharString>
          <CharString index="165">
            vlineto
            70 callgsubr
            return
          </CharString>
          <CharString index="166">
            rmoveto
            -106 callsubr
            return
          </CharString>
          <CharString index="167">
            -3 -2 -2 -3 vhcurveto
            return
          </CharString>
          <CharString index="168">
            vlineto
            -22 -15 -5 -15 6 vhcurveto
            6 -14 -16 6 -30 hhcurveto
            -105 -77 -81 -105 -8 hvcurveto
            -3 -40 0 -70 3 -40 rrcurveto
            return
          </CharString>
          <CharString index="169">
            -46 -31 36 47 -5 hvcurveto
            -2 21 0 12 2 22 rrcurveto
            46 4 32 33 46 hhcurveto
            46 32 -33 -46 4 hvcurveto
            return
          </CharString>
          <CharString index="170">
            -103 callgsubr
            120 -107 callsubr
            return
          </CharString>
          <CharString index="171">
            130 70 130 return
          </CharString>
          <CharString index="172">
            84 0 112 return
          </CharString>
          <CharString index="173">
            81 26 81 hstem
            25 220 vstem
            235 return
          </CharString>
          <CharString index="174">
            -40 callsubr
            -89 -103 callgsubr
            return
          </CharString>
          <CharString index="175">
            -39 -53 -4 hvcurveto
            -2 -20 0 -38 2 -20 rrcurveto
            -53 4 return
          </CharString>
          <CharString index="176">
            hlineto
            -15 -7 -10 -5 -3 hvcurveto
            return
          </CharString>
          <CharString index="177">
            -102 callsubr
            160 vlineto
            22 15 5 15 -6 vhcurveto
            return
          </CharString>
          <CharString index="178">
            -33 -27 27 33 33 27 27 33 hvcurveto
            return
          </CharString>
          <CharString index="179">
            -3 -2 2 3 hvcurveto
            return
          </CharString>
          <CharString index="180">
            -21 700 -20 return
          </CharString>
          <CharString index="181">
            47 32 -36 -45 5 hvcurveto
            10 -87 0 -114 -10 -87 rrcurveto
            -45 -5 -32 -36 -47 hhcurveto
            return
          </CharString>
          <CharString index="182">
            16 6 -6 -9 1 hvcurveto
            1 -20 0 -38 -1 -20 rrcurveto
            -9 -1 -6 -6 -16 hhcurveto
            return
          </CharString>
          <CharString index="183">
            113 84 84 101 return
          </CharString>
          <CharString index="184">
            -3 callsubr
            hstemhm
            45 121 return
          </CharString>
          <CharString index="185">
            -11 136 450 136 hstem
            return
          </CharString>
          <CharString index="186">
            660 -96 callgsubr
            return
          </CharString>
          <CharString index="187">
            -22 133 544 133 hstem
            return
          </CharString>
          <CharString index="188">
            hvcurveto
            -61 -12 callsubr
            return
          </CharString>
          <CharString index="189">
            -69 callsubr
            vhcurveto
            90 return
          </CharString>
          <CharString index="190">
            13 callgsubr
            hstem
            return
          </CharString>
          <CharString index="191">
            -284 -21 326 -21 return
          </CharString>
          <CharString index="192">
            7 8 8 hvcurveto
            return
          </CharString>
          <CharString index="193">
            114 callgsubr
            hintmask 10011110
            return
          </CharString>
          <CharString index="194">
            84 321 -20 hstem
            return
          </CharString>
          <CharString index="195">
            6 hvcurveto
            119 return
          </CharString>
          <CharString index="196">
            -179 -21 189 126 callgsubr
            return
          </CharString>
          <CharString index="197">
            hhcurveto
            138 86 101 120 14 hvcurveto
            10 65 callsubr
            -10 84 return
          </CharString>
          <CharString index="198">
            -80 callsubr
            endchar
          </CharString>
          <CharString index="199">
            -11 131 215 131 30 215 -131 131 hstemhm
            return
          </CharString>
          <CharString index="200">
            142 62 97 120 14 vhcurveto
            10 84 -6 120 -20 70 return
          </CharString>
          <CharString index="201">
            rmoveto
            -10 -5 -5 -7 -9 vvcurveto
            -105 vlineto
            -16 14 -8 9 5 vhcurveto
            return
          </CharString>
          <CharString index="202">
            1 hvcurveto
            2 -20 0 -38 -2 -20 rrcurveto
            return
          </CharString>
          <CharString index="203">
            -3 -20 0 -38 3 -20 rrcurveto
            -52 8 return
          </CharString>
          <CharString index="204">
            rcurveline
            -8 -8 0 -13 8 -8 return
          </CharString>
          <CharString index="205">
            228 22 callsubr
            return
          </CharString>
          <CharString index="206">
            -90 128 554 128 return
          </CharString>
          <CharString index="207">
            -2 124 callsubr
            return
          </CharString>
          <CharString index="208">
            235 -140 140 return
          </CharString>
          <CharString index="209">
            140 140 140 return
          </CharString>
          <CharString index="210">
            21 -21 560 140 return
          </CharString>
          <CharString index="211">
            hintmask 01110000
            12 -3 -9 8 -16 hhcurveto
            -81 hlineto
            -98 callgsubr
            return
          </CharString>
          <CharString index="212">
            -105 hhcurveto
            -30 -16 -6 -6 -14 hvcurveto
            -15 -6 -15 5 22 vvcurveto
            return
          </CharString>
          <CharString index="213">
            -80 callgsubr
            110 -107 callsubr
            return
          </CharString>
          <CharString index="214">
            42 -107 callsubr
            88 -96 callgsubr
            return
          </CharString>
          <CharString index="215">
            -7 7 -14 0 -7 -7 rlinecurve
            endchar
          </CharString>
          <CharString index="216">
            -21 150 121 callgsubr
            60 160 vstem
            return
          </CharString>
          <CharString index="217">
            39 53 4 hvcurveto
            2 20 0 38 -2 20 rrcurveto
            53 -4 return
          </CharString>
          <CharString index="218">
            -106 callsubr
            -410 -105 callsubr
            return
          </CharString>
          <CharString index="219">
            105 -11 141 -109 -21 570 141 -11 -20 return
          </CharString>
          <CharString index="220">
            118 -107 77 -110 -118 -86 -97 -120 -14 return
          </CharString>
          <CharString index="221" raw="1">
            200ae507 0b  
          </CharString>
          <CharString index="222">
            11 -9 9 -11 21 callgsubr
            return
          </CharString>
          <CharString index="223">
            36 -11 130 -98 -21 381 130 -11 -20 return
          </CharString>
          <CharString index="224">
            hstemhm
            47 122 167 136 173 119 return
          </CharString>
          <CharString index="225">
            38 47 10 12 21 hvcurveto
            12 7 12 5 16 vvcurveto
            return
          </CharString>
          <CharString index="226">
            22 callsubr
            hstem
            return
          </CharString>
          <CharString index="227">
            6 1 -4 -3 -2 hvcurveto
            return
          </CharString>
          <CharString index="228">
            hlineto
            14 11 12 13 hvcurveto
            return
          </CharString>
          <CharString index="229">
            9 rlinecurve
            85 145 rlineto
            return
          </CharString>
          <CharString index="230">
            -10 -84 rrcurveto
            -44 -5 -31 return
          </CharString>
          <CharString index="231">
            -179 73 callsubr
            return
          </CharString>
          <CharString index="232">
            79 -79 104 hstemhm
            return
          </CharString>
          <CharString index="233">
            -122 -97 -93 -117 -49 15 -44 28 -36 return
          </CharString>
          <CharString index="234">
            50 -107 callsubr
            return
          </CharString>
          <CharString index="235">
            hlineto
            -6 -1 4 3 2 hvcurveto
            return
          </CharString>
          <CharString index="236">
            -21 380 65 -65 120 return
          </CharString>
          <CharString index="237">
            -21 160 -20 hstem
            return
          </CharString>
          <CharString index="238">
            vlineto
            hintmask 01100000
            -104 callgsubr
            endchar
          </CharString>
          <CharString index="239">
            -150 -22 126 558 126 hstem
            return
          </CharString>
        <CharString name=".notdef">
          -91 callsubr
        </CharString>
        <CharString name="A">
          -7 callsubr
          hstem
          314 273 -103 callsubr
          endchar
        </CharString>
        <CharString name="AE">
          288 0 140 -7 140 7 102 callsubr
          hstemhm
          328 140 hintmask 10111000
          40 callsubr
          hintmask 01111000
          9 2 4 6 9 hhcurveto
          122 hlineto
          9 6 -7 -8 hvcurveto
          -98 vlineto
          hintmask 10111000
          -104 callgsubr
          367 -52 callsubr
          120 vlineto
          -78 callsubr
          120 vlineto
          -69 callsubr
          vhcurveto
          -53 callgsubr
          -383 -150 rmoveto
          -266 vlineto
          hintmask 01111000
          -8 -4 -3 -6 vhcurveto
          -96 hlineto
          -6 -4 3 8 2 hvcurveto
          54 266 rlineto
          4 1 3 6 9 hhcurveto
          37 27 callsubr
        </CharString>
        <CharString name="AEacute">
          288 0 140 -7 140 7 102 callsubr
          50 160 hstemhm
          328 140 hintmask 10111100
          40 callsubr
          hintmask 01111100
          9 2 4 6 9 hhcurveto
          122 hlineto
          9 6 -7 -8 hvcurveto
          -98 vlineto
          hintmask 10111100
          -104 callgsubr
          367 -52 callsubr
          120 vlineto
          -78 callsubr
          120 vlineto
          -69 callsubr
          vhcurveto
          -53 callgsubr
          -383 -150 rmoveto
          -266 vlineto
          hintmask 01111100
          -8 -4 -3 -6 vhcurveto
          -96 hlineto
          -6 -4 3 8 2 hvcurveto
          54 266 rlineto
          4 1 3 6 9 hhcurveto
          129 callgsubr
          144 360 rmoveto
          -45 callsubr
        </CharString>
        <CharString name="Aacute">
          -7 callsubr
          70 160 hstem
          314 273 -103 callsubr
          -36 792 rmoveto
          -45 callsubr
        </CharString>
        <CharString name="Abreve">
          -7 callsubr
          60 65 callgsubr
          120 97 hintmask 11110100
          314 273 -103 callsubr
          -30 768 -12 callgsubr
          hintmask 11101100
          104 callgsubr
          vhcurveto
          -78 callgsubr
          endchar
        </CharString>
        <CharString name="Acircumflex">
          -7 callsubr
          230 -20 hstem
          314 273 -103 callsubr
          -88 692 rmoveto
          -107 callgsubr
        </CharString>
        <CharString name="Adieresis">
          -7 callsubr
          80 130 hstem
          112 85 callgsubr
          314 273 -103 callsubr
          -116 752 -100 callgsubr
          endchar
        </CharString>
        <CharString name="Agrave">
          -7 callsubr
          70 160 hstem
          314 273 -103 callsubr
          -233 792 -93 callgsubr
          endchar
        </CharString>
        <CharString name="Amacron">
          -7 callsubr
          80 98 hstem
          314 273 -103 callsubr
          -222 740 -74 callsubr
          endchar
        </CharString>
        <CharString name="Aogonek">
          51 -220 100 141 12 callsubr
          hstemhm
          336 118 -118 199 hintmask 11111000
          533 20 rmoveto
          -178 665 rlineto
          9 -2 -8 6 -9 hhcurveto
          -134 hlineto
          -9 -8 -6 -9 -2 hvcurveto
          -179 -665 rlineto
          -9 -2 6 -11 16 hhcurveto
          105 hlineto
          9 8 6 9 2 hvcurveto
          28 103 rlineto
          9 2 4 6 9 hhcurveto
          152 hlineto
          9 4 -7 -8 2 hvcurveto
          25 -85 rlineto
          -26 -27 -21 -34 -37 vvcurveto
          -92 59 -63 120 vhcurveto
          hintmask 11110100
          46 callsubr
          hintmask 11111000
          -38 -23 25 34 31 24 30 35 16 6 11 9 -2 hvcurveto
          -211 264 rmoveto
          -8 2 -4 -3 -6 hhcurveto
          -92 hlineto
          -6 -4 3 8 2 hvcurveto
          48 240 rlineto
          3 1 1 1 3 hhcurveto
          2 hlineto
          3 1 -1 -3 1 hvcurveto
          endchar
        </CharString>
        <CharString name="Aring">
          -7 callsubr
          54 84 64 83 hstem
          162 84 64 83 vstem
          314 273 -103 callsubr
          -196 732 -49 callgsubr
        </CharString>
        <CharString name="Aringacute">
          -7 callsubr
          54 84 64 198 hstem
          162 84 64 83 vstem
          327 1080 -3 callgsubr
          73 -577 -103 callsubr
          endchar
        </CharString>
        <CharString name="Atilde">
          -7 callsubr
          105 125 callsubr
          hintmask 11110000
          314 273 -103 callsubr
          9 746 rmoveto
          hintmask 11101000
          -68 callgsubr
          hintmask 11110000
          -67 callgsubr
          endchar
        </CharString>
        <CharString name="B">
          64 0 140 151 140 129 140 hstem
          65 137 184 140 vstem
          316 291 rmoveto
          42 28 -36 -39 -40 -27 -36 -43 hvcurveto
          -104 -80 callsubr
          131 -80 callgsubr
          109 409 rmoveto
          -236 -81 callgsubr
          236 hlineto
          123 82 85 131 51 -26 57 -33 28 hvcurveto
          -6 5 0 7 6 6 rrcurveto
          29 29 22 53 44 vvcurveto
          113 -85 91 -112 vhcurveto
          -109 -269 rmoveto
          -6 -4 4 6 hvcurveto
          109 -80 callgsubr
          104 hlineto
          35 31 -29 -35 -35 -31 -30 -35 hvcurveto
          endchar
        </CharString>
        <CharString name="C">
          5 callsubr
          hstemhm
          389 140 hintmask 01101000
          529 218 -56 callgsubr
          -10 -11 hvcurveto
          -1 vlineto
          hintmask 10011000
          -43 -39 -43 -59 -72 callgsubr
          hintmask 10101000
          -90 callsubr
          138 100 94 134 hvcurveto
          endchar
        </CharString>
        <CharString name="Cacute">
          5 callsubr
          39 160 hstemhm
          389 140 hintmask 01101100
          529 218 -56 callgsubr
          -10 -11 hvcurveto
          -1 vlineto
          hintmask 10011100
          -43 -39 -43 -59 -72 callgsubr
          hintmask 10101100
          -90 callsubr
          138 100 94 134 hvcurveto
          -187 693 rmoveto
          -45 callsubr
        </CharString>
        <CharString name="Ccaron">
          5 callsubr
          199 -20 hstemhm
          389 140 hintmask 01101100
          529 218 -56 callgsubr
          -10 -11 hvcurveto
          -1 vlineto
          hintmask 10011100
          -43 -39 -43 -59 -72 callgsubr
          hintmask 10101100
          -90 callsubr
          138 100 94 134 hvcurveto
          -278 677 -102 callgsubr
        </CharString>
        <CharString name="Ccedilla">
          82 -200 155 34 141 -141 249 224 35 callgsubr
          hstemhm
          389 140 hintmask 10110100
          529 218 -56 callgsubr
          -10 -11 hvcurveto
          -1 vlineto
          hintmask 11001100
          -43 -39 -43 -59 -72 callgsubr
          hintmask 11010100
          -90 callsubr
          138 100 94 134 hvcurveto
          -253 -262 -42 callsubr
        </CharString>
        <CharString name="Ccircumflex">
          5 callsubr
          199 -20 hstemhm
          389 140 hintmask 01101100
          529 218 -56 callgsubr
          -10 -11 hvcurveto
          -1 vlineto
          hintmask 10011100
          -43 -39 -43 -59 -72 callgsubr
          hintmask 10101100
          -90 callsubr
          138 100 94 134 hvcurveto
          -239 593 rmoveto
          -107 callgsubr
        </CharString>
        <CharString name="Cdotaccent">
          5 callsubr
          39 140 hstemhm
          227 140 22 140 hintmask 01101110
          529 218 -56 callgsubr
          -10 -11 hvcurveto
          -1 vlineto
          hintmask 10011110
          -43 -39 -43 -59 -72 callgsubr
          hintmask 10101110
          -90 callsubr
          138 100 94 134 hvcurveto
          -162 657 -92 callsubr
          endchar
        </CharString>
        <CharString name="D">
          84 0 140 420 140 -25 callgsubr
          endchar
        </CharString>
        <CharString name="Dcaron">
          84 0 140 420 140 210 -20 -25 callgsubr
          -64 194 -102 callgsubr
        </CharString>
        <CharString name="Dcroat">
          -55 callsubr
        </CharString>
        <CharString name="Delta">
          -31 callgsubr
        </CharString>
        <CharString name="E">
          25 0 140 140 140 140 140 hstem
          65 140 cntrmask 11100000
          -99 callsubr
          endchar
        </CharString>
        <CharString name="Eacute">
          25 -26 callgsubr
          50 160 62 callgsubr
          vstem
          -99 callsubr
          109 760 rmoveto
          -45 callsubr
        </CharString>
        <CharString name="Ebreve">
          25 -26 callgsubr
          40 65 callgsubr
          65 140 -95 95 hintmask 11110100
          -99 callsubr
          123 736 -12 callgsubr
          hintmask 11101010
          104 callgsubr
          vhcurveto
          -78 callgsubr
          endchar
        </CharString>
        <CharString name="Ecaron">
          25 -26 callgsubr
          210 -20 62 callgsubr
          vstem
          -99 callsubr
          21 744 -102 callgsubr
        </CharString>
        <CharString name="Ecircumflex">
          25 -26 callgsubr
          210 -20 62 callgsubr
          vstem
          -99 callsubr
          46 660 rmoveto
          -107 callgsubr
        </CharString>
        <CharString name="Edieresis">
          25 -26 callgsubr
          60 130 hstemhm
          65 140 -96 64 callsubr
          hintmask 11111010
          -99 callsubr
          hintmask 11110110
          34 720 -100 callgsubr
          endchar
        </CharString>
        <CharString name="Edotaccent">
          25 -26 callgsubr
          50 140 hstemhm
          65 140 -3 140 hintmask 11111000
          -99 callsubr
          hintmask 11110100
          137 724 -92 callsubr
          endchar
        </CharString>
        <CharString name="Egrave">
          25 -26 callgsubr
          50 160 62 callgsubr
          vstem
          -99 callsubr
          -99 760 -93 callgsubr
          endchar
        </CharString>
        <CharString name="Emacron">
          25 -26 callgsubr
          60 98 62 callgsubr
          vstem
          -99 callsubr
          -67 708 -74 callsubr
          endchar
        </CharString>
        <CharString name="Eng">
          93 -210 140 91 73 callsubr
          62 callgsubr
          170 140 vstem
          372 30 rmoveto
          -30 vlineto
          -44 -41 -26 -47 -98 callgsubr
          vhcurveto
          -35 callgsubr
          140 91 99 122 vhcurveto
          669 -53 callsubr
          -336 vlineto
          -6 -7 -2 -2 6 vhcurveto
          -137 340 -57 callsubr
          356 vlineto
          6 6 2 3 -6 vhcurveto
          endchar
        </CharString>
        <CharString name="Eogonek">
          25 -199 -21 220 140 -9 callsubr
          hstemhm
          65 140 68 114 -114 195 hintmask 11111010
          205 550 rmoveto
          -69 callsubr
          vhcurveto
          -53 callgsubr
          -363 -81 callgsubr
          205 hlineto
          -10 -14 -7 -22 -24 vvcurveto
          -110 74 -50 100 -100 callsubr
          vhcurveto
          39 callsubr
          hintmask 11111100
          71 callsubr
          5 -52 callsubr
          120 vlineto
          -78 callsubr
          endchar
        </CharString>
        <CharString name="Eth">
          -55 callsubr
        </CharString>
        <CharString name="Euro">
          63 -11 141 -141 249 -8 102 52 102 -24 35 callgsubr
          hstemhm
          394 140 hintmask 10110110
          191 376 rmoveto
          5 3 3 5 vhcurveto
          114 -107 callsubr
          62 -96 callgsubr
          -109 hlineto
          -3 -3 2 5 1 hvcurveto
          42 8 29 35 60 hhcurveto
          57 37 -36 -52 4 hvcurveto
          hintmask 10101010
          -11 1 8 -9 11 hhcurveto
          -54 callsubr
          134 -100 95 -138 -137 -86 -100 -118 -15 hvcurveto
          hintmask 10110110
          -4 -5 -3 -4 vhcurveto
          -46 -105 callsubr
          -62 -103 callgsubr
          41 hlineto
          4 2 -3 -2 hvcurveto
          -39 vlineto
          -3 -1 -5 -7 vhcurveto
          -39 -105 callsubr
          -62 -103 callgsubr
          44 hlineto
          8 1 -2 -18 2 hvcurveto
          -44 callsubr
          138 100 95 134 hvcurveto
          hintmask 01010110
          -106 callsubr
          -100 hlineto
          -11 -8 -9 -11 -1 hvcurveto
          hintmask 10110110
          -52 -4 -37 -36 -57 hhcurveto
          -61 -32 36 44 -4 hvcurveto
          16 -1 3 4 7 hhcurveto
          105 -107 callsubr
          62 -96 callgsubr
          -113 hlineto
          -7 -2 4 6 hvcurveto
          endchar
        </CharString>
        <CharString name="F">
          -12 108 callgsubr
          vstem
          215 280 rmoveto
          210 -96 callsubr
          -210 19 callsubr
          220 -96 callsubr
          -350 -33 callsubr
          endchar
        </CharString>
        <CharString name="G">
          85 -11 26 callgsubr
          hstemhm
          294 101 callsubr
          hintmask 11010100
          392 208 rmoveto
          -45 -41 -33 -60 -72 callgsubr
          hintmask 11101000
          -90 callsubr
          137 101 99 120 hvcurveto
          168 -96 callgsubr
          -195 -20 callsubr
          68 27 callsubr
        </CharString>
        <CharString name="Gbreve">
          85 -11 26 callgsubr
          29 65 callgsubr
          140 97 57 101 callsubr
          hintmask 1101101010000000
          392 208 rmoveto
          -45 -41 -33 -60 -72 callgsubr
          hintmask 1110101100000000
          -90 callsubr
          137 101 99 120 hvcurveto
          168 -96 callgsubr
          -195 -20 callsubr
          68 -67 callsubr
          -34 635 -12 callgsubr
          hintmask 1110011100000000
          104 callgsubr
          vhcurveto
          -78 callgsubr
          endchar
        </CharString>
        <CharString name="Gcircumflex">
          85 -11 26 callgsubr
          199 -20 hstemhm
          294 101 callsubr
          hintmask 11011010
          392 208 rmoveto
          -45 -41 -33 -60 -72 callgsubr
          hintmask 11101100
          -90 callsubr
          137 101 99 120 hvcurveto
          168 -96 callgsubr
          -195 -20 callsubr
          68 -67 callsubr
          -101 559 rmoveto
          -107 callgsubr
        </CharString>
        <CharString name="Gcommaaccent">
          85 -284 -21 294 26 callgsubr
          hstemhm
          227 140 -73 101 callsubr
          hintmask 11101101
          392 208 rmoveto
          -45 -41 -33 -60 -72 callgsubr
          hintmask 11110010
          -90 callsubr
          137 101 99 120 hvcurveto
          168 -96 callgsubr
          -195 -20 callsubr
          68 -67 callsubr
          -125 -556 -2 callgsubr
          hintmask 11110101
          -101 callsubr
        </CharString>
        <CharString name="Gdotaccent">
          85 -11 26 callgsubr
          39 140 hstemhm
          227 140 -73 101 callsubr
          hintmask 11011101
          392 208 rmoveto
          -45 -41 -33 -60 -72 callgsubr
          hintmask 11101010
          -90 callsubr
          137 101 99 120 hvcurveto
          168 -96 callgsubr
          -195 -20 callsubr
          68 -67 callsubr
          hintmask 11101101
          -25 623 -92 callsubr
          endchar
        </CharString>
        <CharString name="H">
          95 21 -21 280 140 280 54 callsubr
          -250 -65 callsubr
          -152 -80 callsubr
          250 -49 callsubr
          endchar
        </CharString>
        <CharString name="Hbar">
          95 21 -21 280 130 90 110 90 54 callsubr
          -60 -65 callsubr
          -152 -80 callsubr
          60 -49 callsubr
          -162 -180 rmoveto
          152 -67 callsubr
          -70 -65 callsubr
          -152 -80 callsubr
          70 119 callgsubr
        </CharString>
        <CharString name="Hcircumflex">
          95 21 -21 280 140 280 -20 230 54 callsubr
          -250 -65 callsubr
          -152 -80 callsubr
          250 -49 callsubr
          -89 130 rmoveto
          -107 callgsubr
        </CharString>
        <CharString name="I">
          83 callsubr
          65 140 vstem
          -81 callsubr
          -54 callsubr
          hvcurveto
          endchar
        </CharString>
        <CharString name="IJ">
          83 -10 140 -109 73 callsubr
          hstemhm
          70 140 159 141 hintmask 01111000
          210 680 rmoveto
          11 -9 9 -11 vhcurveto
          -100 -89 callgsubr
          hintmask 10111000
          69 110 -40 callsubr
          -35 callgsubr
          140 91 99 122 vhcurveto
          469 -39 callgsubr
          -459 vlineto
          -56 -36 -35 -54 vhcurveto
          endchar
        </CharString>
        <CharString name="Iacute">
          13 callgsubr
          70 160 62 callgsubr
          vstem
          -81 callsubr
          -54 callsubr
          hvcurveto
          -20 890 rmoveto
          -45 callsubr
        </CharString>
        <CharString name="Ibreve">
          13 callgsubr
          60 65 callgsubr
          -16 97 -16 140 hintmask 11100100
          -81 callsubr
          -54 callsubr
          hvcurveto
          -3 866 rmoveto
          -31 -29 -25 -31 vhcurveto
          hintmask 11011000
          -31 -30 25 31 104 callgsubr
          hvcurveto
          -78 callgsubr
          endchar
        </CharString>
        <CharString name="Icircumflex">
          13 callgsubr
          230 -20 62 callgsubr
          vstem
          -81 callsubr
          -54 callsubr
          hvcurveto
          -77 790 rmoveto
          -107 callgsubr
        </CharString>
        <CharString name="Idieresis">
          13 callgsubr
          80 130 hstemhm
          -25 130 -40 140 -30 130 hintmask 11101000
          -81 callsubr
          -54 callsubr
          hvcurveto
          hintmask 11110100
          -100 850 -100 callgsubr
          endchar
        </CharString>
        <CharString name="Idotaccent">
          13 callgsubr
          70 140 62 callgsubr
          vstem
          -81 callsubr
          -54 callsubr
          hvcurveto
          5 854 -92 callsubr
          endchar
        </CharString>
        <CharString name="Igrave">
          13 callgsubr
          70 160 62 callgsubr
          vstem
          -81 callsubr
          -54 callsubr
          hvcurveto
          -217 890 -93 callgsubr
          endchar
        </CharString>
        <CharString name="Imacron">
          13 callgsubr
          80 98 62 callgsubr
          vstem
          -81 callsubr
          -54 callsubr
          hvcurveto
          -196 838 -74 callsubr
          endchar
        </CharString>
        <CharString name="Iogonek">
          -199 -21 241 73 callsubr
          hstemhm
          11 114 -60 140 hintmask 11101000
          205 680 rmoveto
          -88 callsubr
          -622 vlineto
          hintmask 11110000
          -33 -28 -21 -39 -51 vvcurveto
          -110 74 -50 100 vhcurveto
          hintmask 11101000
          46 callsubr
          hintmask 11110000
          71 callsubr
          2 hlineto
          hintmask 11101000
          10 1 8 9 10 vvcurveto
          endchar
        </CharString>
        <CharString name="Itilde">
          13 callgsubr
          105 125 callsubr
          65 140 hintmask 11101000
          -81 callsubr
          -54 callsubr
          hvcurveto
          28 844 rmoveto
          hintmask 11011000
          -68 callgsubr
          hintmask 11101000
          -67 callgsubr
          endchar
        </CharString>
        <CharString name="J">
          35 -11 141 570 -10 callsubr
          endchar
        </CharString>
        <CharString name="Jcircumflex">
          35 60 callgsubr
          230 -10 callsubr
          383 571 rmoveto
          -107 callgsubr
        </CharString>
        <CharString name="K">
          64 83 callsubr
          65 139 vstem
          -29 callgsubr
          endchar
        </CharString>
        <CharString name="Kcommaaccent">
          77 84 callsubr
          700 -20 hstemhm
          65 139 -2 140 hintmask 11110000
          -29 callgsubr
          28 -590 -2 callgsubr
          hintmask 11101000
          -101 callsubr
        </CharString>
        <CharString name="L">
          -32 0 140 560 -20 62 callgsubr
          vstem
          -81 callsubr
          340 -96 callsubr
          -210 91 callsubr
        </CharString>
        <CharString name="Lacute">
          -32 0 140 560 -20 70 160 62 callgsubr
          vstem
          -81 callsubr
          340 -96 callsubr
          -210 -80 callsubr
          -5 760 rmoveto
          -45 callsubr
        </CharString>
        <CharString name="Lcaron">
          -32 0 140 560 7 callsubr
          115 290 -2 callgsubr
          -101 callsubr
        </CharString>
        <CharString name="Lcommaaccent">
          -32 -284 -21 305 140 560 -20 hstemhm
          65 140 -25 140 hintmask 11110000
          -81 callsubr
          340 -96 callsubr
          -210 -80 callsubr
          15 -455 -2 callgsubr
          hintmask 11101000
          -101 callsubr
        </CharString>
        <CharString name="Ldot">
          -32 0 140 100 140 320 7 callsubr
          215 214 -92 callsubr
          endchar
        </CharString>
        <CharString name="Lslash">
          -32 0 140 560 -20 hstemhm
          1 204 -140 140 hintmask 11100000
          215 415 rmoveto
          1 callgsubr
          5 3 vvcurveto
          261 -96 callgsubr
          -100 hlineto
          hintmask 11010000
          -104 callsubr
          -345 vlineto
          -4 -3 -4 -3 -2 vhcurveto
          -39 -23 rlineto
          hintmask 11100000
          -15 -9 -4 -6 -13 vvcurveto
          -79 vlineto
          -20 15 -2 13 7 vhcurveto
          29 16 rlineto
          hintmask 11010000
          3 2 4 -1 -5 vvcurveto
          -172 -103 callgsubr
          340 -96 callsubr
          -205 hlineto
          -9 -6 6 9 hvcurveto
          120 vlineto
          4 3 4 4 2 vhcurveto
          109 63 rlineto
          15 9 6 7 17 vvcurveto
          79 vlineto
          17 -15 4 -15 -9 vhcurveto
          endchar
        </CharString>
        <CharString name="M">
          240 83 callsubr
          65 128 341 128 vstem
          254 683 rmoveto
          12 -3 -7 5 -11 hhcurveto
          -148 -81 callgsubr
          88 -107 callsubr
          377 vlineto
          6 7 2 2 -6 vhcurveto
          100 -382 rlineto
          -12 3 7 -5 11 hhcurveto
          79 hlineto
          11 7 5 12 3 hvcurveto
          102 382 rlineto
          2 6 7 -2 -6 vvcurveto
          -377 -103 callgsubr
          88 -107 callsubr
          79 callsubr
          -147 hlineto
          -11 -7 -5 -12 -3 hvcurveto
          -106 -438 -2 -7 -8 0 -2 7 rlinecurve
          endchar
        </CharString>
        <CharString name="N">
          93 83 callsubr
          65 140 170 140 vstem
          495 -88 callgsubr
          endchar
        </CharString>
        <CharString name="Nacute">
          93 13 callgsubr
          70 160 62 callgsubr
          170 140 vstem
          495 -88 callgsubr
          -39 910 rmoveto
          -45 callsubr
        </CharString>
        <CharString name="Ncaron">
          93 13 callgsubr
          230 -20 62 callgsubr
          170 140 vstem
          495 -88 callgsubr
          -121 894 -102 callgsubr
        </CharString>
        <CharString name="Ncommaaccent">
          93 84 callsubr
          700 -20 62 callgsubr
          20 140 10 140 vstem
          495 -88 callgsubr
          -112 -305 -2 callgsubr
          -101 callsubr
        </CharString>
        <CharString name="Ntilde">
          93 13 callgsubr
          105 125 callsubr
          65 140 170 140 hintmask 11101100
          495 -88 callgsubr
          18 864 rmoveto
          hintmask 11011100
          -68 callgsubr
          hintmask 11101100
          -67 callgsubr
          endchar
        </CharString>
        <CharString name="O">
          20 callgsubr
          hstem
          -99 callgsubr
          endchar
        </CharString>
        <CharString name="OE">
          353 -11 151 -119 -21 280 102 callsubr
          11 -20 hstemhm
          hintmask 10110000
          533 -93 callsubr
          -330 hlineto
          -98 callgsubr
          -5 -5 2 -2 1 hvcurveto
          hintmask 10101000
          20 -35 -41 13 -47 90 callgsubr
          rrcurveto
          -44 callsubr
          hintmask 01110000
          47 41 10 22 35 hvcurveto
          3 2 4 1 -4 vvcurveto
          -104 callgsubr
          334 -107 callsubr
          100 vlineto
          hintmask 10110000
          -106 callsubr
          -237 -80 callsubr
          -237 -20 rmoveto
          -61 -31 36 44 -5 hvcurveto
          -73 callsubr
          61 31 -36 124 callgsubr
          -112 123 callsubr
          -36 -61 hhcurveto
          endchar
        </CharString>
        <CharString name="Oacute">
          20 callgsubr
          39 160 hstem
          -99 callgsubr
          50 199 rmoveto
          -45 callsubr
        </CharString>
        <CharString name="Obreve">
          20 callgsubr
          29 65 callgsubr
          137 97 hintmask 11101000
          -99 callgsubr
          64 175 -12 callgsubr
          hintmask 11011000
          104 callgsubr
          vhcurveto
          -78 callgsubr
          endchar
        </CharString>
        <CharString name="Ocircumflex">
          20 callgsubr
          199 -20 hstem
          -99 callgsubr
          -3 99 rmoveto
          -107 callgsubr
        </CharString>
        <CharString name="Odieresis">
          20 callgsubr
          49 130 hstem
          131 85 callgsubr
          -99 callgsubr
          -30 159 -100 callgsubr
          endchar
        </CharString>
        <CharString name="Ograve">
          20 callgsubr
          39 160 hstem
          -99 callgsubr
          -147 199 -93 callgsubr
          endchar
        </CharString>
        <CharString name="Ohungarumlaut">
          20 callgsubr
          39 160 hstem
          -99 callgsubr
          -44 199 -79 callsubr
        </CharString>
        <CharString name="Omacron">
          20 callgsubr
          49 98 hstem
          -99 callgsubr
          -125 147 -74 callsubr
          endchar
        </CharString>
        <CharString name="Omega">
          -58 callsubr
        </CharString>
        <CharString name="Oslash">
          112 callsubr
          hstemhm
          192 207 hintmask 10011000
          -11 callsubr
          hintmask 01101000
          18 callgsubr
          hintmask 10101000
          -21 callgsubr
          endchar
        </CharString>
        <CharString name="Oslashacute">
          112 callsubr
          70 160 hstemhm
          192 207 hintmask 10011100
          -11 callsubr
          hintmask 01101100
          18 callgsubr
          hintmask 10101100
          -21 callgsubr
          45 340 rmoveto
          -45 callsubr
        </CharString>
        <CharString name="Otilde">
          20 callgsubr
          74 125 callsubr
          hintmask 11100000
          -99 callgsubr
          95 153 rmoveto
          hintmask 11010000
          -68 callgsubr
          hintmask 11100000
          -67 callgsubr
          endchar
        </CharString>
        <CharString name="P">
          38 108 callgsubr
          170 140 vstem
          85 700 -40 callsubr
          -660 -47 callsubr
          250 vlineto
          82 callsubr
          hlineto
          115 95 94 116 115 -95 95 -115 hvcurveto
          -140 vmoveto
          38 32 -32 -38 -39 -32 -31 -38 hvcurveto
          -90 19 callsubr
          endchar
        </CharString>
        <CharString name="Q">
          95 -90 220 -141 141 440 141 hstemhm
          hintmask 10100000
          291 130 rmoveto
          -61 -31 36 44 -5 hvcurveto
          -73 callsubr
          61 31 -36 124 callgsubr
          -112 123 callsubr
          -36 -61 hhcurveto
          170 -73 rmoveto
          35 35 26 60 7 58 10 65 callsubr
          69 callgsubr
          -138 90 callgsubr
          rrcurveto
          hintmask 01100000
          -44 callsubr
          24 hlineto
          11 3 -3 -7 4 hvcurveto
          23 -45 rlineto
          hintmask 10100000
          -14 8 5 -10 17 hhcurveto
          92 hlineto
          30 1 22 14 -7 hvcurveto
          -45 89 -5 10 3 6 callsubr
          rlinecurve
          endchar
        </CharString>
        <CharString name="R">
          73 103 callsubr
          62 callgsubr
          170 -85 callsubr
          endchar
        </CharString>
        <CharString name="Racute">
          73 103 callsubr
          50 160 62 callgsubr
          170 -85 callsubr
          106 350 rmoveto
          -45 callsubr
        </CharString>
        <CharString name="Rcaron">
          73 103 callsubr
          210 -20 62 callgsubr
          170 -85 callsubr
          11 334 -102 callgsubr
        </CharString>
        <CharString name="Rcommaaccent">
          73 84 callsubr
          560 140 62 callgsubr
          10 140 20 -85 callsubr
          40 -865 -2 callgsubr
          -101 callsubr
        </CharString>
        <CharString name="S">
          55 -11 32 callgsubr
          30 callgsubr
          hintmask 10110100
          -83 callgsubr
          hintmask 11011000
          -63 callsubr
          endchar
        </CharString>
        <CharString name="Sacute">
          55 -11 32 callgsubr
          59 160 30 callgsubr
          hintmask 10111010
          -83 callgsubr
          hintmask 11011100
          -63 callsubr
          -41 722 rmoveto
          -45 callsubr
        </CharString>
        <CharString name="Scaron">
          55 -11 32 callgsubr
          219 -20 30 callgsubr
          hintmask 10111010
          -83 callgsubr
          hintmask 11011100
          -63 callsubr
          -129 706 -102 callgsubr
        </CharString>
        <CharString name="Scedilla">
          55 -200 155 34 32 callgsubr
          30 callgsubr
          hintmask 11011010
          -83 callgsubr
          hintmask 11101100
          -63 callsubr
          -107 -253 -42 callsubr
        </CharString>
        <CharString name="Scircumflex">
          55 -11 32 callgsubr
          199 -20 30 callgsubr
          hintmask 10111010
          -83 callgsubr
          hintmask 11011100
          -63 callsubr
          -94 602 rmoveto
          -107 callgsubr
        </CharString>
        <CharString name="Scommaaccent">
          55 -284 -21 294 32 callgsubr
          hstemhm
          39 132 44 140 2 141 -141 155 hintmask 11011101
          -83 callgsubr
          hintmask 11101110
          -63 callsubr
          -112 -513 -2 callgsubr
          -101 callsubr
        </CharString>
        <CharString name="T">
          -33 103 callsubr
          -66 callgsubr
          endchar
        </CharString>
        <CharString name="Tbar">
          -33 21 -21 380 120 70 130 hstem
          157 140 vstem
          157 20 rmoveto
          6 callgsubr
          9 11 hvcurveto
          350 -80 callgsubr
          112 -58 callgsubr
          -112 -80 callsubr
          50 -80 callgsubr
          125 hlineto
          11 9 9 11 hvcurveto
          90 vlineto
          11 -9 9 -11 vhcurveto
          -410 68 callgsubr
          125 -67 callsubr
          -50 -65 callsubr
          -113 -61 callgsubr
          113 27 callsubr
        </CharString>
        <CharString name="Tcaron">
          -33 103 callsubr
          210 -20 -66 callgsubr
          -116 334 -102 callgsubr
        </CharString>
        <CharString name="Tcommaaccent">
          -46 callgsubr
        </CharString>
        <CharString name="Thorn">
          53 21 -21 120 140 190 140 110 -20 62 callgsubr
          150 140 vstem
          495 380 rmoveto
          115 -95 95 -115 vhcurveto
          -70 -80 callsubr
          80 vlineto
          11 -9 9 -11 vhcurveto
          -100 -89 callgsubr
          90 -80 callgsubr
          70 hlineto
          115 95 94 116 hvcurveto
          -140 hmoveto
          -39 -32 -31 -38 vhcurveto
          -70 -80 callsubr
          170 -80 callgsubr
          70 hlineto
          38 32 -32 -38 hvcurveto
          endchar
        </CharString>
        <CharString name="U">
          95 60 callgsubr
          hstem
          54 141 192 141 vstem
          -95 callsubr
          endchar
        </CharString>
        <CharString name="Uacute">
          95 60 callgsubr
          70 160 hstem
          54 141 192 141 vstem
          -95 callsubr
          -186 700 rmoveto
          -45 callsubr
        </CharString>
        <CharString name="Ubreve">
          95 60 callgsubr
          60 65 callgsubr
          54 141 -58 97 153 141 hintmask 11101010
          -95 callsubr
          -173 676 rmoveto
          -31 -29 -25 -31 vhcurveto
          hintmask 11010110
          -31 -30 25 31 104 callgsubr
          hvcurveto
          -78 callgsubr
          endchar
        </CharString>
        <CharString name="Ucircumflex">
          95 60 callgsubr
          230 -20 hstem
          54 141 192 141 vstem
          -95 callsubr
          -239 600 rmoveto
          -107 callgsubr
        </CharString>
        <CharString name="Udieresis">
          95 60 callgsubr
          80 130 hstemhm
          54 141 -63 64 callsubr
          -75 141 hintmask 11110010
          -95 callsubr
          hintmask 11101100
          -266 660 -100 callgsubr
          endchar
        </CharString>
        <CharString name="Ugrave">
          95 60 callgsubr
          70 160 hstem
          54 141 192 141 vstem
          -95 callsubr
          -383 700 -93 callgsubr
          endchar
        </CharString>
        <CharString name="Uhungarumlaut">
          95 60 callgsubr
          70 160 hstem
          54 141 192 141 vstem
          -95 callsubr
          -281 700 -79 callsubr
        </CharString>
        <CharString name="Umacron">
          95 60 callgsubr
          80 98 hstem
          54 141 192 141 vstem
          -95 callsubr
          -361 648 -74 callsubr
          endchar
        </CharString>
        <CharString name="Uogonek">
          95 -199 -21 209 73 callgsubr
          hstemhm
          54 141 93 114 -114 194 -95 141 hintmask 11110100
          195 680 rmoveto
          -76 callsubr
          -121 100 -100 136 vhcurveto
          11 hlineto
          -7 -12 -6 -19 -18 vvcurveto
          -110 74 -50 100 -100 callsubr
          vhcurveto
          39 callsubr
          hintmask 11111000
          -33 -27 27 33 50 26 26 52 59 hvcurveto
          hintmask 11110010
          32 36 16 48 51 vvcurveto
          470 vlineto
          -68 callsubr
          endchar
        </CharString>
        <CharString name="Uring">
          95 60 callgsubr
          54 84 64 83 hstemhm
          54 141 -14 84 64 83 -25 141 hintmask 11111001
          -95 callsubr
          hintmask 11110110
          -347 640 -49 callgsubr
        </CharString>
        <CharString name="Utilde">
          95 60 callgsubr
          105 125 callsubr
          54 141 192 141 hintmask 11101100
          -95 callsubr
          -142 654 rmoveto
          hintmask 11011100
          -68 callgsubr
          hintmask 11101100
          -67 callgsubr
          endchar
        </CharString>
        <CharString name="V">
          60 83 callsubr
          541 676 rmoveto
          10 3 -6 14 -16 hhcurveto
          -110 hlineto
          -9 -8 -4 -11 -2 hvcurveto
          -109 -469 rlineto
          -4 -1 -2 -3 -4 hhcurveto
          -6 hlineto
          -4 -2 3 4 -1 hvcurveto
          -110 469 rlineto
          11 -2 -8 4 -9 hhcurveto
          -110 hlineto
          -16 -6 -14 -10 3 hvcurveto
          173 -661 rlineto
          -10 3 7 -5 9 hhcurveto
          151 hlineto
          9 7 5 10 3 hvcurveto
          endchar
        </CharString>
        <CharString name="W">
          100 callgsubr
          hstem
          -95 callgsubr
          endchar
        </CharString>
        <CharString name="Wacute">
          100 callgsubr
          70 160 hstem
          -95 callgsubr
          110 895 rmoveto
          -45 callsubr
        </CharString>
        <CharString name="Wcircumflex">
          100 callgsubr
          230 -20 hstem
          -95 callgsubr
          61 795 rmoveto
          -107 callgsubr
        </CharString>
        <CharString name="Wdieresis">
          100 callgsubr
          80 130 hstem
          221 85 callgsubr
          -95 callgsubr
          34 855 -100 callgsubr
          endchar
        </CharString>
        <CharString name="Wgrave">
          100 callgsubr
          70 160 hstem
          -95 callgsubr
          -87 895 -93 callgsubr
          endchar
        </CharString>
        <CharString name="X">
          55 83 callsubr
          265 252 rmoveto
          2 6 8 0 2 -6 93 -237 rcurveline
          -11 4 8 -4 9 hhcurveto
          118 hlineto
          13 9 14 14 -6 hvcurveto
          -147 332 -4 9 0 3 4 10 rlinecurve
          130 290 rlineto
          14 6 -9 14 -13 hhcurveto
          -113 hlineto
          -9 -5 -4 -11 -5 hvcurveto
          -83 -207 -2 -6 -8 0 -2 6 rlinecurve
          -83 207 rlineto
          11 -5 -5 4 -9 hhcurveto
          -113 hlineto
          -13 -9 -14 -14 6 hvcurveto
          130 -289 4 -10 0 -3 -4 -9 rlinecurve
          -147 -333 rlineto
          -14 -6 9 -14 13 hhcurveto
          118 hlineto
          9 8 4 11 4 hvcurveto
          endchar
        </CharString>
        <CharString name="Y">
          31 83 callsubr
          189 140 vstem
          -77 callgsubr
          endchar
        </CharString>
        <CharString name="Yacute">
          31 13 callgsubr
          70 160 hstem
          189 140 vstem
          -77 callgsubr
          49 502 rmoveto
          -45 callsubr
        </CharString>
        <CharString name="Ycircumflex">
          31 13 callgsubr
          230 -20 hstem
          189 140 vstem
          -77 callgsubr
          -5 402 rmoveto
          -107 callgsubr
        </CharString>
        <CharString name="Ydieresis">
          31 13 callgsubr
          80 130 hstemhm
          92 130 -33 140 -37 130 hintmask 11101000
          -77 callgsubr
          hintmask 11110100
          -31 462 -100 callgsubr
          endchar
        </CharString>
        <CharString name="Ygrave">
          31 13 callgsubr
          70 160 hstem
          189 140 vstem
          -77 callgsubr
          -144 502 -93 callgsubr
          endchar
        </CharString>
        <CharString name="Z">
          80 callgsubr
          hstem
          -73 callgsubr
          endchar
        </CharString>
        <CharString name="Zacute">
          80 callgsubr
          50 160 hstem
          -73 callgsubr
          84 763 rmoveto
          -45 callsubr
        </CharString>
        <CharString name="Zcaron">
          80 callgsubr
          230 -20 hstem
          -73 callgsubr
          6 767 -102 callgsubr
        </CharString>
        <CharString name="Zdotaccent">
          80 callgsubr
          50 140 hstem
          172 140 vstem
          -73 callgsubr
          114 727 -92 callsubr
          endchar
        </CharString>
        <CharString name="a">
          -44 callgsubr
          51 callgsubr
          hintmask 10010111
          322 204 rmoveto
          -90 callgsubr
          hintmask 01111011
          -91 callgsubr
          hintmask 10010111
          21 callsubr
          endchar
        </CharString>
        <CharString name="aacute">
          -44 callgsubr
          59 160 51 callgsubr
          hintmask 1001011110000000
          322 204 rmoveto
          -90 callgsubr
          hintmask 0111101110000000
          -91 callgsubr
          hintmask 1001011110000000
          21 callsubr
          53 333 rmoveto
          -45 callsubr
        </CharString>
        <CharString name="abreve">
          -44 callgsubr
          56 65 callgsubr
          43 122 -55 97 125 93 -93 123 hintmask 1001011010100000
          322 204 rmoveto
          -90 callgsubr
          hintmask 0111101010010000
          -91 callgsubr
          hintmask 1001011001100000
          21 callsubr
          78 316 -12 callgsubr
          hintmask 1001100101100000
          104 callgsubr
          vhcurveto
          -78 callgsubr
          endchar
        </CharString>
        <CharString name="acircumflex">
          -44 callgsubr
          219 -20 51 callgsubr
          hintmask 1001011110000000
          322 204 rmoveto
          -90 callgsubr
          hintmask 0111101110000000
          -91 callgsubr
          hintmask 1001011110000000
          21 callsubr
          233 vmoveto
          -107 callgsubr
        </CharString>
        <CharString name="acute">
          27 570 160 hstem
          267 -14 callgsubr
          endchar
        </CharString>
        <CharString name="adieresis">
          -44 callgsubr
          69 130 hstemhm
          43 122 -72 64 callsubr
          -91 123 hintmask 1001011100100000
          322 204 rmoveto
          -90 callgsubr
          hintmask 0111101100100000
          -91 callgsubr
          hintmask 1001011011000000
          21 callsubr
          -27 293 -100 callgsubr
          endchar
        </CharString>
        <CharString name="ae">
          77 callgsubr
          117 callsubr
          hintmask 10110111
          -4 callsubr
          hintmask 10101111
          11 callgsubr
          hintmask 01110111
          -17 callgsubr
          endchar
        </CharString>
        <CharString name="aeacute">
          77 callgsubr
          59 160 117 callsubr
          hintmask 1011011110000000
          -4 callsubr
          hintmask 1010111110000000
          11 callgsubr
          hintmask 0111011110000000
          -17 callgsubr
          -108 337 rmoveto
          -45 callsubr
        </CharString>
        <CharString name="afii61289">
          6 -10 120 159 111 200 120 hstem
          98 125 115 125 vstem
          98 270 rmoveto
          -47 vlineto
          -154 70 -79 181 vhcurveto
          36 -58 callgsubr
          -36 hlineto
          -79 -47 11 104 hvcurveto
          44 vlineto
          157 83 119 122 105 -63 85 -117 -105 -80 -94 -106 hvcurveto
          -120 -48 vlineto
          -104 callsubr
          -70 -103 callgsubr
          173 230 rmoveto
          53 23 27 37 37 18 -30 -40 -86 -38 -44 -77 vhcurveto
          endchar
        </CharString>
        <CharString name="afii61352">
          571 0 103 36 130 202 130 99 -20 hstem
          70 140 170 140 vstem
          500 -88 callgsubr
          338 415 rmoveto
          38 23 18 44 45 23 -23 -33 vhcurveto
          -90 vlineto
          -33 -23 -23 -45 -44 -23 21 35 vhcurveto
          -130 hmoveto
          -106 10 71 -80 117 hhcurveto
          116 71 80 106 10 hvcurveto
          3 27 0 36 -3 27 rrcurveto
          106 -10 -71 80 -117 hhcurveto
          -116 -71 -80 -106 -10 hvcurveto
          -3 -27 0 -36 3 -27 rrcurveto
          375 -325 59 callgsubr
          63 -96 callgsubr
          -355 -105 callsubr
          -63 51 callsubr
        </CharString>
        <CharString name="agrave">
          -44 callgsubr
          59 160 51 callgsubr
          hintmask 1001011110000000
          322 204 rmoveto
          -90 callgsubr
          hintmask 0111101110000000
          -91 callgsubr
          hintmask 1001011110000000
          21 callsubr
          -135 333 -93 callgsubr
          endchar
        </CharString>
        <CharString name="amacron">
          -44 callgsubr
          85 98 51 callgsubr
          hintmask 1001011110000000
          322 204 rmoveto
          -90 callgsubr
          hintmask 0111101110000000
          -91 callgsubr
          hintmask 1001011110000000
          21 callsubr
          -113 297 -74 callsubr
          endchar
        </CharString>
        <CharString name="ampersand">
          98 -11 120 -88 -21 486 214 -131 131 hstemhm
          28 137 -106 133 208 108 hintmask 10101010
          270 109 rmoveto
          -50 -55 46 51 hvcurveto
          hintmask 10010110
          27 10 21 17 16 vhcurveto
          1 1 2 2 3 -3 118 -140 rcurveline
          3 -3 -3 -2 -1 -1 rrcurveto
          -10 -15 -13 -5 -17 hhcurveto
          124 128 rmoveto
          -2 -3 -4 -2 -3 3 -149 177 rcurveline
          -12 14 -32 44 37 vvcurveto
          38 25 24 42 34 21 -23 -31 3 vhcurveto
          hintmask 10100110
          -21 2 12 -8 17 hhcurveto
          74 hlineto
          17 13 4 26 104 -88 80 -101 -112 -92 -82 -111 -44 19 -52 27 -33 hvcurveto
          6 -8 1 -8 -8 -6 rrcurveto
          hintmask 10101010
          -45 -34 -31 -60 -56 vvcurveto
          -123 108 -94 122 53 50 13 31 39 vhcurveto
          4 3 6 6 9 -9 22 -23 rcurveline
          hintmask 01101010
          -4 4 3 -6 15 hhcurveto
          79 hlineto
          22 7 24 13 -11 hvcurveto
          -77 91 -4 5 0 2 3 5 rlinecurve
          10 17 16 43 120 vvcurveto
          -106 callsubr
          -68 hlineto
          -98 callgsubr
          -50 -1 -25 -5 -8 hvcurveto
          endchar
        </CharString>
        <CharString name="aogonek">
          25 -199 -21 209 112 -80 -21 204 106 30 171 -114 114 hstemhm
          43 122 96 114 -48 128 hintmask 1011101010000000
          435 hmoveto
          -105 callgsubr
          310 vlineto
          116 -79 65 -121 -120 -73 -72 -79 -104 callgsubr
          72 hlineto
          18 5 2 17 4 hvcurveto
          hintmask 1101011010000000
          5 callgsubr
          17 20 2 3 13 hvcurveto
          hintmask 1011101100000000
          -11 -14 -9 -26 -24 vvcurveto
          -98 70 -52 94 -100 callsubr
          vhcurveto
          60 vlineto
          11 -9 9 -11 -27 -23 27 33 32 18 28 31 vhcurveto
          -102 204 120 callgsubr
          -24 vlineto
          hintmask 1101101100000000
          -52 -44 -17 -57 -36 -30 16 37 15 8 35 43 vhcurveto
          endchar
        </CharString>
        <CharString name="apostrophemod">
          -242 411 -21 310 -20 hstem
          50 160 vstem
          90 -56 callsubr
          endchar
        </CharString>
        <CharString name="apple">
          -91 callsubr
        </CharString>
        <CharString name="approxequal">
          63 65 124 -79 79 66 124 -79 79 hstemhm
          hintmask 10010000
          161 300 rmoveto
          hintmask 10100000
          23 callsubr
          hintmask 01010000
          24 callgsubr
          -190 vmoveto
          hintmask 10100000
          23 callsubr
          hintmask 01100000
          24 callgsubr
          endchar
        </CharString>
        <CharString name="approxequal.case">
          68 131 127 -82 82 63 128 -83 83 hstemhm
          hintmask 10010000
          164 366 rmoveto
          hintmask 10100000
          108 16 -45 104 hhcurveto
          50 63 25 36 hvcurveto
          84 vlineto
          20 -19 2 -10 -13 vhcurveto
          -14 -11 -51 -12 -22 hhcurveto
          hintmask 01010000
          -108 -16 45 -104 hhcurveto
          -50 -64 -25 -36 hvcurveto
          -84 vlineto
          -20 19 -2 10 13 vhcurveto
          14 11 52 12 22 hhcurveto
          -190 vmoveto
          hintmask 10100000
          108 16 -45 104 hhcurveto
          50 63 25 36 hvcurveto
          83 vlineto
          20 -19 2 -10 -13 vhcurveto
          -14 -11 -51 -12 -22 hhcurveto
          hintmask 01100000
          -108 -16 45 -104 hhcurveto
          -50 -64 -25 -36 hvcurveto
          -83 vlineto
          -20 19 -3 10 13 vhcurveto
          14 11 52 13 22 hhcurveto
          endchar
        </CharString>
        <CharString name="aring">
          -44 callgsubr
          43 84 64 83 hstemhm
          43 122 -19 84 64 83 -45 123 hintmask 1001011110010000
          322 204 rmoveto
          -90 callgsubr
          hintmask 0111101110010000
          -91 callgsubr
          hintmask 1001011101100000
          21 callsubr
          -104 273 -49 callgsubr
        </CharString>
        <CharString name="aringacute">
          -44 callgsubr
          43 84 64 198 hstemhm
          43 122 -23 84 64 83 -41 123 hintmask 1001101101100000
          312 900 -3 callgsubr
          96 -466 rmoveto
          hintmask 1001011110010000
          -90 callgsubr
          hintmask 0111101110010000
          -91 callgsubr
          hintmask 1001011110100000
          21 callsubr
          endchar
        </CharString>
        <CharString name="arrowdown">
          109 531 -20 hstem
          237 117 vstem
          237 159 rmoveto
          -62 67 rlineto
          8 -8 -5 7 -10 hhcurveto
          -82 hlineto
          -16 -10 -19 -12 12 hvcurveto
          225 -225 10 -10 9 1 8 8 rlinecurve
          233 233 rlineto
          10 10 -8 14 -12 hhcurveto
          -85 hlineto
          -8 -9 -3 -9 -8 hvcurveto
          -67 -72 rlineto
          354 vlineto
          10 -10 10 -10 vhcurveto
          -77 hlineto
          -10 -10 -10 -10 hvcurveto
          endchar
        </CharString>
        <CharString name="arrowdown.case">
          111 599 -20 hstem
          236 121 vstem
          236 231 rmoveto
          -59 64 rlineto
          8 -8 -4 7 -10 hhcurveto
          -85 hlineto
          -16 -10 -19 -12 12 hvcurveto
          226 -226 10 -10 9 1 8 8 rlinecurve
          234 234 rlineto
          10 10 -8 14 -12 hhcurveto
          -87 hlineto
          -8 -10 -3 -9 -8 hvcurveto
          -63 -69 rlineto
          350 vlineto
          10 -10 10 -10 vhcurveto
          -81 hlineto
          -10 -10 -10 -10 hvcurveto
          endchar
        </CharString>
        <CharString name="arrowleft">
          167 194 117 hstem
          232 311 rmoveto
          67 62 rlineto
          8 8 7 5 10 vvcurveto
          82 vlineto
          16 -19 10 -12 -12 vhcurveto
          -225 -225 -10 -10 1 -9 8 -8 rlinecurve
          233 -233 rlineto
          10 -10 14 8 12 vvcurveto
          85 vlineto
          8 -3 9 -9 8 vhcurveto
          -72 67 rlineto
          354 123 callgsubr
          77 vlineto
          10 -10 10 -10 vhcurveto
          endchar
        </CharString>
        <CharString name="arrowleft.case">
          167 260 121 hstem
          236 381 rmoveto
          64 58 rlineto
          8 8 7 5 10 vvcurveto
          85 vlineto
          16 -19 10 -12 -12 vhcurveto
          -226 -227 -10 -9 1 -9 8 -8 rlinecurve
          234 -234 rlineto
          10 -10 14 8 12 vvcurveto
          87 vlineto
          8 -3 9 -9 8 vhcurveto
          -70 64 rlineto
          351 123 callgsubr
          80 vlineto
          11 -10 10 -10 vhcurveto
          endchar
        </CharString>
        <CharString name="arrowright">
          167 194 117 hstem
          70 311 rmoveto
          -10 -10 -10 -10 hvcurveto
          -77 vlineto
          -10 10 -10 10 vhcurveto
          354 hlineto
          -72 -67 rlineto
          -9 -8 -3 -9 -8 vvcurveto
          -85 vlineto
          -12 14 -8 10 10 vhcurveto
          233 233 8 8 1 9 -10 10 rlinecurve
          -225 225 rlineto
          -12 12 -19 -10 -16 vvcurveto
          -82 vlineto
          -10 7 -5 8 -8 vhcurveto
          67 -62 rlineto
          endchar
        </CharString>
        <CharString name="arrowright.case">
          167 260 121 hstem
          70 381 rmoveto
          -10 -10 -10 -10 hvcurveto
          -81 vlineto
          -10 10 -10 10 vhcurveto
          350 hlineto
          -69 -63 rlineto
          -9 -8 -3 -9 -8 vvcurveto
          -88 vlineto
          -12 14 -8 10 10 vhcurveto
          234 234 8 8 1 9 -10 10 rlinecurve
          -226 226 rlineto
          -12 12 -19 -10 -16 vvcurveto
          -84 vlineto
          -10 7 -5 8 -8 vhcurveto
          64 -59 rlineto
          endchar
        </CharString>
        <CharString name="arrowup">
          109 21 -21 hstem
          237 117 vstem
          237 20 rmoveto
          -10 10 -10 10 vhcurveto
          77 123 callgsubr
          354 vlineto
          67 -72 rlineto
          -9 8 9 -3 8 hhcurveto
          85 hlineto
          12 8 14 10 -10 hvcurveto
          -233 233 -8 8 -9 1 -10 -10 rlinecurve
          -225 -225 rlineto
          -12 -12 10 -19 16 hhcurveto
          82 hlineto
          10 5 85 callsubr
          62 67 rlineto
          endchar
        </CharString>
        <CharString name="arrowup.case">
          111 89 -21 hstem
          236 121 vstem
          236 88 rmoveto
          -10 10 -10 10 vhcurveto
          81 123 callgsubr
          350 vlineto
          63 -69 rlineto
          -9 8 10 -3 8 hhcurveto
          87 hlineto
          12 8 14 10 -10 hvcurveto
          -234 234 -8 8 -9 1 -10 -10 rlinecurve
          -226 -226 rlineto
          -12 -12 10 -19 16 hhcurveto
          85 hlineto
          10 4 85 callsubr
          59 64 rlineto
          endchar
        </CharString>
        <CharString name="asciicircum">
          26 591 130 callsubr
          256 630 rmoveto
          -107 callgsubr
        </CharString>
        <CharString name="asciitilde">
          103 175 124 -79 79 hstemhm
          hintmask 01000000
          181 220 rmoveto
          hintmask 10000000
          23 callsubr
          hintmask 01000000
          24 callgsubr
          endchar
        </CharString>
        <CharString name="asterisk">
          -94 451 -21 300 -20 hstem
          273 473 rmoveto
          14 -10 19 6 8 15 25 42 rcurveline
          8 15 -4 19 -15 7 -28 13 rcurveline
          27 13 16 8 4 18 -9 15 rlinecurve
          -23 42 -9 15 -19 5 -13 -9 rlinecurve
          -26 -17 3 30 rlineto
          17 2 -15 13 -17 hhcurveto
          -49 hlineto
          -17 -14 -13 -17 1 hvcurveto
          2 -30 -24 17 -14 10 -19 -6 -8 -15 rlinecurve
          -25 -42 -8 -15 4 -19 15 -7 rlinecurve
          28 -13 -27 -13 -16 -8 -4 -18 9 -15 rlinecurve
          23 -42 9 -15 19 -5 13 9 rlinecurve
          25 17 -2 -30 rlineto
          -17 -1 14 -13 17 hhcurveto
          49 hlineto
          17 15 13 17 -2 hvcurveto
          -3 30 rlineto
          endchar
        </CharString>
        <CharString name="asuperior">
          344 62 45 52 13 90 -63 63 hstemhm
          23 215 -76 76 hintmask 11010100
          157 451 rmoveto
          3 2 -2 -3 hvcurveto
          -14 vlineto
          -20 -15 -6 -21 -19 -11 8 14 -3 -2 26 19 vhcurveto
          19 92 rmoveto
          23 5 -13 -15 hvcurveto
          -7 vlineto
          0 0 -5 -5 vhcurveto
          -43 hlineto
          hintmask 11101000
          -62 -27 -47 -27 -60 41 -25 55 hvcurveto
          37 15 19 9 hhcurveto
          8 -1 -5 -4 3 hvcurveto
          -3 2 2 -1 3 hhcurveto
          31 -19 callgsubr
          148 vlineto
          59 -37 39 -69 -73 -28 -45 -35 -5 6 -5 4 vhcurveto
          46 hlineto
          13 -2 2 8 4 hvcurveto
          hintmask 11011000
          10 5 12 7 13 hhcurveto
          endchar
        </CharString>
        <CharString name="at">
          348 -90 92 68 90 222 91 75 92 hstem
          60 105 74 107 146 97 86 100 vstem
          492 217 rmoveto
          -37 -34 -20 -34 -54 -24 48 61 67 34 46 44 36 32 -17 -55 vhcurveto
          38 -287 rmoveto
          -15 -32 -35 -6 -39 hhcurveto
          -151 -108 111 156 173 119 106 141 150 100 -94 -154 -98 -19 -32 -31 -15 -21 10 30 hvcurveto
          120 vlineto
          86 -72 89 callgsubr
          8 12 21 vhcurveto
          19 12 21 -1 17 -11 rrcurveto
          -13 20 18 -7 33 hhcurveto
          90 55 94 136 194 -130 146 -220 -211 -154 -160 -210 -199 128 -161 236 118 callsubr
          48 vlineto
          13 -11 8 -13 -6 vhcurveto
          endchar
        </CharString>
        <CharString name="at.case">
          351 -22 95 65 93 217 93 73 94 hstem
          60 108 72 110 142 100 83 103 vstem
          492 285 rmoveto
          -35 -34 -19 -33 -51 -24 45 61 67 34 44 41 35 32 -17 -55 vhcurveto
          39 -283 rmoveto
          -15 -32 -35 -5 -39 hhcurveto
          -149 -108 108 156 173 119 104 139 148 101 -92 -155 -95 -18 -30 -30 -14 -21 9 30 hvcurveto
          117 vlineto
          86 -74 89 callgsubr
          7 13 21 vhcurveto
          19 11 21 0 17 -11 rrcurveto
          -13 20 19 -7 33 hhcurveto
          91 55 95 134 193 -129 148 -223 -211 -155 -160 -210 -199 127 -161 238 118 callsubr
          51 vlineto
          13 -11 7 -13 -6 vhcurveto
          endchar
        </CharString>
        <CharString name="atilde">
          -44 callgsubr
          69 104 -79 79 -79 104 51 callgsubr
          hintmask 1001011001100000
          322 204 rmoveto
          -90 callgsubr
          hintmask 0111101001100000
          -91 callgsubr
          hintmask 1001010101100000
          21 callsubr
          98 287 rmoveto
          hintmask 1001100011100000
          -68 callgsubr
          hintmask 1001100101100000
          -67 callgsubr
          endchar
        </CharString>
        <CharString name="b">
          33 56 callgsubr
          199 -20 hstemhm
          65 129 151 130 hintmask 10011110
          194 325 rmoveto
          38 3 24 22 49 hhcurveto
          48 25 -27 -33 2 -8 callsubr
          -33 -2 -25 -27 -48 hhcurveto
          -49 -24 25 35 -3 hvcurveto
          -3 40 0 70 3 40 rrcurveto
          91 -336 rmoveto
          105 77 81 87 callgsubr
          105 -8 -77 81 105 callsubr
          170 49 callgsubr
          hintmask 01111110
          -104 callgsubr
          50 hlineto
          6 4 3 4 4 hvcurveto
          7 6 9 9 10 hhcurveto
          hintmask 10011110
          29 8 -34 74 hhcurveto
          endchar
        </CharString>
        <CharString name="backslash">
          -11 9 -21 722 -20 hstem
          313 3 rmoveto
          -11 4 8 -4 9 hhcurveto
          92 hlineto
          13 9 13 15 -6 hvcurveto
          -266 679 rlineto
          11 -4 -6 4 -9 hhcurveto
          -92 hlineto
          -13 -9 -13 -15 6 hvcurveto
          endchar
        </CharString>
        <CharString name="bar">
          -222 -49 -21 790 -20 hstem
          70 125 vstem
          195 700 59 callsubr
          -85 -105 callsubr
          -750 -103 callgsubr
          85 -107 callsubr
          endchar
        </CharString>
        <CharString name="bar.case">
          19 -21 790 -20 130 callgsubr
          197 700 59 callsubr
          -85 -105 callsubr
          -750 -103 callgsubr
          85 -107 callsubr
          endchar
        </CharString>
        <CharString name="braceleft">
          -71 99 callsubr
          hstemhm
          40 179 -130 130 hintmask 11100000
          314 38 rmoveto
          -58 -37 33 49 hvcurveto
          135 vlineto
          34 -28 23 -13 8 vhcurveto
          13 8 28 22 35 vvcurveto
          1 125 rlineto
          64 1 48 18 45 53 callsubr
          -42 hlineto
          hintmask 11010000
          -132 -93 -100 -110 hvcurveto
          -125 vlineto
          -11 -9 -5 -9 -4 vhcurveto
          -11 -5 rlineto
          hintmask 11100000
          -10 -4 -10 -5 -11 vvcurveto
          -40 vlineto
          -11 10 -5 10 -4 vhcurveto
          11 -5 rlineto
          hintmask 11010000
          9 -4 9 -6 -10 vvcurveto
          -135 vlineto
          -130 105 -80 120 vhcurveto
          107 callsubr
          endchar
        </CharString>
        <CharString name="braceleft.case">
          -62 80 callsubr
          40 184 -135 135 vstem
          92 70 rmoveto
          -146 105 -117 160 vhcurveto
          74 121 callsubr
          78 82 callgsubr
          -74 hlineto
          -78 -57 53 82 hvcurveto
          169 vlineto
          42 -35 29 -16 10 vhcurveto
          16 10 35 27 44 vvcurveto
          156 vlineto
          89 63 47 72 vhcurveto
          66 hlineto
          14 11 11 14 hvcurveto
          77 82 callgsubr
          -66 hlineto
          -165 -100 -125 -137 hvcurveto
          -157 vlineto
          -13 -11 -7 -11 -5 vhcurveto
          -14 -6 rlineto
          -12 -5 -13 -6 -14 vvcurveto
          -50 vlineto
          -14 13 -6 12 -5 vhcurveto
          13 -6 rlineto
          12 -5 11 -8 -12 vvcurveto
          endchar
        </CharString>
        <CharString name="braceright">
          -71 99 callsubr
          hstemhm
          196 131 -131 180 hintmask 11100000
          60 38 -40 callsubr
          -88 -103 callgsubr
          42 hlineto
          120 105 80 130 hvcurveto
          135 vlineto
          10 9 6 9 4 vhcurveto
          11 5 rlineto
          hintmask 11010000
          10 4 10 5 11 vvcurveto
          40 vlineto
          11 -10 5 -10 4 vhcurveto
          -11 5 rlineto
          hintmask 11100000
          -9 4 -9 5 11 vvcurveto
          125 vlineto
          110 -93 100 -132 vhcurveto
          -42 -105 callsubr
          -88 -103 callgsubr
          42 hlineto
          45 48 -18 -64 1 hvcurveto
          1 -125 rlineto
          -35 28 -22 13 -8 vhcurveto
          -13 -8 -28 -23 -34 vvcurveto
          -135 vlineto
          -49 -37 -33 -58 vhcurveto
          endchar
        </CharString>
        <CharString name="braceright.case">
          -62 80 callsubr
          200 136 -136 185 vstem
          331 239 rmoveto
          12 11 8 12 5 vhcurveto
          13 6 rlineto
          12 5 13 6 14 vvcurveto
          50 vlineto
          14 -13 6 -12 5 vhcurveto
          -14 6 rlineto
          -11 5 -11 7 13 vvcurveto
          157 vlineto
          137 -100 125 -165 vhcurveto
          -66 102 callgsubr
          -77 vlineto
          -14 11 -11 14 vhcurveto
          66 hlineto
          72 63 -47 -89 hvcurveto
          -156 vlineto
          -44 35 -27 16 -10 vhcurveto
          -16 -10 -35 -29 -42 vvcurveto
          -169 vlineto
          -82 -57 -53 -78 vhcurveto
          -74 102 callgsubr
          -78 122 callgsubr
          74 hlineto
          160 105 117 146 hvcurveto
          endchar
        </CharString>
        <CharString name="bracketleft">
          132 callgsubr
          70 122 -122 242 hintmask 11100000
          192 588 rmoveto
          82 callsubr
          hlineto
          hintmask 11010000
          -105 callgsubr
          82 -96 callgsubr
          -202 -105 callsubr
          -770 -103 callgsubr
          202 -107 callsubr
          82 -96 callgsubr
          -90 hlineto
          hintmask 11100000
          -6 -4 4 6 hvcurveto
          endchar
        </CharString>
        <CharString name="bracketleft.case">
          132 callsubr
          70 126 -126 246 vstem
          194 683 rmoveto
          8 5 5 8 vhcurveto
          156 hlineto
          14 11 11 14 hvcurveto
          74 82 callgsubr
          -268 102 callgsubr
          -963 122 callgsubr
          270 121 callsubr
          75 vlineto
          13 -11 12 -14 vhcurveto
          -158 hlineto
          -8 -5 5 7 hvcurveto
          endchar
        </CharString>
        <CharString name="bracketright">
          132 callgsubr
          20 242 -122 122 hintmask 11100000
          40 32 -40 callsubr
          -82 -103 callgsubr
          202 -107 callsubr
          770 -96 callgsubr
          -202 -105 callsubr
          -82 -103 callgsubr
          90 hlineto
          hintmask 11010000
          -66 callsubr
          -546 -65 callsubr
          endchar
        </CharString>
        <CharString name="bracketright.case">
          132 callsubr
          21 246 -126 126 vstem
          143 -60 rmoveto
          -7 -5 -5 -8 vhcurveto
          -158 hlineto
          -14 -11 -12 -13 hvcurveto
          -75 122 callgsubr
          270 121 callsubr
          963 82 callgsubr
          -268 102 callgsubr
          -74 vlineto
          -14 11 -11 14 vhcurveto
          156 hlineto
          8 5 -5 -8 hvcurveto
          endchar
        </CharString>
        <CharString name="breve">
          -17 567 65 callgsubr
          76 97 hintmask 10100000
          294 713 -12 callgsubr
          hintmask 01100000
          104 callgsubr
          vhcurveto
          -78 callgsubr
          endchar
        </CharString>
        <CharString name="brokenbar">
          -242 21 -21 707 -20 hstem
          65 116 vstem
          181 287 59 callsubr
          -76 -105 callsubr
          -267 -103 callgsubr
          76 -107 callsubr
          667 vmoveto
          -106 callsubr
          -76 -105 callsubr
          -267 -103 callgsubr
          76 -107 callsubr
          endchar
        </CharString>
        <CharString name="brokenbar.case">
          -238 39 -21 807 -20 hstem
          65 120 vstem
          185 305 rmoveto
          115 callsubr
          -267 vlineto
          116 callgsubr
          767 vmoveto
          115 callsubr
          -267 vlineto
          116 callgsubr
          endchar
        </CharString>
        <CharString name="bsuperior">
          -219 365 -21 185 77 -77 177 hstemhm
          34 80 -80 211 hintmask 11001000
          140 421 rmoveto
          -17 -5 4 11 -1 hvcurveto
          -2 20 0 38 2 20 rrcurveto
          13 1 5 2 17 hhcurveto
          75 callsubr
          10 -77 rmoveto
          52 39 110 callsubr
          -33 39 -43 hhcurveto
          -18 -4 -3 -5 -11 hvcurveto
          hintmask 10110000
          -8 -4 -10 1 12 vvcurveto
          89 -50 callsubr
          -60 hlineto
          -5 2 callsubr
          hvcurveto
          -336 vlineto
          -5 -1 callsubr
          vhcurveto
          31 hlineto
          3 2 2 2 2 hvcurveto
          3 3 5 5 5 14 4 -18 37 hhcurveto
          endchar
        </CharString>
        <CharString name="bullet">
          -204 174 183 hstem
          50 183 vstem
          233 337 59 callsubr
          -143 -105 callsubr
          -143 -103 callgsubr
          143 -107 callsubr
          endchar
        </CharString>
        <CharString name="c">
          11 -11 10 callgsubr
          hstemhm
          333 125 hintmask 10011000
          -10 callgsubr
          hintmask 01101000
          -77 callsubr
          endchar
        </CharString>
        <CharString name="cacute">
          11 -11 10 callgsubr
          59 160 hstemhm
          333 125 hintmask 10011100
          302 -14 callgsubr
          -76 -541 -51 callsubr
          hintmask 01101100
          -77 callsubr
          endchar
        </CharString>
        <CharString name="caron">
          -32 591 130 callsubr
          189 714 -102 callgsubr
        </CharString>
        <CharString name="ccaron">
          11 -11 10 callgsubr
          219 -20 hstemhm
          333 125 hintmask 10011100
          -10 callgsubr
          hintmask 01101100
          -77 callsubr
          -115 525 -102 callgsubr
        </CharString>
        <CharString name="ccedilla">
          11 -200 155 34 10 callgsubr
          hstemhm
          333 125 hintmask 11001100
          -10 callgsubr
          hintmask 10110100
          -77 callsubr
          -104 -234 -42 callsubr
        </CharString>
        <CharString name="ccircumflex">
          11 -11 10 callgsubr
          219 -20 hstemhm
          333 125 hintmask 10011100
          -10 callgsubr
          hintmask 01101100
          -77 callsubr
          -82 441 rmoveto
          -107 callgsubr
        </CharString>
        <CharString name="cdotaccent">
          11 -11 10 callgsubr
          59 140 hstemhm
          188 140 5 125 hintmask 10011110
          -10 callgsubr
          hintmask 01101110
          -77 callsubr
          -5 505 -92 callsubr
          endchar
        </CharString>
        <CharString name="cedilla">
          -56 -200 155 hstem
          208 -45 -42 callsubr
        </CharString>
        <CharString name="cent">
          26 -70 185 270 185 hstem
          197 125 16 125 vstem
          336 500 rmoveto
          -9 3 -5 5 9 vvcurveto
          33 -96 callgsubr
          -85 -105 callsubr
          -33 vlineto
          -9 -7 -3 -9 -3 vhcurveto
          -77 -26 -44 -70 -10 -81 -36 callsubr
          10 -81 45 -70 76 -26 rrcurveto
          9 -3 7 -3 -9 vvcurveto
          -33 -103 callgsubr
          85 -107 callsubr
          32 vlineto
          9 5 4 10 4 vhcurveto
          73 29 53 66 91 vvcurveto
          11 -6 9 -11 vhcurveto
          -89 hlineto
          -9 -8 -5 -11 -2 hvcurveto
          -54 -8 -28 -20 -44 hhcurveto
          -51 -23 25 35 -4 hvcurveto
          -5 40 0 70 5 40 rrcurveto
          38 5 22 22 50 hhcurveto
          46 32 -25 -49 3 hvcurveto
          -11 1 9 -5 9 hhcurveto
          89 hlineto
          11 6 9 11 93 -54 66 -73 26 hvcurveto
          endchar
        </CharString>
        <CharString name="circumflex">
          -91 591 130 callsubr
          193 630 rmoveto
          -107 callgsubr
        </CharString>
        <CharString name="colon">
          -184 0 160 180 160 hstem
          72 160 vstem
          232 140 -64 callsubr
          460 vmoveto
          -62 callgsubr
          endchar
        </CharString>
        <CharString name="comma">
          -223 -129 -21 171 130 callsubr
          53 160 vstem
          73 -150 rmoveto
          20 hlineto
          -40 callgsubr
          64 84 rlineto
          12 18 10 25 26 vvcurveto
          117 vlineto
          -51 callgsubr
          24 hlineto
          6 7 -6 -7 -4 hvcurveto
          -54 -99 rlineto
          -18 -10 11 -20 20 hhcurveto
          endchar
        </CharString>
        <CharString name="commaaccent">
          -200 -284 -21 260 -20 hstem
          61 140 vstem
          101 -305 -2 callgsubr
          -101 callsubr
        </CharString>
        <CharString name="commaturn">
          -197 581 -21 140 -20 140 -20 hstem
          81 140 vstem
          181 820 4 callsubr
        </CharString>
        <CharString name="copyright">
          313 0 93 48 101 -101 171 72 171 -102 102 51 94 hstemhm
          50 93 317 98 98 94 hintmask 1011011110000000
          -16 callsubr
          158 -308 rmoveto
          7 -5 7 -9 vhcurveto
          -68 hlineto
          -8 -7 -5 -7 -1 hvcurveto
          hintmask 1100111110000000
          -42 -6 -20 -16 -35 hhcurveto
          -42 -17 19 29 -3 hvcurveto
          -3 30 0 56 3 30 rrcurveto
          30 4 16 17 41 hhcurveto
          37 23 -19 -38 2 hvcurveto
          hintmask 1101011110000000
          -8 1 7 -4 8 hhcurveto
          68 hlineto
          9 5 7 7 97 -74 60 -85 -97 -55 -66 -83 -11 hvcurveto
          -4 -30 0 -56 4 -30 rrcurveto
          -83 11 55 -66 97 hhcurveto
          85 74 61 96 hvcurveto
          endchar
        </CharString>
        <CharString name="csuperior">
          -228 344 108 46 108 -76 76 hstemhm
          hintmask 10100000
          130 416 rmoveto
          -15 -10 9 11 -2 hvcurveto
          -3 20 -1 34 4 20 rrcurveto
          13 2 13 7 11 hhcurveto
          17 12 -7 -17 3 hvcurveto
          hintmask 11000000
          -5 1 4 -3 4 hhcurveto
          58 hlineto
          5 3 5 5 66 -51 32 -55 -62 -37 -40 -52 -8 hvcurveto
          96 callsubr
          37 -40 62 hhcurveto
          55 51 34 64 4 -1 6 -6 hvcurveto
          -58 hlineto
          -5 -4 -3 -5 -1 hvcurveto
          -21 -8 -7 -7 -16 hhcurveto
          endchar
        </CharString>
        <CharString name="currency">
          185 91 115 203 114 hstem
          118 115 203 114 vstem
          513 36 rmoveto
          8 -8 12 1 7 8 65 65 rcurveline
          8 7 1 12 -8 8 -80 80 rcurveline
          15 29 9 33 36 vvcurveto
          34 -9 33 -14 29 vhcurveto
          78 79 8 8 -1 12 -7 8 rlinecurve
          -65 65 -8 7 -12 1 -8 -8 rlinecurve
          -77 -77 rlineto
          16 -30 -35 9 -36 hhcurveto
          -36 -34 -9 -15 -29 hvcurveto
          -76 77 -8 8 -12 -1 -7 -8 rlinecurve
          -65 -65 -8 -7 -1 -12 8 -8 rlinecurve
          76 -78 rlineto
          -16 -29 -8 -34 -35 vvcurveto
          -37 9 -34 16 -30 vhcurveto
          -76 -76 -8 -8 1 -12 7 -8 rlinecurve
          65 -65 8 -7 12 -1 8 8 rlinecurve
          77 77 rlineto
          -15 29 33 -8 35 hhcurveto
          36 33 9 15 30 hvcurveto
          -99 91 rmoveto
          -55 -46 46 55 56 46 46 55 56 46 -46 -56 -55 -46 -46 -56 hvcurveto
          endchar
        </CharString>
        <CharString name="d">
          33 56 callgsubr
          199 96 callgsubr
          hintmask 10011110
          175 -21 callsubr
          60 -336 rmoveto
          hintmask 01111110
          -7 callgsubr
          hintmask 10011110
          -105 8 77 -81 105 hhcurveto
          endchar
        </CharString>
        <CharString name="dagger">
          -20 -99 -21 490 120 210 -20 hstem
          174 120 vstem
          174 -100 rmoveto
          116 callgsubr
          460 -80 callgsubr
          130 -58 callgsubr
          -130 -80 callsubr
          180 vlineto
          115 callsubr
          -180 -65 callsubr
          -130 -61 callgsubr
          130 27 callsubr
        </CharString>
        <CharString name="daggerdbl">
          30 21 -21 158 118 148 118 158 -20 hstem
          196 114 vstem
          58 542 -40 callsubr
          -78 -103 callgsubr
          128 -67 callsubr
          -128 -65 callsubr
          -128 -105 callsubr
          -78 -103 callgsubr
          128 -67 callsubr
          -128 -103 callgsubr
          74 -107 callsubr
          128 -80 callgsubr
          128 -107 callsubr
          78 -96 callgsubr
          -128 -80 callsubr
          128 -80 callgsubr
          128 -107 callsubr
          78 -96 callgsubr
          -128 -80 callsubr
          128 -96 callgsubr
          -74 -105 callsubr
          -128 -65 callsubr
          endchar
        </CharString>
        <CharString name="dcaron">
          107 56 callgsubr
          189 -20 30 96 callgsubr
          71 140 hintmask 1001011110000000
          175 -21 callsubr
          60 -336 rmoveto
          hintmask 0111011110000000
          -7 callgsubr
          hintmask 1001101110000000
          -105 8 77 -81 105 hhcurveto
          331 451 -2 callgsubr
          -101 callsubr
        </CharString>
        <CharString name="dcroat">
          46 56 callgsubr
          46 90 63 -20 hstemhm
          53 84 callgsubr
          hintmask 10011111
          183 -21 callsubr
          280 365 -89 callsubr
          -33 -65 callsubr
          -60 -105 callsubr
          -50 -103 callgsubr
          60 -67 callsubr
          -27 61 callsubr
          -105 8 77 -81 105 hhcurveto
          hintmask 01111111
          74 8 34 29 hhcurveto
          10 9 -9 -7 6 hvcurveto
          -4 4 4 -3 6 hhcurveto
          127 callsubr
          527 -80 callgsubr
          15 -107 callsubr
          50 -96 callgsubr
          -15 91 callsubr
        </CharString>
        <CharString name="degree">
          -109 436 99 99 99 hstem
          36 99 99 99 vstem
          36 585 rmoveto
          -83 66 -66 83 82 66 66 83 82 -66 66 -82 -83 -66 -66 -82 vhcurveto
          99 hmoveto
          27 23 22 27 27 22 -22 -27 -27 -22 -23 -27 -27 -23 23 27 vhcurveto
          endchar
        </CharString>
        <CharString name="dieresis">
          35 580 130 hstem
          98 85 callgsubr
          228 690 -100 callgsubr
          endchar
        </CharString>
        <CharString name="divide">
          63 0 143 49 119 46 143 hstem
          203 143 vstem
          223 143 -40 callsubr
          -103 -103 callgsubr
          103 -107 callsubr
          103 -96 callgsubr
          20 337 59 callsubr
          -103 -105 callsubr
          -103 -103 callgsubr
          103 -107 callsubr
          154 -86 rmoveto
          111 callsubr
          -79 107 callgsubr
          endchar
        </CharString>
        <CharString name="divide.case">
          67 43 149 46 119 113 145 hstemhm
          203 146 -126 108 hintmask 11101000
          223 189 rmoveto
          hintmask 11110000
          -104 callsubr
          -103 vlineto
          hintmask 11101000
          -104 callgsubr
          103 -107 callsubr
          103 -96 callgsubr
          20 337 59 callsubr
          -103 hlineto
          hintmask 11110000
          -104 callsubr
          -103 vlineto
          hintmask 11101000
          -104 callgsubr
          103 -107 callsubr
          154 -86 rmoveto
          111 callsubr
          -79 107 callgsubr
          endchar
        </CharString>
        <CharString name="dollar">
          75 -70 196 449 195 hstemhm
          49 132 35 125 36 131 -131 145 hintmask 11110100
          356 700 rmoveto
          -9 3 -6 4 9 vvcurveto
          34 -96 callgsubr
          -85 -105 callsubr
          -36 vlineto
          -9 -7 -3 -9 -3 vhcurveto
          -91 -28 -60 -78 -93 vvcurveto
          -129 99 -55 125 -28 vhcurveto
          75 -17 29 -20 -43 vvcurveto
          -47 -36 -35 -63 -37 callsubr
          -98 64 -81 96 -29 vhcurveto
          9 -3 7 -3 -9 vvcurveto
          -35 -103 callgsubr
          85 -107 callsubr
          34 vlineto
          9 5 3 10 3 vhcurveto
          98 26 68 76 107 vvcurveto
          139 -103 58 -139 28 vhcurveto
          -52 10 -37 19 38 vvcurveto
          40 31 35 56 57 32 -35 -40 vhcurveto
          -15 -103 callgsubr
          101 hlineto
          hintmask 11111000
          -105 callgsubr
          15 vlineto
          93 -61 79 -91 28 vhcurveto
          endchar
        </CharString>
        <CharString name="dotaccent">
          -220 570 140 hstem
          60 140 vstem
          200 694 -92 callsubr
          endchar
        </CharString>
        <CharString name="dotlessi">
          -227 119 callsubr
          65 130 vstem
          195 484 -70 callgsubr
          endchar
        </CharString>
        <CharString name="dsuperior">
          -219 344 77 108 77 -77 177 hstemhm
          24 210 -80 80 hintmask 10110000
          128 421 rmoveto
          38 callgsubr
          17 5 -2 -13 95 callsubr
          -11 -1 -5 -4 -17 hhcurveto
          -9 -77 rmoveto
          37 3 18 15 hhcurveto
          5 4 -5 -3 3 hvcurveto
          -2 2 2 -2 3 hhcurveto
          31 -19 callgsubr
          336 -50 callsubr
          -60 hlineto
          hintmask 11001000
          -5 2 callsubr
          hvcurveto
          -89 vlineto
          -12 -8 -2 -10 5 vhcurveto
          4 -8 -4 4 -15 hhcurveto
          hintmask 11010000
          -47 -34 68 callsubr
          38 -39 53 hhcurveto
          endchar
        </CharString>
        <CharString name="e">
          -28 callgsubr
          hstemhm
          165 173 0 119 hintmask 01110100
          -97 callsubr
          hintmask 10111000
          -38 callgsubr
          endchar
        </CharString>
        <CharString name="eacute">
          -41 callsubr
          125 520 rmoveto
          -45 callsubr
        </CharString>
        <CharString name="ebreve">
          -28 callgsubr
          56 65 callgsubr
          105 97 136 119 hintmask 01111011
          -97 callsubr
          hintmask 10111011
          -38 callgsubr
          143 503 -12 callgsubr
          hintmask 10110111
          104 callgsubr
          vhcurveto
          -78 callgsubr
          endchar
        </CharString>
        <CharString name="ecaron">
          -41 callgsubr
          37 504 -102 callgsubr
        </CharString>
        <CharString name="ecircumflex">
          -41 callgsubr
          72 420 rmoveto
          -107 callgsubr
        </CharString>
        <CharString name="edieresis">
          -28 callgsubr
          69 130 hstemhm
          101 64 callsubr
          -93 119 hintmask 01111101
          -97 callsubr
          hintmask 10111110
          -38 callgsubr
          51 480 -100 callgsubr
          endchar
        </CharString>
        <CharString name="edotaccent">
          -28 callgsubr
          59 140 hstemhm
          165 173 -151 140 11 119 hintmask 01111011
          -97 callsubr
          hintmask 10111100
          -38 callgsubr
          hintmask 10111011
          147 484 -92 callsubr
          endchar
        </CharString>
        <CharString name="egrave">
          -41 callsubr
          -63 520 -93 callgsubr
          endchar
        </CharString>
        <CharString name="eight">
          109 callgsubr
          57 123 192 122 vstem
          276 27 callgsubr
          174 -70 rmoveto
          75 callgsubr
          126 callsubr
          vhcurveto
          46 callgsubr
          endchar
        </CharString>
        <CharString name="eight.denominator">
          -197 -7 42 callsubr
          70 -79 callgsubr
        </CharString>
        <CharString name="eight.numerator">
          -197 343 42 callsubr
          420 -79 callgsubr
        </CharString>
        <CharString name="eight.otlf">
          109 callgsubr
          56 123 192 132 vstem
          275 27 callgsubr
          291 vmoveto
          126 callsubr
          hvcurveto
          46 callgsubr
          75 callgsubr
          vhcurveto
          endchar
        </CharString>
        <CharString name="eightinferior">
          -197 -189 42 callsubr
          -112 -79 callgsubr
        </CharString>
        <CharString name="eightsuperior">
          -197 343 42 callsubr
          420 -79 callgsubr
        </CharString>
        <CharString name="ellipsis">
          302 0 121 callgsubr
          104 160 105 160 vstem
          210 140 -64 callsubr
          264 120 -64 callsubr
          265 120 -64 callsubr
          endchar
        </CharString>
        <CharString name="emacron">
          -28 callgsubr
          85 98 hstemhm
          338 119 hintmask 01111100
          -97 callsubr
          hintmask 10111100
          -38 callgsubr
          -48 484 -74 callsubr
          endchar
        </CharString>
        <CharString name="emdash">
          223 196 129 hstem
          83 325 67 callsubr
          557 -4 callgsubr
        </CharString>
        <CharString name="emdash.case">
          223 262 133 hstem
          82 395 -40 callsubr
          -93 -103 callgsubr
          560 -107 callsubr
          93 -11 callgsubr
        </CharString>
        <CharString name="endash">
          83 196 129 hstem
          90 45 callgsubr
        </CharString>
        <CharString name="endash.case">
          85 262 133 hstem
          90 45 callsubr
        </CharString>
        <CharString name="eng">
          38 -215 119 117 44 callgsubr
          hstemhm
          60 130 63 217 -130 130 hintmask 11010110
          273 -96 -40 callsubr
          -79 vlineto
          -11 9 -9 11 76 callsubr
          vhcurveto
          355 vlineto
          105 -80 81 -105 vhcurveto
          hintmask 11101101
          -60 -21 -35 -29 -22 1 24 -24 -63 callgsubr
          -356 vlineto
          -44 -30 -22 -37 vhcurveto
          endchar
        </CharString>
        <CharString name="eogonek">
          12 -199 -21 209 121 100 111 72 118 hstemhm
          165 173 -93 114 -114 194 -101 119 hintmask 11111000
          422 72 rmoveto
          20 28 6 19 7 28 rrcurveto
          16 4 -11 6 -10 hhcurveto
          -83 hlineto
          -9 -9 -4 -13 -5 hvcurveto
          -38 callgsubr
          257 hlineto
          hintmask 11110001
          -34 callgsubr
          -122 -72 -81 -105 -13 vhcurveto
          -13 callsubr
          122 hhcurveto
          5 hlineto
          hintmask 11110010
          -8 -15 -5 -22 -17 vvcurveto
          -101 74 -54 100 -100 callsubr
          vhcurveto
          39 callsubr
          hintmask 11110100
          -33 -27 27 33 60 37 36 26 36 hvcurveto
          -256 258 rmoveto
          38 30 25 57 vhcurveto
          hintmask 11111000
          43 42 -20 -43 -6 -4 -3 -6 hvcurveto
          -152 hlineto
          -6 -4 3 6 hvcurveto
          endchar
        </CharString>
        <CharString name="equal">
          53 87 127 72 127 hstem
          470 286 59 callgsubr
          57 callsubr
          -400 -105 callsubr
          -87 -103 callgsubr
          400 -199 59 callgsubr
          57 callsubr
          -400 -105 callsubr
          -87 51 callsubr
        </CharString>
        <CharString name="equal.case">
          53 152 131 70 131 hstem
          470 353 59 callgsubr
          91 -96 callgsubr
          -400 -105 callsubr
          -91 -103 callgsubr
          400 -201 59 callgsubr
          91 -96 callgsubr
          -400 -105 callsubr
          -91 51 callsubr
        </CharString>
        <CharString name="equal.denominator">
          31 66 callsubr
          138 -43 callsubr
          200 -107 -43 callsubr
          endchar
        </CharString>
        <CharString name="equal.numerator">
          377 66 callsubr
          484 -43 callsubr
          200 -107 -43 callsubr
          endchar
        </CharString>
        <CharString name="equalinferior">
          -151 66 callsubr
          -44 rmoveto
          -69 callsubr
          hvcurveto
          61 -50 callsubr
          -200 hlineto
          -5 2 callsubr
          81 callsubr
          200 -107 rmoveto
          -69 callsubr
          hvcurveto
          61 vlineto
          15 callgsubr
          -200 hlineto
          -5 -5 -5 -5 81 callsubr
          endchar
        </CharString>
        <CharString name="equalsuperior">
          377 66 callsubr
          484 -43 callsubr
          200 -107 -43 callsubr
          endchar
        </CharString>
        <CharString name="estimated">
          107 -10 110 -110 170 91 101 118 110 hstemhm
          178 246 0 120 hintmask 01110100
          306 100 rmoveto
          -76 -46 38 103 -9 hvcurveto
          -69 callsubr
          vhcurveto
          339 -107 callsubr
          63 vlineto
          191 -124 55 -114 -106 -111 -64 -143 -31 vhcurveto
          -11 -51 1 -85 10 -51 rrcurveto
          -135 27 94 -61 127 hhcurveto
          125 95 63 87 9 hvcurveto
          14 1 -8 6 -10 hhcurveto
          -76 hlineto
          -9 -5 -7 -10 -9 hvcurveto
          hintmask 10111000
          -33 -29 -34 -10 -50 hhcurveto
          -128 262 rmoveto
          68 50 40 76 82 38 -40 -68 -54 callgsubr
          -226 91 callsubr
        </CharString>
        <CharString name="esuperior">
          -234 344 66 -66 89 23 52 32 66 hstemhm
          hintmask 01110000
          95 447 rmoveto
          5 1 4 5 vhcurveto
          121 hlineto
          -69 callsubr
          hvcurveto
          42 vlineto
          64 -44 34 -59 -62 -35 -40 -52 -8 vhcurveto
          96 callsubr
          35 -40 62 hhcurveto
          58 29 31 46 16 hvcurveto
          9 3 -6 3 -5 hhcurveto
          -48 hlineto
          -5 -4 -3 -6 -3 hvcurveto
          hintmask 10110000
          -10 -8 -7 -4 -20 hhcurveto
          -23 -11 21 16 hvcurveto
          65 vmoveto
          11 9 17 24 24 8 -16 -12 -3 -2 -1 -3 vhcurveto
          -55 hlineto
          -3 -2 1 3 hvcurveto
          endchar
        </CharString>
        <CharString name="eth">
          63 -11 131 215 125 110 130 hstem
          27 134 vstem
          250 335 rmoveto
          14 callsubr
          -52 -33 34 52 -4 hvcurveto
          42 callgsubr
          89 328 rmoveto
          25 -35 -42 12 -48 hhcurveto
          -66 68 callgsubr
          63 hlineto
          5 6 -4 -6 -9 hvcurveto
          -15 -10 0 -7 -11 vvcurveto
          -40 vlineto
          -15 18 -6 10 7 vhcurveto
          67 46 3 2 4 0 3 -6 rlinecurve
          9 -16 7 -18 -23 vvcurveto
          -14 -12 -5 -11 6 vhcurveto
          7 -13 -21 3 -12 hhcurveto
          127 callgsubr
          83 -96 140 93 callsubr
          -11 38 -12 41 -17 27 -2 3 3 4 4 3 15 10 rcurveline
          9 7 4 4 13 vvcurveto
          61 vlineto
          13 -16 8 -9 -7 vhcurveto
          -72 -41 -4 -3 -3 1 -2 1 rlinecurve
          endchar
        </CharString>
        <CharString name="exclam">
          -224 0 160 540 -20 hstem
          62 140 vstem
          202 684 47 callgsubr
          -108 hlineto
          -9 -7 -8 -8 hvcurveto
          -451 vlineto
          -8 7 -8 9 vhcurveto
          108 35 callsubr
          9 -93 -64 callsubr
          endchar
        </CharString>
        <CharString name="exclamdown">
          -224 -179 -21 540 160 hstem
          60 140 vstem
          184 -200 rmoveto
          49 callsubr
          451 vlineto
          8 -7 8 -9 vhcurveto
          -108 hlineto
          -9 -7 -8 -8 hvcurveto
          -451 vlineto
          -8 7 -8 9 vhcurveto
          -26 560 rmoveto
          -104 callgsubr
          120 -107 callsubr
          120 -48 callsubr
          endchar
        </CharString>
        <CharString name="f">
          -82 -13 callgsubr
          vstem
          365 580 rmoveto
          11 9 9 11 hvcurveto
          90 vlineto
          11 -9 9 -11 vhcurveto
          -60 hlineto
          -104 -86 -79 -104 hvcurveto
          -20 vlineto
          -6 -4 -4 -6 vhcurveto
          -80 hlineto
          -11 -9 -9 -11 hvcurveto
          -80 vlineto
          -11 9 -9 11 vhcurveto
          80 0 callgsubr
        </CharString>
        <CharString name="f_f">
          230 -13 callgsubr
          182 130 vstem
          677 47 callsubr
          -162 -20 callgsubr
          60 hlineto
          -46 callsubr
          -60 -84 callsubr
          162 0 callgsubr
        </CharString>
        <CharString name="ff">
          230 -13 callgsubr
          182 130 vstem
          677 47 callsubr
          -162 -20 callgsubr
          60 hlineto
          -46 callsubr
          -60 -84 callsubr
          162 0 callgsubr
        </CharString>
        <CharString name="ffi">
          447 -13 callgsubr
          184 130 185 130 vstem
          854 54 callgsubr
          -235 hlineto
          -39 callsubr
          -164 -20 callgsubr
          60 hlineto
          -46 callsubr
          -60 -84 callsubr
          164 -75 callgsubr
          165 -67 callsubr
          -351 vlineto
          -8 7 -8 9 vhcurveto
          98 35 callsubr
          465 vlineto
          8 -7 8 -9 vhcurveto
          -289 -20 callgsubr
          endchar
        </CharString>
        <CharString name="ffl">
          466 -13 callgsubr
          183 130 200 130 vstem
          758 507 rmoveto
          -54 callgsubr
          -180 -20 callgsubr
          50 hlineto
          -46 callsubr
          -50 hlineto
          -39 callsubr
          -163 -20 callgsubr
          60 hlineto
          -46 callsubr
          -60 -84 callsubr
          163 -75 callgsubr
          180 -64 callgsubr
          670 -85 callgsubr
          endchar
        </CharString>
        <CharString name="fi">
          143 -13 callgsubr
          185 130 vstem
          430 16 rmoveto
          -8 7 -8 9 vhcurveto
          98 35 callsubr
          465 vlineto
          8 -7 8 -9 vhcurveto
          -289 -20 callgsubr
          235 hlineto
          -46 callsubr
          -235 -84 callsubr
          165 27 callsubr
        </CharString>
        <CharString name="five">
          67 -11 136 -136 219 135 126 95 136 hstemhm
          65 134 -120 133 162 135 hintmask 10111010
          65 188 rmoveto
          -135 104 -64 117 142 81 119 121 141 -89 99 -121 -31 -24 -8 -9 -13 vhcurveto
          hintmask 10110110
          3 callsubr
          65 23 -63 -51 -60 -28 -44 -60 hvcurveto
          hintmask 01111010
          -43 -44 18 45 11 -9 9 -11 hvcurveto
          -94 hlineto
          -11 -9 -7 -13 hvcurveto
          endchar
        </CharString>
        <CharString name="five.denominator">
          -183 -7 86 -86 116 39 88 29 85 hstemhm
          47 79 -79 215 -69 85 hintmask 10110100
          252 265 rmoveto
          -69 callsubr
          hvcurveto
          65 -50 callsubr
          -195 hlineto
          -5 2 callsubr
          hvcurveto
          -182 vlineto
          -5 -1 callsubr
          vhcurveto
          65 hlineto
          7 4 3 2 3 hvcurveto
          3 5 8 3 11 hhcurveto
          hintmask 10111010
          41 callsubr
          hintmask 01111010
          15 callgsubr
          -63 hlineto
          -5 2 callsubr
          -79 54 -27 63 80 39 66 58 -1 hvcurveto
          74 -1 -44 45 -67 hhcurveto
          -14 -8 -4 -2 -4 hvcurveto
          -3 -1 -5 -2 8 vvcurveto
          25 vlineto
          22 callgsubr
          endchar
        </CharString>
        <CharString name="five.numerator">
          -45 callgsubr
        </CharString>
        <CharString name="five.otlf">
          63 -11 136 -136 219 135 126 95 136 hstemhm
          53 134 -120 133 hintmask 01111000
          53 188 rmoveto
          -135 104 -64 117 123 93 96 123 6 vhcurveto
          1 22 0 10 -1 16 rrcurveto
          123 -8 -84 90 -123 hhcurveto
          -25 -24 -8 -9 -13 hvcurveto
          hintmask 01110100
          3 callsubr
          52 29 -40 -47 6 hvcurveto
          2 -16 0 -10 -2 -22 rrcurveto
          hintmask 10111000
          -47 -4 -31 -36 -52 hhcurveto
          -43 -44 18 45 hvcurveto
          hintmask 01111000
          -106 callsubr
          -94 hlineto
          -11 -9 -7 -13 hvcurveto
          endchar
        </CharString>
        <CharString name="fiveinferior">
          -183 -189 86 -86 116 39 88 29 85 hstemhm
          47 79 -79 215 -69 85 hintmask 10110100
          252 83 rmoveto
          -69 callsubr
          hvcurveto
          65 -50 callsubr
          -195 hlineto
          -5 2 callsubr
          hvcurveto
          -182 vlineto
          -5 -1 callsubr
          vhcurveto
          65 hlineto
          7 4 3 2 3 hvcurveto
          3 5 8 3 11 hhcurveto
          hintmask 10111010
          41 callsubr
          hintmask 01111010
          15 callgsubr
          -63 hlineto
          -5 2 callsubr
          -79 54 -27 63 80 39 66 58 -1 hvcurveto
          74 -1 -44 45 -67 hhcurveto
          -14 -8 -4 -2 -4 hvcurveto
          -3 -1 -5 -2 8 vvcurveto
          25 vlineto
          22 callgsubr
          endchar
        </CharString>
        <CharString name="fivesuperior">
          -45 callgsubr
        </CharString>
        <CharString name="fl">
          153 -13 callgsubr
          200 130 vstem
          445 20 110 callgsubr
          670 -85 callgsubr
          -183 -65 callsubr
          -180 -20 callgsubr
          50 hlineto
          -46 callsubr
          -50 -84 callsubr
          180 27 callsubr
        </CharString>
        <CharString name="florin">
          -74 -200 130 447 120 83 130 hstemhm
          30 215 -130 130 hintmask 11101000
          115 -10 rmoveto
          -43 -16 -17 -27 vhcurveto
          -23 hlineto
          hintmask 11110000
          -11 -8 -9 -11 hvcurveto
          -90 -103 callgsubr
          41 hlineto
          116 38 65 125 hvcurveto
          377 -80 callgsubr
          100 -58 callgsubr
          -100 hlineto
          -6 -4 4 6 hvcurveto
          18 31 callgsubr
          -98 callgsubr
          hvcurveto
          -80 79 callgsubr
          6 4 -4 -6 hvcurveto
          endchar
        </CharString>
        <CharString name="four">
          30 131 callgsubr
          290 130 vstem
          170 251 rmoveto
          -7 -3 5 7 4 hvcurveto
          115 213 rlineto
          3 5 8 -1 -7 vvcurveto
          -212 -65 callsubr
          -239 36 rmoveto
          -8 -13 -8 -11 -14 vvcurveto
          -104 -103 callgsubr
          235 hlineto
          6 4 -4 -6 hvcurveto
          -95 -101 callgsubr
          95 -80 callgsubr
          37 -107 callsubr
          86 -96 callgsubr
          -37 -80 callsubr
          419 -96 callgsubr
          -107 hlineto
          -11 -4 -3 -11 -6 hvcurveto
          endchar
        </CharString>
        <CharString name="four.denominator">
          -215 21 1 callsubr
          139 -86 callsubr
        </CharString>
        <CharString name="four.numerator">
          -215 371 1 callsubr
          489 -86 callsubr
        </CharString>
        <CharString name="four.otlf">
          63 131 callgsubr
          309 130 vstem
          449 251 rmoveto
          -6 -4 4 6 hvcurveto
          419 -96 callgsubr
          -107 hlineto
          -11 -4 -3 -11 -6 hvcurveto
          -231 -399 rlineto
          -8 -13 -8 -11 -14 vvcurveto
          -104 -103 callgsubr
          235 hlineto
          6 4 -4 -6 hvcurveto
          -95 -101 callgsubr
          95 -80 callgsubr
          37 -107 callsubr
          86 -96 callgsubr
          -188 225 rmoveto
          3 5 8 -1 -7 vvcurveto
          -212 -65 callsubr
          -110 hlineto
          -7 -3 5 7 4 hvcurveto
          endchar
        </CharString>
        <CharString name="fourinferior">
          -215 -161 1 callsubr
          -43 -86 callsubr
        </CharString>
        <CharString name="foursuperior">
          -215 371 1 callsubr
          489 -86 callsubr
        </CharString>
        <CharString name="fraction">
          -287 83 callsubr
          365 33 callsubr
          endchar
        </CharString>
        <CharString name="fsuperior">
          -252 367 -21 175 69 37 76 hstemhm
          3 220 -162 85 hintmask 11110000
          213 627 rmoveto
          -5 callgsubr
          56 vlineto
          15 callgsubr
          -55 hlineto
          hintmask 11101000
          -51 -46 -38 -52 hvcurveto
          -18 92 callgsubr
          -49 -12 callsubr
          43 hlineto
          hintmask 11101000
          3 2 -2 -3 hvcurveto
          -160 vlineto
          -5 4 -5 6 vhcurveto
          65 -32 callsubr
          160 vlineto
          22 callgsubr
          69 34 callsubr
          49 58 callsubr
          -69 hlineto
          72 callsubr
          16 vlineto
          8 6 8 6 vhcurveto
          endchar
        </CharString>
        <CharString name="g">
          -14 callsubr
          hstemhm
          45 130 151 129 hintmask 01101011
          -82 callgsubr
          hintmask 10110111
          -44 -36 -22 -37 -40 -25 19 24 -5 vhcurveto
          hintmask 01110111
          -57 callgsubr
          hintmask 10101011
          -29 -8 34 -74 hhcurveto
          endchar
        </CharString>
        <CharString name="gbreve">
          -14 callsubr
          87 65 callgsubr
          45 130 -61 97 115 103 -103 129 hintmask 0110101010100000
          -82 callgsubr
          hintmask 1011011010100000
          -44 -36 -22 -37 -40 -25 19 24 -5 vhcurveto
          hintmask 0111011010010000
          -57 callgsubr
          hintmask 1010101001100000
          -29 -8 34 -74 hhcurveto
          97 202 -12 callgsubr
          hintmask 1011010101100000
          104 callgsubr
          vhcurveto
          -78 callgsubr
          endchar
        </CharString>
        <CharString name="gcircumflex">
          -14 callsubr
          250 96 callgsubr
          hintmask 0110101110000000
          -82 callgsubr
          hintmask 1011011110000000
          -44 -36 -22 -37 -40 -25 19 24 -5 vhcurveto
          hintmask 0111011110000000
          -57 callgsubr
          hintmask 1010101110000000
          -29 -8 34 -74 hhcurveto
          29 119 rmoveto
          -107 callgsubr
        </CharString>
        <CharString name="gcommaaccent">
          -14 callsubr
          356 -20 hstemhm
          45 130 23 140 -12 129 hintmask 0110101101000000
          -82 callgsubr
          hintmask 1011011110000000
          -44 -36 -22 -37 -40 -25 19 24 -5 vhcurveto
          hintmask 0111011101000000
          -57 callgsubr
          hintmask 1010101110000000
          -29 -8 34 -74 hhcurveto
          63 325 4 callsubr
        </CharString>
        <CharString name="gdotaccent">
          -14 callsubr
          90 140 hstemhm
          45 130 26 140 -15 129 hintmask 0110101101000000
          -82 callgsubr
          hintmask 1011011110000000
          -44 -36 -22 -37 -40 -25 19 24 -5 vhcurveto
          hintmask 0111011101000000
          -57 callgsubr
          hintmask 1010101110000000
          -29 -8 34 -74 hhcurveto
          106 183 -92 callsubr
          endchar
        </CharString>
        <CharString name="germandbls">
          50 0 131 162 129 156 131 hstem
          65 131 166 140 vstem
          279 hmoveto
          123 100 80 128 59 -25 48 -35 36 hvcurveto
          -8 8 1 6 6 8 rrcurveto
          28 34 23 44 50 vvcurveto
          117 -95 91 -118 -117 -97 -91 -117 vhcurveto
          -481 -103 callgsubr
          91 -107 callsubr
          481 vlineto
          48 33 29 50 50 33 -32 -45 -46 -37 -33 -46 vhcurveto
          -12 -105 callsubr
          -89 -103 callgsubr
          12 hlineto
          52 40 -28 -57 -52 -40 -25 -52 hvcurveto
          -16 -105 callsubr
          -91 51 callsubr
        </CharString>
        <CharString name="grave">
          -126 570 160 hstem
          68 730 -93 callgsubr
          endchar
        </CharString>
        <CharString name="greater">
          -7 -1 502 hstemhm
          50 400 -180 180 hintmask 11000000
          65 145 94 callsubr
          hintmask 10100000
          23 callgsubr
          endchar
        </CharString>
        <CharString name="greater.case">
          -7 67 502 hstem
          50 400 vstem
          65 219 rmoveto
          -10 -5 -5 -7 -9 vvcurveto
          -111 vlineto
          -16 14 -8 9 5 vhcurveto
          362 204 rlineto
          9 5 6 8 20 vvcurveto
          27 vlineto
          20 -6 8 -9 5 vhcurveto
          -362 203 rlineto
          -9 5 -14 -8 -16 vvcurveto
          -111 vlineto
          -9 5 -7 10 -5 vhcurveto
          194 -95 4 -2 0 -4 -4 -2 rlinecurve
          endchar
        </CharString>
        <CharString name="greaterequal">
          47 0 129 hstem
          88 315 94 callsubr
          23 callgsubr
          -220 -287 9 callgsubr
        </CharString>
        <CharString name="gsuperior">
          -220 241 65 -65 97 12 71 185 -20 hstemhm
          25 73 57 80 hintmask 10111100
          194 600 rmoveto
          -3 -2 -2 -2 -2 hvcurveto
          -3 -3 -4 -4 -5 -15 -3 17 -37 hhcurveto
          -53 -38 68 callsubr
          32 -33 53 hhcurveto
          9 12 4 5 6 hvcurveto
          7 5 7 5 -10 vvcurveto
          -24 vlineto
          -22 -15 -7 -14 -16 -12 9 10 vhcurveto
          hintmask 01111100
          8 1 5 -13 vhcurveto
          -48 hlineto
          -4 -7 -5 -4 hvcurveto
          -48 -6 51 -40 59 hhcurveto
          60 44 42 52 hvcurveto
          255 -50 callsubr
          -96 -71 rmoveto
          17 5 -2 -13 95 callsubr
          -11 -1 -5 -4 -17 hhcurveto
          38 callgsubr
          endchar
        </CharString>
        <CharString name="guillemotleft">
          40 91 88 callgsubr
          56 274 -17 callsubr
          20 13 -10 13 -19 hhcurveto
          -80 69 callsubr
          102 -161 -17 callsubr
          21 12 -9 12 -19 hhcurveto
          -80 69 callsubr
          endchar
        </CharString>
        <CharString name="guillemotleft.case">
          45 24 callsubr
          86 145 rlineto
          20 12 -10 13 -19 hhcurveto
          -84 69 callsubr
          105 -161 -18 callgsubr
          84 hlineto
          19 9 12 21 -12 hvcurveto
          -85 145 -6 10 0 5 6 118 callgsubr
          -84 69 callsubr
          endchar
        </CharString>
        <CharString name="guillemotright">
          40 91 88 callgsubr
          375 435 -31 callsubr
          -294 161 -31 callsubr
          endchar
        </CharString>
        <CharString name="guillemotright.case">
          45 159 88 callgsubr
          380 503 41 callgsubr
          5 -9 1 -5 -6 -10 rlinecurve
          -86 -145 rlineto
          -21 -12 10 -12 19 hhcurveto
          84 -18 callsubr
          -297 161 41 callgsubr
          6 -9 0 -5 -6 -10 rlinecurve
          -85 -145 rlineto
          -21 -12 9 -12 19 hhcurveto
          84 -18 callsubr
          endchar
        </CharString>
        <CharString name="guilsinglleft">
          -158 91 88 callgsubr
          56 274 -17 callsubr
          21 12 -9 12 -19 hhcurveto
          -80 69 callsubr
          endchar
        </CharString>
        <CharString name="guilsinglleft.case">
          -156 24 callsubr
          85 145 rlineto
          21 12 -9 12 -19 hhcurveto
          -84 69 callsubr
          endchar
        </CharString>
        <CharString name="guilsinglright">
          -158 91 88 callgsubr
          177 435 -31 callsubr
          endchar
        </CharString>
        <CharString name="guilsinglright.case">
          -156 159 88 callgsubr
          179 503 41 callgsubr
          6 -9 0 -5 -6 -10 rlinecurve
          -85 -145 rlineto
          -21 -12 9 -12 19 hhcurveto
          84 -18 callsubr
          endchar
        </CharString>
        <CharString name="h">
          43 21 -21 385 126 199 -24 callsubr
          endchar
        </CharString>
        <CharString name="hbar">
          48 21 -21 385 126 46 90 63 -20 hstem
          70 -2 callsubr
          vstem
          210 557 rmoveto
          60 -107 callsubr
          50 -96 callgsubr
          -60 -80 callsubr
          33 -85 callgsubr
          -33 -65 callsubr
          -15 -105 callsubr
          -50 -103 callgsubr
          15 -67 callsubr
          -527 14 callgsubr
          48 48 27 -27 -33 vhcurveto
          -305 vlineto
          48 callsubr
          -85 81 -105 -30 -16 -7 -5 -14 vhcurveto
          -19 -7 -11 11 17 vvcurveto
          27 119 callgsubr
        </CharString>
        <CharString name="hcircumflex">
          43 21 -21 385 126 199 -20 220 -24 callsubr
          -90 485 rmoveto
          -107 callgsubr
        </CharString>
        <CharString name="hsuperior">
          -213 371 -21 179 77 -77 177 hstemhm
          35 80 51 80 hintmask 11011000
          105 350 rmoveto
          -5 callgsubr
          153 vlineto
          9 7 7 19 18 7 -5 -10 vhcurveto
          -154 vlineto
          -5 -1 callsubr
          vhcurveto
          60 -19 callgsubr
          154 vlineto
          53 -29 39 -47 -15 -17 -9 -4 -8 vhcurveto
          -10 -5 -5 5 12 vvcurveto
          91 vlineto
          hintmask 10111000
          6 -4 4 -6 vhcurveto
          -60 hlineto
          -5 2 callsubr
          hvcurveto
          -336 vlineto
          -5 -1 callsubr
          vhcurveto
          endchar
        </CharString>
        <CharString name="hungarumlaut">
          21 570 160 hstem
          150 730 -79 callsubr
        </CharString>
        <CharString name="hyphen">
          -74 198 139 hstem
          70 337 -40 callsubr
          -99 -103 callgsubr
          273 -107 callsubr
          99 -11 callgsubr
        </CharString>
        <CharString name="hyphen.case">
          -78 264 143 hstem
          68 407 -40 callsubr
          -103 -103 callgsubr
          273 -107 callsubr
          103 -11 callgsubr
        </CharString>
        <CharString name="i">
          -227 22 callsubr
          90 140 hstem
          65 130 vstem
          200 694 -92 callsubr
          -5 -102 -70 callgsubr
          endchar
        </CharString>
        <CharString name="iacute">
          22 callsubr
          90 160 130 callgsubr
          170 -14 callgsubr
          -77 -246 -70 callgsubr
          endchar
        </CharString>
        <CharString name="ibreve">
          22 callsubr
          87 65 callgsubr
          -22 97 -5 130 hintmask 11101000
          196 713 -12 callgsubr
          hintmask 11011000
          104 callgsubr
          vhcurveto
          -78 callgsubr
          hintmask 11100100
          4 -229 -70 callgsubr
          endchar
        </CharString>
        <CharString name="icircumflex">
          22 callsubr
          250 -20 130 callgsubr
          200 484 -70 callgsubr
          -72 614 rmoveto
          -107 callgsubr
        </CharString>
        <CharString name="idieresis">
          22 callsubr
          100 130 hstemhm
          -30 130 -30 130 -30 130 hintmask 11110100
          100 690 -100 callgsubr
          hintmask 11101000
          -100 -116 -70 callgsubr
          endchar
        </CharString>
        <CharString name="igrave">
          22 callsubr
          90 160 130 callgsubr
          -17 730 -93 callgsubr
          110 -246 -70 callgsubr
          endchar
        </CharString>
        <CharString name="ij">
          33 -215 119 117 -6 callgsubr
          90 140 hstem
          70 130 80 130 vstem
          205 694 -92 callsubr
          -5 -102 -70 callgsubr
          80 -46 -23 callgsubr
          135 214 -92 callsubr
          endchar
        </CharString>
        <CharString name="imacron">
          22 callsubr
          116 98 130 callgsubr
          4 694 -74 callsubr
          -66 -210 -70 callgsubr
          endchar
        </CharString>
        <CharString name="infinity">
          346 72 114 146 113 hstem
          26 119 546 118 vstem
          809 259 rmoveto
          110 -75 76 -111 -77 -62 -48 -53 -57 vhcurveto
          -8 -8 -8 3 -4 5 rrcurveto
          55 -56 -66 46 -73 hhcurveto
          -110 -76 -76 -110 -110 76 -77 110 78 61 50 51 54 hvcurveto
          8 8 9 -2 5 -6 rrcurveto
          -58 55 68 -43 73 hhcurveto
          111 75 77 110 hvcurveto
          -118 hmoveto
          -47 -38 -26 -35 -45 -45 44 29 -29 vhcurveto
          30 29 45 43 45 hhcurveto
          35 38 -27 -46 hvcurveto
          -355 hmoveto
          -32 -31 -44 -41 -44 hhcurveto
          -35 -37 26 47 46 37 27 35 44 44 -41 -32 31 hvcurveto
          endchar
        </CharString>
        <CharString name="integral">
          -107 -200 112 683 112 hstemhm
          14 230 -120 120 hintmask 11010000
          124 -13 rmoveto
          -53 -21 -22 -59 vhcurveto
          -10 hlineto
          hintmask 11100000
          -104 callsubr
          -72 -103 callgsubr
          10 hlineto
          114 86 67 120 hvcurveto
          533 vlineto
          56 24 19 56 vhcurveto
          10 hlineto
          hintmask 11010000
          -105 callgsubr
          72 -96 callgsubr
          -10 hlineto
          -114 -86 -67 -120 hvcurveto
          endchar
        </CharString>
        <CharString name="iogonek">
          -199 -21 241 -6 callgsubr
          90 140 hstemhm
          6 114 -50 130 hintmask 11110100
          205 694 -92 callsubr
          -21 -586 rmoveto
          49 callsubr
          468 vlineto
          8 -7 8 -9 vhcurveto
          -98 hlineto
          -9 -7 -8 -8 hvcurveto
          -418 vlineto
          hintmask 11111000
          -38 -28 -26 -42 -56 vvcurveto
          -110 74 -50 100 vhcurveto
          hintmask 11110100
          46 callsubr
          hintmask 11111000
          71 callsubr
          endchar
        </CharString>
        <CharString name="isuperior">
          -341 371 -21 277 80 hstem
          31 84 vstem
          118 699 rmoveto
          4 -3 4 -5 vhcurveto
          -74 hlineto
          -4 -4 -4 -4 hvcurveto
          -64 vlineto
          -4 4 -4 4 vhcurveto
          74 hlineto
          5 3 4 4 hvcurveto
          -3 -41 rmoveto
          3 -3 3 -3 vhcurveto
          -72 hlineto
          -4 -2 -3 -3 hvcurveto
          -238 vlineto
          -2 2 -4 4 vhcurveto
          72 hlineto
          3 3 4 2 hvcurveto
          endchar
        </CharString>
        <CharString name="itilde">
          22 callsubr
          125 125 callsubr
          70 130 hintmask 11101000
          225 684 rmoveto
          hintmask 11011000
          -68 callgsubr
          hintmask 11101000
          -67 callgsubr
          -25 -200 -70 callgsubr
          endchar
        </CharString>
        <CharString name="j">
          -227 -215 119 596 -20 90 140 hstem
          60 130 vstem
          60 -30 -23 callgsubr
          135 214 -92 callsubr
          endchar
        </CharString>
        <CharString name="jcircumflex">
          -177 -215 119 596 -20 250 -20 hstem
          115 130 vstem
          115 -30 -23 callgsubr
          57 150 rmoveto
          -107 callgsubr
        </CharString>
        <CharString name="jsuperior">
          -351 261 -21 387 80 hstemhm
          -38 138 -84 84 hintmask 11010000
          16 335 rmoveto
          -17 -16 -4 -12 vhcurveto
          -16 hlineto
          hintmask 11100000
          -34 callsubr
          hvcurveto
          -54 vlineto
          -5 4 -5 6 vhcurveto
          22 hlineto
          60 46 43 52 hvcurveto
          255 13 callsubr
          -64 hlineto
          hintmask 11010000
          -5 2 callsubr
          hvcurveto
          87 109 rmoveto
          4 -4 4 -4 vhcurveto
          -74 hlineto
          -5 -3 -4 -4 hvcurveto
          -64 vlineto
          -4 3 -4 5 vhcurveto
          74 hlineto
          4 4 4 4 hvcurveto
          endchar
        </CharString>
        <CharString name="k">
          4 22 callsubr
          230 -20 hstem
          65 130 vstem
          -30 callsubr
          endchar
        </CharString>
        <CharString name="kcommaaccent">
          4 84 callsubr
          500 -20 230 -20 hstemhm
          65 130 -13 140 hintmask 11111000
          -30 callsubr
          -90 -587 -2 callgsubr
          hintmask 11110100
          -101 callsubr
        </CharString>
        <CharString name="kgreenlandic">
          4 119 callsubr
          65 130 vstem
          461 467 rmoveto
          11 9 -4 22 -21 hhcurveto
          -99 hlineto
          -15 -6 -7 -6 -4 hvcurveto
          -116 -159 rlineto
          -3 -4 -7 1 6 vvcurveto
          149 vlineto
          11 -9 9 -11 vhcurveto
          -90 hlineto
          -11 -9 -9 -11 hvcurveto
          -460 16 callgsubr
          endchar
        </CharString>
        <CharString name="ksuperior">
          -215 350 250 107 -20 hstem
          33 85 vstem
          260 584 rmoveto
          5 4 -2 11 -10 hhcurveto
          -71 hlineto
          -7 -4 -3 -3 -1 hvcurveto
          -45 -74 rlineto
          -1 -2 -5 0 4 vvcurveto
          175 vlineto
          52 callsubr
          87 vlineto
          3 5 1 1 -2 vhcurveto
          49 -92 rlineto
          -3 2 4 -4 8 hhcurveto
          70 hlineto
          10 3 9 7 -5 hvcurveto
          -63 111 -6 9 0 2 5 7 rlinecurve
          endchar
        </CharString>
        <CharString name="l">
          -227 21 -21 710 -20 hstem
          65 130 vstem
          195 690 -32 callgsubr
          endchar
        </CharString>
        <CharString name="lacute">
          21 -21 710 -20 60 160 hstem
          65 130 vstem
          195 690 -32 callgsubr
          -13 890 rmoveto
          -45 callsubr
        </CharString>
        <CharString name="lcaron">
          -101 13 callgsubr
          30 -20 hstemhm
          65 130 74 140 hintmask 10111000
          195 690 -32 callgsubr
          114 420 -2 callgsubr
          12 18 10 25 26 vvcurveto
          hintmask 11011000
          97 vlineto
          11 -9 9 -11 vhcurveto
          -100 9 callsubr
          24 hlineto
          6 7 -6 -7 -4 hvcurveto
          -34 -69 rlineto
          -18 -9 10 -20 20 hhcurveto
          endchar
        </CharString>
        <CharString name="lcommaaccent">
          84 callsubr
          710 -20 hstem
          65 130 vstem
          205 -65 rmoveto
          11 -9 9 -11 vhcurveto
          -100 9 callsubr
          24 hlineto
          6 7 -6 -7 -4 hvcurveto
          -34 -69 rlineto
          -18 -9 10 -20 20 hhcurveto
          -60 callgsubr
          12 18 10 25 26 vvcurveto
          -10 852 -32 callgsubr
          endchar
        </CharString>
        <CharString name="ldot">
          -70 21 -21 240 140 330 -20 hstem
          65 130 65 140 vstem
          195 690 -32 callgsubr
          205 344 -92 callsubr
          endchar
        </CharString>
        <CharString name="less">
          -7 -1 502 hstemhm
          30 180 -180 400 hintmask 10100000
          hintmask 11000000
          213 246 -5 callsubr
          endchar
        </CharString>
        <CharString name="less.case">
          -7 67 502 hstem
          30 400 vstem
          221 314 rmoveto
          -4 2 0 4 4 2 194 96 rcurveline
          10 5 5 6 9 vvcurveto
          111 vlineto
          16 -14 8 -9 -5 vhcurveto
          -362 -203 rlineto
          -9 -5 -6 -8 -20 vvcurveto
          -27 vlineto
          -20 6 -8 9 -5 vhcurveto
          362 -204 rlineto
          9 -5 14 8 16 vvcurveto
          111 vlineto
          9 -5 7 -10 5 vhcurveto
          endchar
        </CharString>
        <CharString name="lessequal">
          47 0 129 hstem
          244 416 -5 callsubr
          -376 -186 9 callgsubr
        </CharString>
        <CharString name="logicalnot">
          43 70 230 -130 130 hstemhm
          350 130 hintmask 10100000
          350 90 110 callgsubr
          190 -96 callgsubr
          -390 81 callgsubr
          hintmask 01100000
          -104 callgsubr
          270 27 callsubr
        </CharString>
        <CharString name="logicalnot.case">
          43 136 232 -135 135 hstemhm
          345 135 hintmask 10100000
          345 156 rmoveto
          -104 callgsubr
          95 -107 callsubr
          192 -96 callgsubr
          -390 -105 callsubr
          -95 vlineto
          hintmask 01100000
          -104 callgsubr
          265 27 callsubr
        </CharString>
        <CharString name="longs">
          -97 21 -21 377 120 83 130 hstemhm
          5 240 -130 130 hintmask 11110000
          115 20 110 callgsubr
          505 31 callgsubr
          hintmask 11110000
          -104 callsubr
          -80 79 callgsubr
          hintmask 11101000
          -66 callsubr
          endchar
        </CharString>
        <CharString name="lozenge">
          119 21 -21 710 -20 hstem
          256 15 rmoveto
          -9 5 8 -6 19 hhcurveto
          29 hlineto
          19 8 6 9 5 hvcurveto
          204 332 4 6 -1 5 -3 5 rlinecurve
          -204 332 rlineto
          9 -5 -8 6 -19 hhcurveto
          -29 hlineto
          -19 -8 -6 -9 -5 hvcurveto
          -203 -332 -3 -4 0 -7 3 -5 rlinecurve
          355 8 rmoveto
          -101 -172 -2 -4 -4 0 -2 4 rlinecurve
          -101 172 101 172 2 4 4 0 2 -4 rlinecurve
          endchar
        </CharString>
        <CharString name="lslash">
          -181 21 -21 710 -20 hstemhm
          6 194 -130 130 -130 221 hintmask 11010000
          200 93 callgsubr
          -355 vlineto
          -4 -3 -5 -3 -1 vhcurveto
          -32 -19 rlineto
          hintmask 11100000
          -15 -9 -11 -9 -17 vvcurveto
          -68 vlineto
          -20 21 -8 13 8 vhcurveto
          23 13 rlineto
          hintmask 11010000
          3 2 4 -1 -5 vvcurveto
          -172 -101 callgsubr
          253 vlineto
          4 3 6 4 2 vhcurveto
          63 40 rlineto
          hintmask 11001000
          15 9 6 7 17 vvcurveto
          74 vlineto
          17 -15 9 -15 -9 vhcurveto
          -51 -34 rlineto
          hintmask 11010000
          1 callgsubr
          5 3 vvcurveto
          endchar
        </CharString>
        <CharString name="lsuperior">
          -336 371 -21 357 -20 hstem
          33 85 vstem
          118 697 rmoveto
          52 callsubr
          endchar
        </CharString>
        <CharString name="m">
          283 21 -21 385 89 -89 126 -11 -20 hstemhm
          60 130 135 130 135 130 cntrmask 00001110
          hintmask 10101110
          590 20 rmoveto
          48 callsubr
          -80 81 -105 vhcurveto
          hintmask 11011110
          -47 -33 -19 -18 -27 hvcurveto
          -15 -10 -17 0 -13 10 rrcurveto
          hintmask 10101110
          20 -26 -28 17 -47 hhcurveto
          hintmask 11011110
          -58 -20 -37 -29 hhcurveto
          -15 -4 11 8 -8 hvcurveto
          4 -4 -6 3 -9 callgsubr
          310 vlineto
          30 28 25 42 43 22 -26 -33 vhcurveto
          -306 14 callgsubr
          43 43 22 -26 -33 vhcurveto
          endchar
        </CharString>
        <CharString name="macron">
          39 596 98 hstem
          132 694 -74 callsubr
          endchar
        </CharString>
        <CharString name="minus">
          63 196 129 hstem
          70 45 callgsubr
        </CharString>
        <CharString name="minus.case">
          67 262 133 hstem
          70 45 callsubr
        </CharString>
        <CharString name="minus.denominator">
          -197 90 81 hstem
          35 171 8 callsubr
        </CharString>
        <CharString name="minus.numerator">
          -197 436 81 hstem
          35 517 8 callsubr
        </CharString>
        <CharString name="minusinferior">
          -197 -93 82 hstem
          35 -11 rmoveto
          -5 -5 -5 -5 hvcurveto
          -62 vlineto
          -5 -1 callsubr
          vhcurveto
          220 -19 callgsubr
          62 vlineto
          15 callgsubr
          endchar
        </CharString>
        <CharString name="minussuperior">
          -197 436 81 hstem
          35 517 8 callsubr
        </CharString>
        <CharString name="msuperior">
          -101 371 -21 185 71 hstem
          30 85 44 75 44 85 cntrmask 00111000
          278 360 rmoveto
          -5 -1 callsubr
          vhcurveto
          65 -19 callgsubr
          155 vlineto
          50 -33 41 -63 -18 -15 -4 -9 -16 vhcurveto
          -7 -4 -13 0 -5 4 rrcurveto
          11 -15 -11 2 -21 -28 -11 -20 -13 hhcurveto
          -9 -1 6 5 -5 hvcurveto
          2 -2 -4 1 -5 hhcurveto
          -28 hlineto
          -5 2 callsubr
          hvcurveto
          -230 vlineto
          -5 -1 callsubr
          vhcurveto
          65 -19 callgsubr
          158 vlineto
          7 11 10 12 15 6 -12 -7 vhcurveto
          -156 vlineto
          -5 4 -5 6 vhcurveto
          55 -19 callgsubr
          153 vlineto
          10 10 12 13 12 9 -12 -7 vhcurveto
          endchar
        </CharString>
        <CharString name="mu">
          -43 callgsubr
        </CharString>
        <CharString name="multiply">
          19 47 406 hstem
          50 405 vstem
          119 53 rmoveto
          7 -7 14 -1 7 8 98 99 rcurveline
          -38 callsubr
          0 4 -4 99 -99 rcurveline
          8 -8 13 0 8 8 63 63 rcurveline
          7 7 0 13 -7 8 -99 99 rcurveline
          -5 4 0 6 5 4 99 99 rcurveline
          7 8 0 13 -7 7 -63 63 rcurveline
          -8 8 -13 0 -8 -8 -99 -99 rcurveline
          -4 -4 -6 0 -4 4 -98 99 rcurveline
          -7 8 -14 -1 -7 -7 -63 -63 97 callsubr
          98 -98 rcurveline
          4 -4 0 1 callgsubr
          -98 -98 97 callsubr
          rrcurveto
          endchar
        </CharString>
        <CharString name="multiply.case">
          22 114 409 hstem
          50 408 vstem
          122 119 rmoveto
          7 -7 14 0 7 7 97 98 rcurveline
          -38 callsubr
          0 4 -4 97 -97 rcurveline
          8 -8 13 0 8 8 66 66 rcurveline
          7 7 0 13 -7 8 -97 97 rcurveline
          -5 4 0 6 5 4 97 98 rcurveline
          7 7 0 13 -7 7 -66 67 rcurveline
          -8 8 -13 0 -8 -8 -97 -98 rcurveline
          -4 -4 -6 0 -4 4 -96 98 rcurveline
          -7 8 -15 -1 -7 -7 -66 -67 97 callsubr
          96 -96 rcurveline
          4 -4 0 1 callgsubr
          -96 -96 97 callsubr
          rrcurveto
          endchar
        </CharString>
        <CharString name="n">
          38 callsubr
          hstemhm
          60 -2 callsubr
          hintmask 10101100
          31 callsubr
          hintmask 11011100
          -60 -21 -35 -29 hhcurveto
          -14 -5 10 7 -8 hvcurveto
          4 -4 -5 3 -9 -63 callgsubr
          -306 -101 callgsubr
          endchar
        </CharString>
        <CharString name="nacute">
          38 callsubr
          90 160 hstemhm
          60 -2 callsubr
          hintmask 10101110
          31 callsubr
          hintmask 11011110
          -60 -21 -35 -29 hhcurveto
          -14 -5 10 7 -8 hvcurveto
          4 -4 -5 3 -9 -63 callgsubr
          -306 -101 callgsubr
          -162 710 rmoveto
          -45 callsubr
        </CharString>
        <CharString name="napostrophe">
          38 callsubr
          220 -20 hstemhm
          -53 140 -27 -2 callsubr
          hintmask 10101101
          31 callsubr
          hintmask 11011011
          -60 -21 -35 -29 hhcurveto
          -14 -5 10 7 -8 hvcurveto
          4 -4 -5 3 -9 -63 callgsubr
          -306 -101 callgsubr
          -483 420 -2 callgsubr
          hintmask 11011101
          -101 callsubr
        </CharString>
        <CharString name="ncaron">
          38 callsubr
          250 -20 hstemhm
          60 -2 callsubr
          hintmask 10101110
          31 callsubr
          hintmask 11011110
          -60 -21 -35 -29 hhcurveto
          -14 -5 10 7 -8 hvcurveto
          4 -4 -5 3 -9 -63 callgsubr
          -306 -101 callgsubr
          -250 694 -102 callgsubr
        </CharString>
        <CharString name="ncommaaccent">
          38 -284 -21 326 44 callgsubr
          hstemhm
          60 130 2 140 8 130 hintmask 11010111
          31 callsubr
          hintmask 11101111
          -60 -21 -35 -29 hhcurveto
          -14 -5 10 7 -8 hvcurveto
          4 -4 -5 3 -9 -63 callgsubr
          -306 -101 callgsubr
          -238 -325 -2 callgsubr
          -101 callsubr
        </CharString>
        <CharString name="nine">
          56 -11 131 -131 217 32 128 217 128 hstemhm
          hintmask 10110000
          349 504 rmoveto
          111 callgsubr
          62 callsubr
          -87 -384 rmoveto
          -54 -26 31 35 -8 hvcurveto
          104 callsubr
          -112 95 -85 125 123 86 97 120 14 hvcurveto
          10 84 0 120 58 callgsubr
          97 -126 hhcurveto
          -118 -90 -93 -117 -6 hvcurveto
          -1 -21 0 -10 1 -18 rrcurveto
          -119 7 89 -95 117 hhcurveto
          30 38 10 5 14 hvcurveto
          11 4 13 -3 -14 vvcurveto
          -22 -3 -19 -5 -15 vhcurveto
          hintmask 10110000
          -47 -15 -35 -17 -47 hhcurveto
          endchar
        </CharString>
        <CharString name="nine.denominator">
          -194 -7 25 callgsubr
          117 -74 callgsubr
        </CharString>
        <CharString name="nine.numerator">
          -194 343 25 callgsubr
          467 -74 callgsubr
        </CharString>
        <CharString name="nine.otlf">
          63 -11 131 -131 217 32 128 217 128 hstemhm
          hintmask 01110000
          271 366 rmoveto
          62 callsubr
          111 callgsubr
          -222 -180 rmoveto
          -112 95 -85 125 123 86 97 120 14 vhcurveto
          10 84 0 120 58 callgsubr
          97 -126 hhcurveto
          -118 -90 -93 -117 -6 hvcurveto
          -1 -21 0 -10 1 -18 rrcurveto
          -119 7 89 -95 117 hhcurveto
          30 38 10 5 14 hvcurveto
          11 4 13 -3 -14 vvcurveto
          hintmask 10110000
          -90 -43 -30 -62 -54 -26 31 35 -8 vhcurveto
          104 callsubr
          hvcurveto
          endchar
        </CharString>
        <CharString name="nineinferior">
          -194 -189 25 callgsubr
          -65 -74 callgsubr
        </CharString>
        <CharString name="ninesuperior">
          -194 343 25 callgsubr
          467 -74 callgsubr
        </CharString>
        <CharString name="notequal">
          53 10 204 -127 127 72 127 -127 204 hstemhm
          hintmask 01100000
          91 87 rmoveto
          120 callsubr
          -29 -42 rlineto
          hintmask 10100000
          -13 -9 12 -15 13 hhcurveto
          69 hlineto
          9 5 5 10 7 hvcurveto
          41 55 rlineto
          hintmask 01100000
          4 3 3 3 8 hhcurveto
          242 -107 callsubr
          57 callsubr
          -157 128 callsubr
          40 58 rlineto
          4 3 3 3 8 hhcurveto
          108 -107 callsubr
          87 71 callgsubr
          -1 4 3 2 hvcurveto
          30 42 rlineto
          hintmask 10010000
          13 9 -12 15 -13 hhcurveto
          -72 hlineto
          -9 -3 -5 -10 -7 hvcurveto
          -39 -55 rlineto
          hintmask 10100000
          -4 -3 -3 -3 -8 hhcurveto
          -241 -105 callsubr
          -87 -103 callgsubr
          156 hlineto
          120 callsubr
          -41 -58 rlineto
          -4 -3 -3 -3 -8 hhcurveto
          -106 -105 callsubr
          -87 131 callsubr
        </CharString>
        <CharString name="notequal.case">
          53 76 207 -131 131 70 131 -131 207 hstemhm
          hintmask 01100000
          87 152 rmoveto
          120 callsubr
          -29 -41 rlineto
          hintmask 10100000
          -13 -9 12 -15 13 hhcurveto
          72 hlineto
          9 4 5 10 7 hvcurveto
          41 53 rlineto
          hintmask 01100000
          5 3 3 3 8 hhcurveto
          244 -107 callsubr
          91 -96 callgsubr
          -156 128 callsubr
          38 55 rlineto
          5 3 4 3 8 hhcurveto
          108 -107 callsubr
          91 -96 callgsubr
          -22 128 callsubr
          30 41 rlineto
          hintmask 10010000
          12 9 -13 16 -13 hhcurveto
          -74 hlineto
          -9 -3 -5 -10 -7 hvcurveto
          -38 -54 rlineto
          hintmask 10100000
          -4 -3 -3 -3 -8 hhcurveto
          -241 -105 callsubr
          -91 -103 callgsubr
          153 hlineto
          120 callsubr
          -40 -56 rlineto
          -4 -3 -2 -3 -8 hhcurveto
          -105 -105 callsubr
          -91 131 callsubr
        </CharString>
        <CharString name="nsuperior">
          -219 371 -21 186 70 hstem
          30 80 49 80 vstem
          92 588 rmoveto
          -6 -1 1 3 -3 hvcurveto
          3 -3 -3 5 -9 hhcurveto
          -27 hlineto
          -5 2 callsubr
          hvcurveto
          -230 vlineto
          -5 -1 callsubr
          vhcurveto
          60 -19 callgsubr
          157 vlineto
          4 7 15 17 19 6 -14 -7 vhcurveto
          -155 vlineto
          -5 4 -5 6 vhcurveto
          60 -32 callsubr
          154 vlineto
          51 -38 41 -53 vhcurveto
          -26 -15 -18 -15 hhcurveto
          endchar
        </CharString>
        <CharString name="ntilde">
          38 callsubr
          100 104 -79 125 callsubr
          60 -2 callsubr
          hintmask 1010100110000000
          31 callsubr
          hintmask 1101010110000000
          -60 -21 -35 -29 hhcurveto
          -14 -5 10 7 -8 hvcurveto
          4 -4 -5 3 -9 -63 callgsubr
          -306 -101 callgsubr
          -118 664 rmoveto
          hintmask 1101001110000000
          -68 callgsubr
          hintmask 1101010110000000
          -67 callgsubr
          endchar
        </CharString>
        <CharString name="numbersign">
          115 21 -21 148 109 173 106 164 -20 hstem
          341 267 rmoveto
          -6 -1 2 callsubr
          hhcurveto
          -86 86 callgsubr
          86 hlineto
          6 3 -4 -6 -1 hvcurveto
          -240 -153 rmoveto
          -6 -1 2 callsubr
          hhcurveto
          -50 hlineto
          -11 -11 -9 -11 -2 hvcurveto
          -11 -69 rlineto
          -11 -2 8 -9 11 hhcurveto
          50 36 callgsubr
          86 36 callgsubr
          50 hlineto
          11 10 9 11 2 hvcurveto
          11 69 rlineto
          11 2 -7 9 -11 hhcurveto
          -50 86 callgsubr
          50 hlineto
          11 10 9 11 2 hvcurveto
          11 66 rlineto
          11 2 -7 9 -11 hhcurveto
          -50 36 callsubr
          -86 36 callsubr
          -50 hlineto
          -11 -11 -9 -11 -2 hvcurveto
          -11 -66 rlineto
          -11 -2 8 -9 11 hhcurveto
          50 hlineto
          6 3 -4 -6 -1 hvcurveto
          endchar
        </CharString>
        <CharString name="o">
          50 callsubr
          hstem
          -98 callsubr
          endchar
        </CharString>
        <CharString name="oacute">
          50 callsubr
          59 160 hstem
          -98 callsubr
          261 555 rmoveto
          -45 callsubr
        </CharString>
        <CharString name="obreve">
          50 callsubr
          56 65 callgsubr
          104 97 hintmask 11101000
          -98 callsubr
          276 538 -12 callgsubr
          hintmask 11011000
          104 callgsubr
          vhcurveto
          -78 callgsubr
          endchar
        </CharString>
        <CharString name="ocircumflex">
          50 callsubr
          219 -20 hstem
          -98 callsubr
          208 455 rmoveto
          -107 callgsubr
        </CharString>
        <CharString name="odieresis">
          50 callsubr
          69 130 hstem
          97 85 callgsubr
          -98 callsubr
          181 515 -100 callgsubr
          endchar
        </CharString>
        <CharString name="oe">
          320 -11 126 -126 180 41 111 60 130 -118 118 hstemhm
          473 173 0 119 hintmask 10110100
          176 325 rmoveto
          38 5 22 18 50 hhcurveto
          51 23 -23 -33 4 hvcurveto
          5 -40 0 -70 -5 -40 rrcurveto
          -33 -4 -23 -27 -51 hhcurveto
          -50 -23 25 35 -4 hvcurveto
          -5 40 0 70 5 40 rrcurveto
          hintmask 01101100
          385 68 rmoveto
          43 42 -20 -43 -6 -4 -3 -6 hvcurveto
          -152 hlineto
          -6 -4 3 6 38 30 25 57 hvcurveto
          -138 -355 rmoveto
          -30 35 45 -19 58 hhcurveto
          111 73 66 94 18 hvcurveto
          14 3 -10 63 callgsubr
          -14 -39 hhcurveto
          -48 -40 34 55 9 6 6 9 hvcurveto
          257 hlineto
          hintmask 10110010
          -34 callgsubr
          -58 -45 -20 -30 -35 vhcurveto
          -14 -12 -12 7 -7 6 rrcurveto
          30 -35 -45 19 -57 hhcurveto
          -122 -25 callsubr
          56 46 18 30 34 hvcurveto
          7 6 12 7 14 -12 rrcurveto
          endchar
        </CharString>
        <CharString name="ogonek">
          346 -199 -21 220 100 hstemhm
          350 114 -114 194 hintmask 11010000
          544 80 rmoveto
          11 -9 9 -11 -90 -84 -60 -100 -110 74 -50 100 -100 callsubr
          vhcurveto
          39 callsubr
          hintmask 11100000
          71 callsubr
          hintmask 11010000
          -105 callgsubr
          endchar
        </CharString>
        <CharString name="ograve">
          50 callsubr
          59 160 hstem
          -98 callsubr
          63 555 -93 callgsubr
          endchar
        </CharString>
        <CharString name="ohungarumlaut">
          21 39 callgsubr
          59 160 hstem
          -98 callsubr
          167 555 -79 callsubr
        </CharString>
        <CharString name="omacron">
          50 callsubr
          85 98 hstem
          -98 callsubr
          85 519 -74 callsubr
          endchar
        </CharString>
        <CharString name="one">
          -55 83 callsubr
          223 139 vstem
          342 700 rmoveto
          -111 hlineto
          -25 -16 -14 -10 -9 hvcurveto
          -150 -162 rlineto
          -14 -15 -2 -13 -16 vvcurveto
          -100 vlineto
          -20 22 -8 12 12 vhcurveto
          155 154 rlineto
          6 6 13 -1 -13 vvcurveto
          -480 -103 callgsubr
          99 -107 callsubr
          79 callsubr
          endchar
        </CharString>
        <CharString name="one.denominator">
          -236 21 34 callgsubr
          350 -60 callsubr
        </CharString>
        <CharString name="one.numerator">
          -236 371 34 callgsubr
          700 -60 callsubr
        </CharString>
        <CharString name="one.otlf">
          63 0 135 565 -20 hstem
          229 139 vstem
          229 145 rmoveto
          -54 callgsubr
          -140 hlineto
          -11 -9 -9 -11 hvcurveto
          -95 107 callgsubr
          95 -96 callgsubr
          -111 -80 callsubr
          535 -96 callgsubr
          -111 hlineto
          -25 -16 -14 -10 -9 hvcurveto
          -116 -125 rlineto
          -14 -15 -2 -13 -16 vvcurveto
          -96 vlineto
          -20 22 -8 12 12 vhcurveto
          121 113 rlineto
          6 6 13 -1 -13 vvcurveto
          endchar
        </CharString>
        <CharString name="onehalf">
          223 0 85 138 132 -77 77 345 -20 hstemhm
          24 186 -92 92 199 241 -90 90 hintmask 11011010
          591 33 callsubr
          -33 685 rmoveto
          61 callgsubr
          hintmask 11010110
          3 3 6 -1 -6 vvcurveto
          -214 -12 callsubr
          72 34 callsubr
          330 58 callsubr
          209 -467 rmoveto
          -6 4 -4 6 vhcurveto
          71 hlineto
          -69 callsubr
          hvcurveto
          18 vlineto
          hintmask 10111001
          20 17 7 15 13 15 -8 -19 -17 -16 -18 -124 -130 vhcurveto
          -2 -2 -3 -3 -7 vvcurveto
          128 callgsubr
          216 hlineto
          -69 callsubr
          hvcurveto
          65 -50 callsubr
          -94 hlineto
          -9 1 7 3 3 hvcurveto
          86 81 22 34 41 vvcurveto
          69 -61 35 -59 vhcurveto
          hintmask 11011010
          -58 -63 -39 -65 hvcurveto
          endchar
        </CharString>
        <CharString name="oneinferior">
          -236 -161 34 callgsubr
          168 -60 callsubr
        </CharString>
        <CharString name="onequarter">
          203 21 -21 55 80 565 -20 hstemhm
          24 186 305 80 vstemhm
          210 690 rmoveto
          70 callgsubr
          -68 hlineto
          61 callgsubr
          hintmask 11111000
          3 3 6 -1 -6 vvcurveto
          -214 -12 callsubr
          72 34 callsubr
          381 312 -47 callgsubr
          endchar
        </CharString>
        <CharString name="onesuperior">
          -236 371 34 callgsubr
          700 -60 callsubr
        </CharString>
        <CharString name="ordfeminine">
          -151 447 61 42 58 15 85 hstemhm
          44 223 -71 71 hintmask 11101000
          192 550 rmoveto
          2 2 -2 -2 hvcurveto
          -10 vlineto
          -21 -28 -7 -22 -18 -12 7 15 5 5 15 17 vhcurveto
          20 98 rmoveto
          22 16 -7 -20 hvcurveto
          -8 vlineto
          60 callsubr
          -61 hlineto
          hintmask 11110000
          -58 -28 -44 -34 -53 36 -30 58 hvcurveto
          37 24 19 9 hhcurveto
          6 1 -6 -4 3 hvcurveto
          -2 2 2 -1 3 hhcurveto
          32 34 callsubr
          155 vlineto
          64 -52 26 -55 -60 -47 -30 -45 -1 callgsubr
          43 hlineto
          9 1 1 8 4 hvcurveto
          13 7 21 3 10 hhcurveto
          endchar
        </CharString>
        <CharString name="ordmasculine">
          36 445 77 112 77 hstem
          50 552 rmoveto
          -69 8 56 -38 51 hhcurveto
          51 56 38 69 8 hvcurveto
          2 18 1 13 -3 20 rrcurveto
          73 -9 -55 35 -51 hhcurveto
          -51 -55 -35 -73 -9 hvcurveto
          -3 -20 1 -13 2 -18 rrcurveto
          115 -30 rmoveto
          -23 -17 14 20 -4 hvcurveto
          -2 12 0 16 2 13 rrcurveto
          23 4 14 14 26 hhcurveto
          26 14 -14 -23 4 hvcurveto
          2 -13 0 -16 -2 -12 rrcurveto
          -20 -4 -17 -14 -23 hhcurveto
          endchar
        </CharString>
        <CharString name="oslash">
          116 callsubr
          hstemhm
          hintmask 10010000
          50 callgsubr
          hintmask 01100000
          7 callgsubr
          hintmask 10100000
          -35 callsubr
          endchar
        </CharString>
        <CharString name="oslashacute">
          116 callsubr
          90 160 hstemhm
          hintmask 10011000
          50 callgsubr
          hintmask 01101000
          7 callgsubr
          hintmask 10101000
          -35 callsubr
          133 405 rmoveto
          -45 callsubr
        </CharString>
        <CharString name="osuperior">
          -230 365 -21 188 74 hstem
          128 606 rmoveto
          -62 -35 -40 -52 -8 hvcurveto
          96 callsubr
          35 -40 62 hhcurveto
          62 35 40 52 8 hvcurveto
          3 20 0 38 -3 20 rrcurveto
          52 -8 -35 40 -62 hhcurveto
          -190 vmoveto
          -13 -10 9 11 -2 hvcurveto
          -5 20 0 39 5 19 rrcurveto
          14 3 9 4 13 hhcurveto
          15 7 -9 -9 2 hvcurveto
          5 -19 0 -40 -5 -19 rrcurveto
          -9 -2 -4 -11 -18 hhcurveto
          endchar
        </CharString>
        <CharString name="otilde">
          50 callsubr
          94 125 callsubr
          hintmask 11100000
          -98 callsubr
          305 509 rmoveto
          hintmask 11010000
          -68 callgsubr
          hintmask 11100000
          -67 callgsubr
          endchar
        </CharString>
        <CharString name="p">
          28 89 callsubr
          60 129 151 130 hintmask 11010110
          340 175 28 callgsubr
          -60 336 rmoveto
          hintmask 11101110
          -74 -8 -34 -29 hhcurveto
          -10 -9 9 7 -6 hvcurveto
          4 -4 -4 3 -6 hhcurveto
          -50 hlineto
          -11 -9 -9 -11 hvcurveto
          -660 vlineto
          70 callsubr
          -6 14 16 -6 30 hhcurveto
          105 77 81 87 callgsubr
          hintmask 11010110
          105 -8 -77 81 -105 hhcurveto
          endchar
        </CharString>
        <CharString name="paragraph">
          140 -79 -21 705 95 hstem
          220 100 80 100 vstem
          220 350 rmoveto
          -430 -103 callgsubr
          60 -107 callsubr
          675 -80 callgsubr
          60 -67 callsubr
          -675 -103 callgsubr
          60 -107 callsubr
          760 -96 callgsubr
          -260 hlineto
          -94 -76 -76 -94 -91 72 -79 88 -66 callsubr
          endchar
        </CharString>
        <CharString name="parenleft">
          -126 99 callsubr
          hstem
          283 38 rmoveto
          -58 -28 34 48 -9 hvcurveto
          -15 82 -1 226 16 82 rrcurveto
          63 12 38 19 45 53 callsubr
          -42 hlineto
          -132 -80 -101 -109 -13 hvcurveto
          -10 -80 0 -229 10 -81 rrcurveto
          -129 16 89 -81 120 53 callsubr
          endchar
        </CharString>
        <CharString name="parenleft.case">
          -123 80 callsubr
          345 -65 rmoveto
          -89 -52 67 68 -11 hvcurveto
          -17 103 0 282 18 102 rrcurveto
          87 15 63 49 73 hhcurveto
          61 hlineto
          14 11 11 14 hvcurveto
          77 82 callgsubr
          -61 hlineto
          -165 -100 -126 -136 -17 hvcurveto
          -12 -100 0 -287 13 -101 rrcurveto
          -161 20 111 -102 150 hhcurveto
          66 121 callsubr
          78 82 callgsubr
          endchar
        </CharString>
        <CharString name="parenleft.denominator">
          -296 -45 87 callsubr
          138 39 -59 callsubr
          4 6 hvcurveto
          64 91 callgsubr
        </CharString>
        <CharString name="parenleft.numerator">
          -296 301 87 callsubr
          138 385 -59 callsubr
          5 5 hvcurveto
          64 91 callgsubr
        </CharString>
        <CharString name="parenleftinferior">
          -296 -227 87 callsubr
          138 -143 -59 callsubr
          4 6 hvcurveto
          64 58 callsubr
          endchar
        </CharString>
        <CharString name="parenleftsuperior">
          -296 301 87 callsubr
          138 385 -59 callsubr
          5 5 hvcurveto
          64 91 callgsubr
        </CharString>
        <CharString name="parenright">
          -122 99 callsubr
          hstem
          40 38 -40 callsubr
          -88 -103 callgsubr
          42 hlineto
          120 89 81 129 16 hvcurveto
          10 81 0 229 -10 80 rrcurveto
          109 -13 -80 101 -132 hhcurveto
          -42 -105 callsubr
          -88 -103 callgsubr
          42 hlineto
          45 38 -19 -63 12 hvcurveto
          16 -82 -1 -226 -15 -82 rrcurveto
          -48 -9 -28 -34 -58 hhcurveto
          endchar
        </CharString>
        <CharString name="parenright.case">
          -118 80 callsubr
          -37 -65 rmoveto
          -14 -11 -11 -14 hvcurveto
          -78 122 callgsubr
          66 hlineto
          150 111 102 161 20 hvcurveto
          13 101 0 287 -12 100 rrcurveto
          136 -17 -100 126 -165 hhcurveto
          -61 102 callgsubr
          -77 vlineto
          -14 11 -11 14 vhcurveto
          61 hlineto
          73 63 -49 -87 15 hvcurveto
          18 -102 0 -282 -17 -103 rrcurveto
          -68 -11 -52 -67 -89 hhcurveto
          endchar
        </CharString>
        <CharString name="parenright.denominator">
          -292 -45 87 callsubr
          25 39 103 callgsubr
          -64 vlineto
          -6 5 -4 -59 callgsubr
        </CharString>
        <CharString name="parenright.numerator">
          -292 301 87 callsubr
          25 385 103 callgsubr
          -64 vlineto
          -5 5 -5 -59 callgsubr
        </CharString>
        <CharString name="parenrightinferior">
          -292 -227 87 callsubr
          25 -143 rmoveto
          -5 -5 -5 -5 hvcurveto
          -64 vlineto
          -6 5 -4 -59 callgsubr
        </CharString>
        <CharString name="parenrightsuperior">
          -292 301 87 callsubr
          25 385 103 callgsubr
          -64 vlineto
          -5 5 -5 -59 callgsubr
        </CharString>
        <CharString name="partialdiff">
          27 -11 131 215 125 110 130 hstemhm
          27 134 0 178 hintmask 11110000
          250 120 rmoveto
          -52 -33 34 52 -4 hvcurveto
          42 callgsubr
          hintmask 11101000
          14 callsubr
          -36 450 rmoveto
          48 57 -37 -70 -14 -12 -5 -11 6 hvcurveto
          7 -13 -21 3 -12 hhcurveto
          hintmask 11110000
          127 callgsubr
          100 -96 123 93 callsubr
          rrcurveto
          145 -41 -79 75 -118 hhcurveto
          -66 68 callgsubr
          endchar
        </CharString>
        <CharString name="percent">
          193 67 callgsubr
          8 -11 37 callgsubr
          -10 12 14 -1 hvcurveto
          -4 27 0 78 4 27 rrcurveto
          hintmask 10011000
          14 1 10 12 20 hhcurveto
          19 10 -12 -14 1 hvcurveto
          3 -27 0 -78 -3 -62 callsubr
          334 -594 rmoveto
          -20 -10 12 14 -1 hvcurveto
          -4 27 0 78 4 27 rrcurveto
          hintmask 10101000
          14 1 10 12 20 hhcurveto
          19 10 -12 -14 1 hvcurveto
          2 -27 0 -78 -2 -62 callsubr
          endchar
        </CharString>
        <CharString name="period">
          -224 0 160 hstem
          52 160 vstem
          212 140 -64 callsubr
          endchar
        </CharString>
        <CharString name="periodcentered">
          -52 163 183 hstem
          119 183 vstem
          302 326 59 callsubr
          -143 -105 callsubr
          -143 -103 callgsubr
          143 -107 callsubr
          endchar
        </CharString>
        <CharString name="perthousand">
          466 67 callgsubr
          7 -10 37 callgsubr
          -9 12 14 -2 hvcurveto
          -3 27 0 78 3 27 rrcurveto
          hintmask 10011000
          14 2 9 12 20 hhcurveto
          19 10 -12 -14 1 hvcurveto
          3 -27 0 -78 -3 -62 callsubr
          334 -594 106 callgsubr
          hintmask 10101000
          14 2 9 12 20 hhcurveto
          19 10 -12 -14 1 hvcurveto
          3 -27 0 -78 -3 -62 callsubr
          281 -274 106 callgsubr
          14 2 9 12 20 hhcurveto
          19 10 -12 -14 1 hvcurveto
          3 -27 0 -78 -3 -62 callsubr
          endchar
        </CharString>
        <CharString name="pi">
          48 0 119 251 130 hstemhm
          90 125 85 124 -124 215 hintmask 11101000
          495 370 43 callgsubr
          -460 68 callgsubr
          45 -67 callsubr
          -340 -103 callgsubr
          85 -107 callsubr
          340 -80 callgsubr
          67 hlineto
          5 3 -5 -5 hvcurveto
          -170 vlineto
          -132 68 -58 132 -100 callsubr
          vhcurveto
          79 -96 callgsubr
          hintmask 11110000
          -58 -18 22 49 hvcurveto
          170 119 callgsubr
        </CharString>
        <CharString name="plus">
          53 51 -21 156 112 callgsubr
          186 -26 callsubr
          endchar
        </CharString>
        <CharString name="plus.case">
          53 119 -21 154 133 153 -20 hstem
          203 133 vstem
          193 252 120 callgsubr
          -124 -103 callgsubr
          93 -107 callsubr
          124 -80 callgsubr
          124 -107 callsubr
          93 -96 callgsubr
          -124 -80 callsubr
          123 -96 callgsubr
          -93 -105 callsubr
          -123 -65 callsubr
          -123 -105 callsubr
          -93 51 callsubr
        </CharString>
        <CharString name="plus.denominator">
          15 29 callgsubr
          84 -61 callsubr
        </CharString>
        <CharString name="plus.numerator">
          361 29 callgsubr
          430 -61 callsubr
        </CharString>
        <CharString name="plusinferior">
          -167 29 callgsubr
          -98 rmoveto
          3 2 -2 -3 hvcurveto
          -54 vlineto
          hintmask 10010000
          -1 callgsubr
          63 hlineto
          -69 callsubr
          hvcurveto
          54 vlineto
          hintmask 01100000
          22 callgsubr
          54 hlineto
          -69 callsubr
          hvcurveto
          63 vlineto
          15 callgsubr
          -54 hlineto
          hintmask 10010000
          72 callsubr
          53 -50 callsubr
          -63 hlineto
          -5 2 callsubr
          hvcurveto
          -53 vlineto
          hintmask 01100000
          60 callsubr
          -53 72 callgsubr
          -63 -12 callsubr
          endchar
        </CharString>
        <CharString name="plusminus">
          53 0 129 225 112 callgsubr
          354 -26 callsubr
          3 -225 9 callgsubr
        </CharString>
        <CharString name="plussuperior">
          361 29 callgsubr
          430 -61 callsubr
        </CharString>
        <CharString name="product">
          82 -179 -21 760 140 hstem
          65 122 196 122 vstem
          383 -180 rmoveto
          -104 callgsubr
          82 -107 callsubr
          860 -96 callgsubr
          -400 -105 callsubr
          -860 -103 callgsubr
          82 -107 callsubr
          730 -80 callgsubr
          176 27 callsubr
        </CharString>
        <CharString name="psuperior">
          -223 250 171 -77 77 108 77 hstemhm
          30 80 -80 211 hintmask 10110000
          136 529 rmoveto
          75 callsubr
          -17 -5 2 13 -1 hvcurveto
          -2 20 0 38 2 20 rrcurveto
          11 1 5 4 17 hhcurveto
          10 77 rmoveto
          -37 -4 -18 -14 hhcurveto
          -5 -5 5 3 -3 hvcurveto
          2 -2 -2 2 -3 hhcurveto
          -31 72 callgsubr
          -330 -12 callsubr
          60 hlineto
          -69 callsubr
          hvcurveto
          83 vlineto
          12 10 1 8 -4 vhcurveto
          hintmask 01101000
          -5 11 4 -3 18 hhcurveto
          43 33 110 callsubr
          -39 39 -52 hhcurveto
          endchar
        </CharString>
        <CharString name="q">
          36 89 callsubr
          53 84 callgsubr
          hintmask 11010110
          334 175 rmoveto
          -38 -3 -24 -22 -49 hhcurveto
          -48 -25 27 33 -2 hvcurveto
          -3 40 0 70 3 40 rrcurveto
          20 callsubr
          -25 -35 3 -8 callsubr
          -91 336 rmoveto
          -105 -77 -81 -105 -8 hvcurveto
          -3 -40 0 -70 3 -40 rrcurveto
          -105 8 77 -81 105 hhcurveto
          30 16 6 6 14 hvcurveto
          15 6 15 -5 -22 vvcurveto
          -160 -101 callgsubr
          hintmask 11101110
          79 callsubr
          -50 hlineto
          -6 -4 -3 -4 -4 hvcurveto
          -7 -6 -9 -9 -10 hhcurveto
          hintmask 11010110
          -29 -8 34 -74 hhcurveto
          endchar
        </CharString>
</ttFont>
